<svg width="138" height="138" viewBox="0 0 138 138" fill="none" xmlns="http://www.w3.org/2000/svg">
<path d="M83.8657 33.6868C78.3448 31.5131 73.2338 32.4912 68.782 35.6344C66.7618 37.061 64.8766 38.9328 63.1515 41.1587C61.4113 43.4031 59.8312 46.0084 58.4384 48.8801C56.6948 52.4668 55.2445 56.4701 54.1283 60.706C53.3728 63.5743 52.7708 66.5473 52.3374 69.5708C52.3357 69.5826 52.334 69.5927 52.3324 69.6045L51.9546 69.7596L39.402 74.9449L39.2738 74.9972L39.3801 74.3058L41.0798 63.1815L43.0831 57.9945L47.7794 45.828L48.5028 45.0489L55.0254 38.0256L60.9324 31.6633L69.0265 28.4594L70.2676 28.5926H70.2693L83.1474 29.972C83.1474 29.972 83.1474 29.972 83.1491 29.972L83.1912 29.977L83.198 30.0175V30.0192L83.8657 33.6868Z" fill="#FC3C53"/>
<g opacity="0.6">
<path d="M63.1519 41.1586C61.4116 43.4031 59.8316 46.0083 58.4387 48.8801L48.5032 45.0489L55.0257 38.0255L63.1519 41.1586Z" fill="white"/>
</g>
<g opacity="0.25">
<path d="M54.1284 60.7059C53.373 63.5743 52.771 66.5472 52.3376 69.5707C52.2094 69.6331 52.0813 69.6955 51.9548 69.7596L39.4022 74.9449C39.392 74.7324 39.3853 74.5199 39.3802 74.3058L41.08 63.1814L43.0833 57.9944C44.1575 59.6757 45.8825 60.9488 47.8319 61.3973C49.9329 61.883 52.0745 61.4597 54.1284 60.7059Z" fill="#00046A"/>
</g>
<g opacity="0.25">
<path d="M83.8657 33.6868C78.3448 31.5131 73.2338 32.4912 68.782 35.6344C66.1733 33.5367 62.4348 32.8335 59.2848 34.0207L59.6474 33.7374C60.5428 33.4355 61.2207 32.7172 61.9373 32.1C64.2492 30.1051 67.2423 29.0191 70.2675 28.5925H70.2692L83.1473 29.9719C83.1473 29.9719 83.1473 29.9719 83.149 29.9719C83.1659 29.9854 83.1827 30.0006 83.1979 30.0174V30.0191L83.8657 33.6868Z" fill="#00046A"/>
</g>
<path d="M39.2737 75.6569C39.3587 75.6569 39.4441 75.6405 39.5253 75.6069L52.5841 70.2142C52.7998 70.1252 52.9523 69.9288 52.9854 69.6978C54.0889 61.9727 56.2699 54.69 59.2924 48.637C62.4268 42.3598 66.3223 37.7392 70.5578 35.2749C74.7193 32.8534 79.1153 32.5259 83.6241 34.3006C83.8473 34.3881 84.0999 34.3483 84.2845 34.1964C84.4695 34.0445 84.5576 33.8042 84.5147 33.5687L83.8402 29.8589C83.788 29.5711 83.5524 29.3521 83.2615 29.321L69.0968 27.8033C68.9903 27.7918 68.8829 27.8065 68.7837 27.8458L60.6896 31.0497C60.598 31.086 60.5159 31.1422 60.4489 31.2142L47.2959 45.379C47.2389 45.4404 47.1941 45.5121 47.164 45.5903L40.4648 62.9435C40.4477 62.988 40.4353 63.0342 40.4281 63.0814L38.6215 74.8974C38.5856 75.1328 38.6791 75.3691 38.8664 75.5161C38.9844 75.6089 39.1283 75.6569 39.2737 75.6569ZM51.7334 69.138L40.1023 73.9412L41.7214 63.3518L48.3491 46.1839L61.314 32.2217L69.118 29.1326L82.6303 30.5804L83.012 32.6792C78.4913 31.2088 74.0843 31.6967 69.8943 34.1345C65.4359 36.7286 61.3615 41.5397 58.1119 48.0476C55.0758 54.1279 52.8732 61.4128 51.7334 69.138Z" fill="#00046A"/>
<path d="M43.5352 71.628L43.2013 76.6801L43.1271 77.8065L41.3717 104.342H37.9182C35.4208 104.342 33.1157 102.939 32.0331 100.688C29.1495 94.6963 28.6099 86.7354 30.8071 80.2955C31.4665 78.3613 32.3754 76.562 33.5406 74.9972C34.2185 74.0849 34.9857 73.2519 35.8407 72.5167C36.5051 71.945 37.3516 71.628 38.2284 71.628L43.5352 71.628Z" fill="#FFEB52"/>
<g opacity="0.6">
<path d="M43.3193 76.7003L43.1271 77.8065L42.343 82.3055L30.8071 80.2954C31.4665 78.3613 32.3754 76.562 33.5406 74.9972L43.2013 76.6801L43.3193 76.7003Z" fill="white"/>
</g>
<g opacity="0.25">
<path d="M38.4062 97.1718C35.0516 97.1718 31.9539 95.8242 30.4992 93.6645C30.2513 93.2966 30.0172 92.9204 29.7953 92.5379C30.1957 95.0584 30.948 97.49 32.0329 99.6541C33.1156 101.814 35.421 103.161 37.9176 103.161H41.3717L41.7842 97.1718H38.4062Z" fill="#00046A"/>
</g>
<path d="M37.9178 105.001H41.3718C41.7193 105.001 42.0071 104.732 42.03 104.385L44.1929 71.6716C44.2049 71.4894 44.141 71.3104 44.0164 71.1772C43.8915 71.0439 43.7171 70.9683 43.5347 70.9683H38.2294C37.1978 70.9683 36.1968 71.3409 35.4103 72.0174C31.9072 75.0312 29.6236 79.8341 28.9804 85.5414C28.3811 90.8578 29.2771 96.4829 31.4387 100.974C32.616 103.421 35.1593 105.001 37.9178 105.001ZM40.7543 103.682H37.9178C35.663 103.682 33.5865 102.395 32.6276 100.402C28.6416 92.1201 29.1544 79.1399 36.2709 73.0176C36.8179 72.5469 37.5135 72.2877 38.2294 72.2877H42.8299L40.7543 103.682Z" fill="#00046A"/>
<path d="M68.1682 88.2867C68.1665 88.3761 68.1631 88.4655 68.1598 88.5565C68.153 88.7319 68.1446 88.9073 68.1362 89.0827C68.1277 89.2665 68.1159 89.4519 68.1041 89.6341C68.0907 89.8718 68.0738 90.1062 68.0536 90.3406C68.0451 90.4536 68.035 90.5666 68.0249 90.6795C68.0232 90.7082 68.0215 90.7369 68.0182 90.7639C68.0047 90.9089 67.9912 91.0539 67.976 91.1989C67.8529 92.413 67.6792 93.5968 67.4583 94.7384C67.4364 94.8531 67.4128 94.9678 67.3891 95.0824C67.3571 95.2443 67.3234 95.4045 67.288 95.563C67.2306 95.8345 67.1699 96.1026 67.1042 96.369C67.0705 96.514 67.0351 96.6574 66.998 96.8007C66.9271 97.0806 66.8529 97.3589 66.7754 97.6337C66.7484 97.7315 66.7214 97.8293 66.6927 97.9254C66.6657 98.0165 66.6405 98.1076 66.6118 98.1969C66.4263 98.8226 66.2239 99.4296 66.0081 100.018C65.9626 100.143 65.9154 100.269 65.8681 100.392C65.8209 100.519 65.772 100.642 65.7231 100.767C65.6742 100.89 65.6253 101.013 65.5747 101.134C65.5241 101.256 65.4735 101.377 65.4213 101.497C65.3707 101.617 65.3184 101.735 65.2661 101.853C65.2122 101.973 65.1582 102.091 65.1043 102.209C65.0503 102.322 64.9963 102.435 64.9424 102.548C64.9441 102.542 64.9474 102.536 64.9491 102.531C63.332 105.885 61.2258 108.369 58.8853 109.532C58.3254 109.765 57.7538 109.965 57.1737 110.131C55.4638 110.625 53.6746 110.824 51.8467 110.687C41.8167 109.939 34.4325 99.3537 35.3515 87.049C35.5505 84.388 36.1222 81.8637 36.9973 79.5501C38.0698 76.7121 39.5976 74.1894 41.4559 72.117C45.0881 68.0665 49.9783 65.7361 55.1788 66.1256C56.715 66.2403 58.1888 66.586 59.58 67.134C59.7958 67.2166 60.01 67.3077 60.2224 67.4021C60.2258 67.4021 60.2275 67.4038 60.2309 67.4055C65.1245 69.7579 68.4819 78.2449 68.1682 88.2867Z" fill="#FC3C53"/>
<g opacity="0.6">
<path d="M51.2837 72.0125C50.6328 75.0292 49.7643 78.0004 48.6868 80.8924C45.5959 80.1083 42.4628 79.3208 39.274 79.3461C38.5135 79.3528 37.7446 79.4085 36.9976 79.5501C38.07 76.7121 39.5978 74.1894 41.4561 72.117C44.6769 71.402 48.0494 71.3548 51.2837 72.0125Z" fill="white"/>
</g>
<g opacity="0.25">
<path d="M68.1754 87.8309C68.1423 87.9834 68.1075 88.1343 68.0709 88.2836C68.0118 88.5394 67.9491 88.7919 67.8811 89.0429C67.8463 89.1795 67.8098 89.3146 67.7714 89.4496C67.6983 89.7132 67.6217 89.9753 67.5416 90.2343C67.5137 90.3264 67.4859 90.4185 67.4562 90.5091C67.4284 90.5948 67.4022 90.6806 67.3727 90.7648C67.1811 91.3541 66.9722 91.926 66.7493 92.4803C66.7023 92.5979 66.6535 92.717 66.6048 92.8329C66.556 92.9521 66.5055 93.068 66.455 93.1856C66.4045 93.3015 66.354 93.4175 66.3018 93.5319C66.2496 93.6462 66.1973 93.7606 66.1433 93.8734C66.0911 93.9862 66.0371 94.0974 65.9831 94.2086C65.9274 94.3214 65.8717 94.4326 65.8159 94.5438C65.7602 94.6502 65.7045 94.7566 65.6488 94.863C65.6511 94.8578 65.6533 94.8524 65.6556 94.8472C63.9861 98.0072 61.8102 100.347 59.394 101.442C58.8159 101.662 58.2256 101.851 57.6266 102.006C55.861 102.472 54.0135 102.659 52.1259 102.531C44.954 102.042 39.0933 97.1105 36.4811 90.2752C36.9836 100.457 43.6571 108.721 52.4303 109.361C54.1929 109.49 55.918 109.302 57.5668 108.837C58.1262 108.681 58.6774 108.492 59.2172 108.273C61.4734 107.177 63.5052 104.838 65.0641 101.678C65.0619 101.683 65.0599 101.688 65.0578 101.693C65.1098 101.587 65.1618 101.481 65.2138 101.374C65.2659 101.263 65.3179 101.152 65.3699 101.039C65.4203 100.928 65.4707 100.817 65.5195 100.704C65.5699 100.591 65.6187 100.477 65.6675 100.362C65.7163 100.248 65.7634 100.132 65.8106 100.016C65.8577 99.8984 65.9049 99.7825 65.9504 99.6633C65.9959 99.5474 66.0415 99.4283 66.0854 99.3107C66.2935 98.7563 66.4886 98.1845 66.6675 97.5952C66.6951 97.511 66.7195 97.4252 66.7455 97.3395C66.7732 97.2489 66.7992 97.1568 66.8252 97.0647C66.9 96.8057 66.9715 96.5436 67.0399 96.28C67.0756 96.145 67.1098 96.0099 67.1423 95.8733C67.2057 95.6224 67.2642 95.3698 67.3195 95.1141C67.3537 94.9647 67.3862 94.8138 67.4171 94.6613C67.4398 94.5533 67.4626 94.4453 67.4837 94.3373C67.6967 93.2619 67.8642 92.1468 67.9829 91.0031C67.9975 90.8665 68.0106 90.7299 68.0236 90.5933C68.0268 90.5679 68.0284 90.5409 68.0301 90.5138C68.0398 90.4074 68.0496 90.301 68.0577 90.1946C68.0772 89.9738 68.0935 89.753 68.1065 89.529C68.1179 89.3575 68.1293 89.1827 68.1374 89.0096C68.1455 88.8444 68.1537 88.6792 68.1602 88.514C68.1634 88.4282 68.1667 88.344 68.1683 88.2598C68.173 88.1134 68.1742 87.9685 68.1772 87.8228C68.1766 87.8255 68.176 87.8282 68.1754 87.8309Z" fill="#00046A"/>
</g>
<path d="M52.9705 111.389C54.4489 111.389 55.9195 111.18 57.3569 110.764C57.9512 110.595 58.5515 110.385 59.1385 110.141C59.1524 110.136 59.1659 110.129 59.1792 110.123C61.6128 108.913 63.8031 106.407 65.5166 102.873C65.5242 102.859 65.5313 102.845 65.538 102.831L65.8771 102.103C65.9283 101.987 65.9795 101.871 66.0291 101.754C66.0798 101.638 66.132 101.513 66.1839 101.388C66.2359 101.263 66.2861 101.137 66.3364 101.01L66.3625 100.943C66.4044 100.837 66.4459 100.731 66.4864 100.623C66.5328 100.502 66.5814 100.372 66.628 100.244C66.8532 99.6299 67.0607 99.0039 67.2444 98.3844C67.2618 98.3304 67.2819 98.2617 67.302 98.1927L67.3254 98.113C67.3551 98.0136 67.3832 97.9114 67.4115 97.8092C67.4874 97.5401 67.5639 97.254 67.6376 96.9625C67.6752 96.8175 67.7121 96.6685 67.747 96.5178C67.8087 96.2679 67.8706 95.9971 67.9335 95.6996C67.9686 95.5432 68.0032 95.3778 68.0363 95.2107L68.0419 95.184C68.064 95.0767 68.0859 94.9694 68.1065 94.8621C68.3313 93.6999 68.5084 92.4893 68.6326 91.2655C68.6474 91.1222 68.6611 90.9772 68.6746 90.832C68.6784 90.7985 68.6809 90.7636 68.6828 90.7284C68.693 90.6158 68.7031 90.503 68.7117 90.3904C68.7318 90.1562 68.7491 89.9156 68.763 89.6714C68.7746 89.4901 68.7868 89.3005 68.7953 89.1127C68.8039 88.9371 68.8123 88.7595 68.8192 88.5818L68.8204 88.55C68.8233 88.467 68.8263 88.3852 68.8279 88.3034C69.1439 78.159 65.7307 69.326 60.5261 66.8155C60.509 66.8069 60.4914 66.7989 60.4734 66.7917C60.2253 66.6817 60.016 66.5945 59.8161 66.5179C58.3473 65.9394 56.8018 65.5852 55.228 65.4677C50.1758 65.0907 45.2541 67.139 41.3699 71.2379C37.5207 75.3 35.1497 80.8977 34.6938 86.9998C34.238 93.1023 35.7504 98.9902 38.9523 103.579C42.1836 108.21 46.7455 110.968 51.7978 111.345C52.1887 111.374 52.58 111.389 52.9705 111.389ZM58.6114 108.931C58.078 109.152 57.5338 109.342 56.9931 109.496C55.3245 109.978 53.6104 110.157 51.8961 110.029C47.2468 109.682 43.0342 107.123 40.0344 102.824C37.0057 98.4835 35.5763 92.8985 36.0095 87.098C36.4428 81.2979 38.6865 75.9876 42.3276 72.1453C45.9337 68.3398 50.4787 66.4352 55.1297 66.7834C56.5713 66.891 57.9871 67.2154 59.3383 67.7477C59.5267 67.8199 59.7207 67.9009 59.9546 68.0049C59.9569 68.006 59.9592 68.007 59.9617 68.0081C62.1881 69.086 64.1674 71.639 65.5366 75.1994C66.977 78.9444 67.659 83.4629 67.5089 88.2661C67.5088 88.2689 67.5088 88.2717 67.5088 88.2745C67.5073 88.35 67.5045 88.4254 67.5017 88.502L67.5007 88.5326C67.4941 88.7042 67.4857 88.8773 67.4773 89.0504C67.4689 89.2322 67.4574 89.4136 67.4459 89.5918C67.4325 89.828 67.4159 90.0561 67.3965 90.2842C67.3876 90.4005 67.3779 90.5104 67.3678 90.6202C67.3671 90.6273 67.3667 90.6345 67.3663 90.6416C67.3655 90.6561 67.365 90.6706 67.3633 90.6842C67.3628 90.6887 67.3619 90.6982 67.3614 90.7027C67.3482 90.8452 67.3348 90.9878 67.32 91.1304C67.1996 92.3169 67.0282 93.488 66.8107 94.613C66.7911 94.716 66.7702 94.8172 66.7494 94.9185L66.743 94.9497C66.7111 95.1107 66.6784 95.2657 66.6442 95.4191C66.5828 95.7093 66.5243 95.9657 66.4637 96.2106C66.4291 96.3594 66.3952 96.4972 66.3595 96.6349C66.2875 96.9189 66.2142 97.1932 66.1406 97.4545C66.1138 97.5516 66.0879 97.645 66.0606 97.7368L66.0351 97.824C66.0183 97.8816 66.0016 97.9389 65.9835 97.9956C65.8035 98.6023 65.6049 99.2016 65.3887 99.7909C65.3439 99.9137 65.298 100.037 65.2522 100.157C65.2125 100.263 65.1736 100.362 65.1344 100.461L65.1089 100.526C65.0625 100.643 65.0149 100.763 64.9658 100.881C64.9167 100.999 64.8673 101.117 64.8166 101.233C64.7669 101.351 64.7186 101.46 64.6704 101.569L64.4779 101.989L64.3728 102.209C64.3666 102.221 64.3604 102.232 64.3547 102.244C62.7935 105.484 60.7545 107.858 58.6114 108.931Z" fill="#00046A"/>
<path d="M68.1687 88.2867C68.167 88.3761 68.1636 88.4654 68.1603 88.5565C68.1535 88.7318 68.1451 88.9072 68.1366 89.0826C68.1282 89.2664 68.1164 89.4519 68.1046 89.634C68.0912 89.8718 68.0743 90.1062 68.0541 90.3406C68.0456 90.4536 68.0355 90.5666 68.0254 90.6795C68.0237 90.7082 68.022 90.7368 68.0187 90.7638C68.0052 90.9088 67.9917 91.0539 67.9765 91.1989C67.8534 92.413 67.6797 93.5968 67.4588 94.7384C67.4369 94.8531 67.4133 94.9677 67.3896 95.0824C67.3576 95.2443 67.3239 95.4044 67.2885 95.563C67.2311 95.8344 67.1704 96.1026 67.1047 96.369C67.0709 96.514 67.0356 96.6573 66.9984 96.8007C66.9276 97.0806 66.8534 97.3588 66.7758 97.6337C66.7489 97.7315 66.7219 97.8293 66.6932 97.9254C66.6662 98.0165 66.6409 98.1075 66.6123 98.1969C66.4268 98.8225 66.2244 99.4296 66.0086 100.018C65.9631 100.143 65.9158 100.269 65.8686 100.392C65.8214 100.519 65.7725 100.642 65.7236 100.767C65.6747 100.89 65.6258 101.013 65.5752 101.134C65.5246 101.256 65.474 101.377 65.4218 101.497C65.3712 101.617 65.3189 101.735 65.2666 101.853C65.2127 101.973 65.1587 102.091 65.1047 102.209C65.0508 102.322 64.9968 102.435 64.9429 102.548C64.9451 102.542 64.9472 102.536 64.9495 102.531C63.3328 105.885 61.2256 108.369 58.8857 109.532C58.3276 109.809 57.7559 110.011 57.1742 110.131C56.6531 110.239 56.1253 110.282 55.5907 110.255C49.2621 109.938 44.6181 99.9456 45.2184 87.9376C45.4408 83.4719 46.3597 79.3607 47.7492 75.9692C47.746 75.9758 47.7426 75.9821 47.7394 75.9887C47.7749 75.901 47.8119 75.815 47.8474 75.7273C47.8811 75.648 47.9148 75.5688 47.9485 75.4895C47.9553 75.4727 47.962 75.4558 47.9704 75.439C48.0396 75.2788 48.1104 75.1203 48.1829 74.9634C48.22 74.8808 48.2571 74.7998 48.2959 74.7189C48.3347 74.6346 48.3751 74.5519 48.4156 74.4676C48.4544 74.3867 48.4932 74.3057 48.5337 74.2265C48.5337 74.2248 48.5337 74.2248 48.5337 74.2231C48.6078 74.0764 48.6821 73.9314 48.7562 73.7881C49.1424 73.0478 49.5539 72.3564 49.9872 71.7156C50.0227 71.6616 50.0598 71.6094 50.0969 71.5554C50.3936 71.1271 50.7006 70.7224 51.0176 70.343C51.0563 70.2958 51.0951 70.2485 51.1356 70.203C51.37 69.9298 51.6078 69.6718 51.8523 69.4273C51.8978 69.3801 51.945 69.3346 51.9905 69.289C52.0563 69.2266 52.1221 69.1643 52.1879 69.1019C52.2317 69.0614 52.2756 69.0209 52.3211 68.9805C52.5993 68.7309 52.8809 68.4999 53.1693 68.2874C53.2485 68.2301 53.3278 68.1728 53.407 68.1188C53.4526 68.0884 53.4964 68.0581 53.5403 68.0294C54.063 67.682 54.6009 67.4021 55.1473 67.193C55.2029 67.1711 55.2586 67.1509 55.3159 67.1306C55.4103 67.0986 55.5031 67.0682 55.5975 67.0395C55.6414 67.026 55.6835 67.0126 55.7274 67.0008C56.2366 66.8574 56.7543 66.7748 57.2771 66.7596C57.3361 66.758 57.3951 66.7563 57.4541 66.7563C57.5586 66.7563 57.6615 66.7596 57.766 66.7647C57.8571 66.7698 57.9465 66.7765 58.0359 66.7849C58.1252 66.7934 58.2146 66.8052 58.304 66.817C58.3011 66.8171 58.2982 66.8175 58.2953 66.8176C58.7328 66.8774 59.1622 66.9819 59.5805 67.134C59.798 67.2099 60.0122 67.2993 60.223 67.4021C60.2263 67.4021 60.228 67.4038 60.2314 67.4055C65.125 69.7579 68.4824 78.2449 68.1687 88.2867Z" fill="#B0B9C1"/>
<g opacity="0.6">
<path d="M68.1687 88.2867C68.167 88.3761 68.1636 88.4654 68.1603 88.5565C68.1535 88.7318 68.1451 88.9072 68.1366 89.0826C68.1282 89.2664 68.1164 89.4519 68.1046 89.634C68.0912 89.8718 68.0743 90.1062 68.0541 90.3406C68.0456 90.4536 68.0355 90.5666 68.0254 90.6795C68.0237 90.7082 68.022 90.7368 68.0187 90.7638C68.0052 90.9088 67.9917 91.0539 67.9765 91.1989C67.8534 92.413 67.6797 93.5968 67.4588 94.7384C67.4369 94.8531 67.4133 94.9677 67.3896 95.0824C67.3576 95.2443 67.3239 95.4044 67.2885 95.563C67.2311 95.8344 67.1687 96.1026 67.1047 96.369C67.0709 96.514 67.0356 96.6573 66.9984 96.8007C66.9276 97.0806 66.8534 97.3588 66.7758 97.6337C66.7489 97.7315 66.7219 97.8293 66.6932 97.9254C66.6662 98.0165 66.6409 98.1075 66.6123 98.1969C66.4268 98.8225 66.2244 99.4296 66.0086 100.018C65.9631 100.143 65.9158 100.269 65.8686 100.392C65.8214 100.519 65.7725 100.642 65.7236 100.767C65.6747 100.89 65.6258 101.013 65.5752 101.134C65.5246 101.256 65.474 101.377 65.4218 101.497C65.3712 101.617 65.3189 101.735 65.2666 101.853C65.2127 101.973 65.1587 102.091 65.1047 102.209C65.0508 102.322 64.9968 102.435 64.9429 102.547C65.7877 100.482 66.4571 98.148 66.8989 95.6287C67.1839 94.02 67.3761 92.3371 67.4621 90.6002C68.0641 78.5905 63.4201 68.5993 57.0915 68.2823C55.9128 68.2233 54.7594 68.5049 53.6583 69.0783C51.3784 70.2654 49.3229 72.7088 47.7394 75.9886C47.7749 75.9009 47.8119 75.8149 47.8474 75.7273C47.8811 75.648 47.9148 75.5688 47.9485 75.4895C47.9553 75.4727 47.962 75.4558 47.9704 75.4389C48.0396 75.2787 48.1104 75.1202 48.1829 74.9634C48.22 74.8807 48.2571 74.7998 48.2959 74.7189C48.3347 74.6345 48.3751 74.5519 48.4156 74.4676C48.4544 74.3867 48.4932 74.3057 48.5337 74.2265C48.5337 74.2248 48.5337 74.2248 48.5337 74.2231C48.6078 74.0764 48.6821 73.9314 48.7562 73.788C49.1424 73.0477 49.5539 72.3564 49.9872 71.7156C50.0227 71.6616 50.0598 71.6093 50.0969 71.5554C50.3936 71.1271 50.7006 70.7223 51.0176 70.3429C51.0563 70.2957 51.0951 70.2485 51.1356 70.203C51.37 69.9298 51.6078 69.6718 51.8523 69.4273C51.8978 69.3801 51.945 69.3345 51.9905 69.289C52.0563 69.2266 52.1221 69.1642 52.1879 69.1018C52.2317 69.0614 52.2756 69.0209 52.3211 68.9804C52.5993 68.7309 52.8809 68.4999 53.1693 68.2874C53.2485 68.2301 53.3278 68.1727 53.407 68.1188C53.4526 68.0884 53.4964 68.058 53.5403 68.0294C54.063 67.682 54.6009 67.4021 55.1473 67.193C55.2029 67.1711 55.2586 67.1508 55.3159 67.1306C55.4103 67.0986 55.5031 67.0682 55.5975 67.0395C55.6414 67.026 55.6835 67.0125 55.7274 67.0007C56.2366 66.8574 56.7543 66.7748 57.2771 66.7596C57.3361 66.7579 57.3951 66.7562 57.4541 66.7562C57.5586 66.7562 57.6615 66.7596 57.766 66.7647C57.8571 66.7697 57.9465 66.7765 58.0359 66.7849C58.1252 66.7933 58.2146 66.8051 58.304 66.8169C58.3011 66.8171 58.2982 66.8174 58.2953 66.8176C58.7328 66.8774 59.1622 66.9819 59.5805 67.134C59.798 67.2099 60.0122 67.2992 60.223 67.4021C60.2263 67.4021 60.228 67.4038 60.2314 67.4055C65.125 69.7579 68.4824 78.2449 68.1687 88.2867Z" fill="white"/>
</g>
<g opacity="0.25">
<path d="M68.1685 88.2867C68.1668 88.3761 68.1634 88.4654 68.16 88.5565C68.1533 88.7318 68.1449 88.9072 68.1364 89.0826C68.128 89.2664 68.1162 89.4519 68.1044 89.634C68.0909 89.8718 68.074 90.1062 68.0538 90.3406C68.0454 90.4536 68.0353 90.5666 68.0252 90.6795C68.0235 90.7082 68.0218 90.7368 68.0184 90.7638C68.0049 90.9088 67.9915 91.0539 67.9763 91.1989C67.8531 92.413 67.6795 93.5968 67.4586 94.7384C67.4366 94.8531 67.413 94.9677 67.3894 95.0824C67.3574 95.2443 67.3237 95.4044 67.2882 95.563C67.2309 95.8344 67.1702 96.1026 67.1044 96.369C67.0707 96.514 67.0353 96.6573 66.9982 96.8007C66.9274 97.0806 66.8532 97.3588 66.7756 97.6337C66.7486 97.7315 66.7216 97.8293 66.693 97.9254C66.666 98.0165 66.6407 98.1075 66.612 98.1969C66.4265 98.8225 66.2242 99.4296 66.0083 100.018C65.9628 100.143 65.9156 100.269 65.8684 100.392C65.8212 100.519 65.7723 100.642 65.7233 100.767C65.6744 100.89 65.6255 101.013 65.575 101.134C65.5244 101.256 65.4738 101.377 65.4215 101.497C65.3709 101.617 65.3187 101.735 65.2664 101.853C65.2124 101.973 65.1585 102.091 65.1045 102.209C65.0505 102.322 64.9966 102.435 64.9426 102.548C64.9449 102.542 64.947 102.536 64.9492 102.531C63.3325 105.885 61.2253 108.369 58.8855 109.532C58.3273 109.809 57.7557 110.011 57.1739 110.131C56.6529 110.239 56.1251 110.282 55.5905 110.255C49.2619 109.938 44.6179 99.9456 45.2182 87.9376C45.4406 83.4719 46.3595 79.3607 47.7489 75.9692C47.7457 75.9758 47.7424 75.9821 47.7392 75.9887C47.7746 75.901 47.8117 75.815 47.8471 75.7273C47.8808 75.648 47.9146 75.5688 47.9483 75.4895C47.955 75.4727 47.9618 75.4558 47.9702 75.439C48.0393 75.2788 48.1102 75.1203 48.1827 74.9634C48.2198 74.8808 48.2569 74.7998 48.2957 74.7189C48.3345 74.6346 48.3749 74.5519 48.4154 74.4676C48.4542 74.3867 48.493 74.3057 48.5334 74.2265C48.5334 74.2248 48.5334 74.2248 48.5334 74.2231C48.6076 74.0764 48.6818 73.9314 48.756 73.7881C49.1422 73.0478 49.5536 72.3564 49.987 71.7156C50.0224 71.6616 50.0595 71.6094 50.0966 71.5554C50.3934 71.1271 50.7003 70.7224 51.0173 70.343C51.0561 70.2958 51.0949 70.2485 51.1354 70.203C51.3698 69.9298 51.6075 69.6718 51.852 69.4273C51.8976 69.3801 51.9448 69.3346 51.9903 69.289C52.0561 69.2266 52.1218 69.1643 52.1876 69.1019C52.2315 69.0614 52.2753 69.0209 52.3208 68.9805C52.5991 68.7309 52.8807 68.4999 53.169 68.2874C53.2483 68.2301 53.3275 68.1728 53.4068 68.1188C53.4523 68.0884 53.4962 68.0581 53.54 68.0294C54.0628 67.682 54.6007 67.4021 55.1471 67.193C55.2027 67.1711 55.2584 67.1509 55.3157 67.1306C55.4101 67.0986 55.5029 67.0682 55.5973 67.0395C55.6411 67.026 55.6833 67.0126 55.7271 67.0008C56.2364 66.8574 56.7541 66.7748 57.2768 66.7596C57.3358 66.758 57.3949 66.7563 57.4539 66.7563C57.5584 66.7563 57.6613 66.7596 57.7658 66.7647C57.8569 66.7698 57.9462 66.7765 58.0356 66.7849C58.125 66.7934 58.2143 66.8052 58.3037 66.817C56.6613 66.8895 55.0813 67.6972 53.658 69.0783C50.2855 72.348 47.7898 78.8368 47.4121 86.4115C46.8556 97.5191 51.0629 106.756 56.8097 107.045C61.0388 107.256 64.9241 102.556 66.8987 95.6287C67.5412 93.3843 67.9813 90.9072 68.1685 88.2867Z" fill="#00046A"/>
</g>
<path d="M55.8951 110.923C56.3644 110.923 56.8382 110.874 57.3077 110.777C57.9334 110.648 58.5632 110.428 59.1783 110.123C61.6128 108.913 63.8032 106.407 65.5165 102.873C65.5242 102.859 65.5313 102.846 65.538 102.831L65.8771 102.103C65.9283 101.987 65.9795 101.871 66.0291 101.754C66.0798 101.638 66.132 101.513 66.1839 101.388C66.2359 101.263 66.2861 101.137 66.3364 101.01L66.3625 100.944C66.4044 100.837 66.4459 100.731 66.4864 100.623C66.5328 100.502 66.5814 100.372 66.628 100.244C66.8532 99.63 67.0607 99.0039 67.2444 98.3845C67.2618 98.3305 67.2819 98.2618 67.302 98.1928L67.3254 98.1131C67.3551 98.0137 67.3832 97.9115 67.4115 97.8093C67.4874 97.5402 67.5639 97.2541 67.6376 96.9626C67.6752 96.8176 67.7121 96.6686 67.747 96.5179C67.8087 96.2681 67.8706 95.9972 67.9335 95.6997C67.9686 95.5433 68.0032 95.3779 68.0363 95.2108L68.0419 95.1841C68.064 95.0768 68.0859 94.9695 68.1065 94.8622C68.3313 93.7 68.5084 92.4894 68.6326 91.2656C68.6474 91.1224 68.6611 90.9774 68.6746 90.8324C68.6782 90.7988 68.6809 90.7639 68.6828 90.7287C68.693 90.616 68.7031 90.5032 68.7117 90.3905C68.7318 90.1563 68.7491 89.9157 68.763 89.6715C68.7746 89.4903 68.7868 89.3007 68.7953 89.1128C68.8039 88.9372 68.8124 88.7596 68.8192 88.582L68.8204 88.5502C68.8233 88.467 68.8263 88.3852 68.8279 88.3032C69.1439 78.1589 65.7307 69.3261 60.5263 66.8156C60.5141 66.8095 60.5019 66.8038 60.4894 66.7984C60.2638 66.6894 60.0311 66.5928 59.7974 66.5112C59.3688 66.3553 58.9118 66.2407 58.4456 66.1728C58.4272 66.1688 58.4086 66.1655 58.3898 66.1631C58.288 66.1497 58.1927 66.1372 58.0973 66.1282C57.9997 66.1191 57.902 66.1117 57.8026 66.1062C57.6137 66.0969 57.4378 66.0951 57.2575 66.1003C56.6912 66.1168 56.1161 66.2061 55.5484 66.3659C55.512 66.3757 55.4693 66.3887 55.426 66.4022L55.403 66.4093C55.3045 66.4391 55.2048 66.4717 55.1036 66.506C55.0311 66.5315 54.9679 66.5546 54.9048 66.5795C54.3204 66.8032 53.7361 67.107 53.1749 67.4801C53.1489 67.497 53.1189 67.5173 53.0886 67.5379L53.0402 67.5705C52.9511 67.6312 52.8663 67.6922 52.782 67.7534C52.4803 67.9755 52.1784 68.2222 51.8804 68.4895C51.8357 68.5293 51.7911 68.5703 51.7465 68.6114C51.7442 68.6135 51.7358 68.6213 51.7335 68.6234L51.5365 68.8103C51.5321 68.8145 51.5276 68.8188 51.5233 68.8232L51.4792 68.8668C51.4451 68.9006 51.4106 68.9348 51.377 68.9697C51.1344 69.2122 50.8818 69.4856 50.6346 69.7737C50.5961 69.8169 50.5513 69.8709 50.507 69.9252C50.1847 70.3107 49.8629 70.7345 49.5543 71.1799L49.5263 71.2203C49.4954 71.2649 49.4647 71.309 49.4353 71.3542C48.992 72.0094 48.5648 72.7284 48.1711 73.4832C48.0951 73.6297 48.02 73.7766 47.9448 73.9252C47.9379 73.9389 47.9314 73.9527 47.9255 73.9667C47.8898 74.0382 47.8549 74.1107 47.8203 74.1832L47.7908 74.2443C47.7589 74.3104 47.7272 74.3761 47.6964 74.4428C47.6594 74.52 47.6204 74.6054 47.5812 74.6924C47.5107 74.8449 47.4394 75.0044 47.3695 75.1656C47.3572 75.192 47.3463 75.2182 47.3358 75.2446L47.1848 75.6027C47.1655 75.6489 47.1462 75.6951 47.1273 75.7417C47.1217 75.7556 47.1168 75.7695 47.1121 75.7835C45.659 79.3547 44.7764 83.5445 44.5592 87.9048C44.2636 93.8175 45.2042 99.4479 47.2076 103.759C49.275 108.207 52.2403 110.748 55.5575 110.914C55.6696 110.92 55.7823 110.923 55.8951 110.923ZM64.3729 102.21C64.3665 102.221 64.3605 102.233 64.3548 102.244C62.7887 105.494 60.742 107.872 58.5917 108.941C58.0789 109.196 57.5568 109.378 57.0409 109.485C56.5676 109.583 56.0916 109.621 55.6237 109.597C52.819 109.456 50.2551 107.185 48.4042 103.203C46.4894 99.0826 45.5919 93.6731 45.8769 87.9706C46.088 83.7314 46.9465 79.668 48.3592 76.2194C48.3648 76.2058 48.3699 76.1921 48.3745 76.1784L48.402 76.1116C48.4211 76.0661 48.44 76.0205 48.4587 75.9746L48.555 75.7482C48.5552 75.748 48.5657 75.7222 48.5657 75.7221C48.5711 75.7114 48.571 75.7114 48.5757 75.7006C48.6426 75.5455 48.7113 75.392 48.7814 75.2402C48.8191 75.1564 48.8542 75.0799 48.8907 75.0033C48.9221 74.9357 48.9504 74.8771 48.9788 74.818L49.01 74.7535C49.0469 74.6763 49.0833 74.6002 49.1211 74.5257C49.1282 74.512 49.1347 74.4982 49.1406 74.4841C49.2076 74.352 49.2745 74.2212 49.3416 74.0918C49.7113 73.3828 50.1126 72.7073 50.5332 72.0854C50.5617 72.0422 50.5856 72.0078 50.6098 71.9731L50.6394 71.9302C50.9248 71.5183 51.2225 71.1263 51.5234 70.7661C51.5606 70.7208 51.5936 70.6804 51.6282 70.6417C51.8613 70.3699 52.0909 70.1214 52.3185 69.8939C52.3532 69.858 52.3801 69.8316 52.4066 69.8052L52.6414 69.5807C52.6798 69.5454 52.719 69.5093 52.7595 69.4731C53.0279 69.2325 53.2967 69.0128 53.5601 68.8187C53.6299 68.7682 53.7039 68.7146 53.778 68.6643L53.901 68.5816C54.3855 68.2597 54.8826 68.0006 55.3828 67.8093C55.4371 67.7879 55.4852 67.7704 55.5349 67.7529C55.6151 67.7257 55.7009 67.6976 55.7885 67.671L55.817 67.6622C55.8442 67.6538 55.8707 67.6454 55.8982 67.638C56.3695 67.5054 56.8372 67.4325 57.2958 67.4192C57.4427 67.4149 57.5873 67.4167 57.734 67.4237C57.8114 67.4281 57.8926 67.4342 57.9738 67.4418C58.036 67.4477 58.0983 67.4555 58.1605 67.4636C58.1753 67.4667 58.1903 67.4693 58.2056 67.4713C58.6003 67.5253 58.987 67.6204 59.3546 67.7541C59.5553 67.8241 59.7471 67.9043 59.9331 67.9951C59.9425 67.9996 59.952 68.0039 59.9616 68.0082C62.1881 69.0861 64.1674 71.6391 65.5366 75.1995C66.977 78.9445 67.659 83.463 67.5089 88.2662C67.5088 88.269 67.5088 88.2718 67.5088 88.2746C67.5073 88.3501 67.5045 88.4255 67.5017 88.5021L67.5007 88.5327C67.4941 88.7043 67.4857 88.8774 67.4773 89.0505C67.4689 89.2323 67.4574 89.4137 67.4459 89.5919C67.4325 89.8281 67.4159 90.0562 67.3965 90.2844C67.3876 90.4006 67.3779 90.5105 67.3678 90.6203C67.3671 90.6274 67.3667 90.6346 67.3663 90.6417C67.3655 90.6562 67.365 90.6707 67.3633 90.6843C67.3628 90.6887 67.3619 90.6983 67.3613 90.7028C67.3482 90.8453 67.3348 90.9879 67.32 91.1305C67.1996 92.317 67.0282 93.4881 66.8107 94.6131C66.7911 94.7161 66.7702 94.8173 66.7494 94.9186L66.743 94.9498C66.7111 95.1108 66.6784 95.2658 66.6442 95.4192C66.5828 95.7094 66.5243 95.9658 66.4637 96.2107C66.4291 96.3595 66.3952 96.4973 66.3595 96.635C66.2875 96.919 66.2142 97.1933 66.1406 97.4546C66.1138 97.5517 66.0879 97.6451 66.0606 97.7369L66.0351 97.824C66.0183 97.8817 66.0016 97.9391 65.9835 97.9957C65.8035 98.6024 65.6049 99.2017 65.3887 99.791C65.3439 99.9137 65.298 100.037 65.2522 100.157C65.2125 100.263 65.1736 100.362 65.1344 100.461L65.1089 100.526C65.0625 100.643 65.0149 100.763 64.9658 100.881C64.9166 100.999 64.8673 101.117 64.8166 101.233C64.7669 101.351 64.7186 101.46 64.6704 101.569L64.4779 101.99L64.3729 102.21Z" fill="#00046A"/>
<path d="M58.0994 99.7851C55.3537 99.6882 53.301 94.7052 53.5147 88.6553C53.7284 82.6055 56.1275 77.7797 58.8732 77.8767C61.6189 77.9737 63.6715 82.9567 63.4578 89.0065C63.2441 95.0564 60.8451 99.8821 58.0994 99.7851Z" fill="#B0B9C1"/>
<g opacity="0.25">
<path d="M58.0137 99.7821C55.2207 99.6835 53.1298 94.6991 53.3435 88.6493C53.5572 82.5994 55.9946 77.775 58.7876 77.8737C61.5806 77.9723 63.6715 82.9567 63.4578 89.0065C63.2441 95.0564 60.8067 99.8808 58.0137 99.7821Z" fill="#00046A"/>
</g>
<path d="M62.3652 94.4116C61.68 95.8696 61.0176 97.349 59.8528 98.4721C58.6457 99.6494 57.2206 99.4865 56.1937 98.2386C55.1888 97.0419 54.6544 95.4499 54.3055 93.9222C53.4989 89.9686 53.7179 85.6822 55.2077 81.9136C55.9368 80.0845 57.7932 77.2346 59.9955 78.7954C61.2387 79.7316 61.9329 81.2998 62.5655 82.729C62.6588 82.9513 62.9937 82.8491 62.9555 82.6173C62.6089 80.5536 61.4909 77.9374 59.2228 77.4406C56.7433 77.0272 55.1038 79.5496 54.2555 81.511C52.3954 86.0626 52.2178 92.0448 54.0488 96.6316C54.743 98.2429 55.9514 100.124 57.9073 100.263C59.625 100.344 60.9493 98.9694 61.7233 97.5793C62.251 96.6371 62.6113 95.5938 62.7915 94.5424C62.8353 94.2842 62.4692 94.1788 62.3652 94.4116Z" fill="#00046A"/>
<path d="M60.1738 89.0388C60.1738 93.3928 58.0592 96.9221 55.4523 96.9221C55.1993 96.9221 54.9498 96.8884 54.7069 96.8243C53.7541 94.784 53.2128 91.865 53.3275 88.6425C53.4304 85.7438 54.0442 83.1267 54.9632 81.1976C55.1234 81.169 55.287 81.1555 55.4522 81.1555C58.0593 81.1555 60.1738 84.6848 60.1738 89.0388Z" fill="#B0B9C1"/>
<g opacity="0.25">
<path d="M56.2954 94.2241C56.2929 94.2241 56.2904 94.2241 56.2878 94.2241C55.843 94.2229 55.4519 93.9309 55.2883 93.5173C54.4998 91.5248 54.067 88.8587 54.1707 85.9444C54.2229 84.4742 54.407 83.077 54.6952 81.8047C53.9264 83.6601 53.4201 86.0366 53.3276 88.6425C53.2129 91.865 53.7542 94.784 54.707 96.8243C54.9498 96.8884 55.1994 96.9221 55.4523 96.9221C57.5966 96.9221 59.4066 94.5336 59.9819 91.2633C59.1165 93.0675 57.787 94.2241 56.2954 94.2241Z" fill="#00046A"/>
</g>
<path d="M55.4524 97.3956C58.3655 97.3956 60.6475 93.7249 60.6475 89.0388C60.6475 84.3528 58.3655 80.682 55.4524 80.682C55.256 80.682 55.0633 80.6988 54.8799 80.7317C54.7295 80.7586 54.6016 80.8563 54.536 80.994C53.5531 83.0575 52.9559 85.7678 52.8547 88.6258C52.7422 91.7851 53.2609 94.8464 54.2781 97.0247C54.3376 97.152 54.4505 97.2463 54.5864 97.2821C54.8719 97.3575 55.1632 97.3956 55.4524 97.3956ZM55.4524 81.629C57.7949 81.629 59.7006 84.953 59.7006 89.0389C59.7006 93.1247 57.7949 96.4488 55.4524 96.4488C55.3156 96.4488 55.1778 96.4368 55.0404 96.4131C54.1478 94.3802 53.6972 91.572 53.8009 88.6595C53.8939 86.0357 54.4186 83.5539 55.2826 81.6348C55.3383 81.6308 55.395 81.629 55.4524 81.629Z" fill="#00046A"/>
<g opacity="0.6">
<path d="M56.1927 85.701C55.9029 84.5341 56.091 83.483 56.6128 83.3535C57.1346 83.2239 57.7925 84.0649 58.0822 85.2318C58.372 86.3987 58.1839 87.4497 57.6622 87.5793C57.1404 87.7089 56.4825 86.8679 56.1927 85.701Z" fill="white"/>
</g>
<path d="M89.7744 70.8118L88.3057 112.092C88.2113 112.095 88.1168 112.1 88.0224 112.102C85.2653 112.21 82.623 112.2 80.2048 111.959C77.5456 111.694 74.9942 110.711 72.9269 109.02C69.5712 106.274 67.6067 102.158 66.7989 97.6101C66.0317 93.2882 66.3082 88.5751 67.4313 84.2751C68.2475 81.142 69.5139 78.2281 71.1529 75.8437C73.2557 72.778 75.9757 70.5909 79.1442 69.9417C82.9113 69.2352 86.4862 69.3802 89.7744 70.8118Z" fill="#B0B9C1"/>
<g opacity="0.6">
<path d="M89.0933 75.8437V84.2751H67.4313C68.2475 81.142 69.5139 78.2281 71.1529 75.8437H89.0933Z" fill="white"/>
</g>
<g opacity="0.6">
<path d="M79.1442 69.9417C74.5517 70.8824 70.9041 75.0563 68.7003 80.4474C70.9391 75.8023 74.3182 72.3097 78.4697 71.4593C82.2368 70.7528 85.8117 70.8978 89.0999 72.3295L87.6844 112.113C87.7973 112.109 87.9092 112.106 88.0224 112.102C88.1169 112.1 88.2113 112.095 88.3057 112.092L89.7744 70.8118C86.4862 69.3802 82.9113 69.2352 79.1442 69.9417Z" fill="white"/>
</g>
<g opacity="0.25">
<path d="M88.0225 112.102C85.2654 112.21 82.623 112.2 80.2049 111.959C77.5456 111.694 74.9943 110.711 72.9269 109.02C69.5712 106.274 67.6067 102.158 66.799 97.6101C67.9238 98.2493 69.2475 98.6506 70.5594 98.8647C72.6774 99.2121 75.114 99.0671 76.6098 97.6624C76.8931 97.396 77.2674 97.0587 77.6401 97.2122C77.8036 97.2797 77.9065 97.4264 77.9976 97.568C79.2184 99.4381 80.2285 101.418 81.4983 103.261C82.876 105.263 84.5454 107.087 85.9872 109.053C86.7122 110.043 87.3766 111.067 88.0225 112.102Z" fill="#00046A"/>
</g>
<path d="M84.875 112.843C85.9428 112.843 87.0884 112.817 88.3332 112.766C88.6853 112.751 88.9669 112.468 88.9794 112.116L90.4488 70.8361C90.4587 70.5592 90.2981 70.3044 90.0442 70.1937C86.8226 68.7907 83.2169 68.4911 79.02 69.2788C73.4358 70.4224 68.7073 76.2659 66.6685 84.5309C65.5365 89.1199 65.3843 94.0061 66.2402 98.2892C67.1981 103.084 69.3624 106.975 72.4995 109.541C74.6197 111.276 77.2609 112.344 80.1375 112.631C81.5653 112.773 83.114 112.843 84.875 112.843ZM87.6536 111.442C84.7141 111.545 82.3548 111.496 80.2712 111.288C77.6596 111.028 75.2677 110.063 73.3538 108.497C66.9117 103.227 66.0121 92.8248 67.9783 84.854C69.8912 77.0993 74.2215 71.6385 79.2796 70.6025C83.0069 69.9034 86.223 70.1156 89.0841 71.2549L87.6536 111.442Z" fill="#00046A"/>
<path d="M101.239 91.8835C101.162 94.0943 100.873 96.2156 100.408 98.197C98.4772 106.448 93.4892 112.291 87.8537 112.09C80.8657 111.844 75.527 102.396 75.93 90.9881C75.9435 90.6138 75.962 90.2411 75.9873 89.8718C76.7276 78.997 82.5537 70.542 89.3139 70.7815C96.3036 71.0277 101.642 80.4759 101.239 91.8835Z" fill="#FC3C53"/>
<g opacity="0.25">
<path d="M100.408 97.5416C98.5729 105.383 93.8317 110.936 88.4749 110.745C81.8326 110.511 76.758 101.532 77.141 90.6908C77.1539 90.335 77.1715 89.9809 77.1955 89.6299C77.4231 88.0867 77.6523 86.545 77.8799 85.0018C78.0002 89.2838 78.1588 93.7212 80.0711 97.5528C80.467 98.3477 80.9575 99.1297 81.6932 99.6265C82.4289 100.123 83.4595 100.271 84.1984 99.7787C84.8027 99.3749 85.1024 98.6297 85.1601 97.9054C85.2178 97.1811 85.0704 96.4583 84.9614 95.7388C84.6007 93.3622 84.6712 90.9184 85.1665 88.5659L84.9277 90.952C88.1014 90.2085 91.5908 89.4985 94.4952 90.9793C95.3495 91.4152 96.1061 92.0225 96.8242 92.6603C98.3518 94.0161 99.7799 95.6026 100.408 97.5416Z" fill="#00046A"/>
</g>
<path d="M88.137 112.77C91.6491 112.77 94.991 110.636 97.5784 106.73C100.174 102.811 101.713 97.5464 101.913 91.9066C102.112 86.2669 100.948 80.9072 98.6354 76.8147C96.2631 72.617 92.961 70.2347 89.3375 70.1067C85.7188 69.9806 82.2519 72.1218 79.5894 76.1418C76.9936 80.0607 75.4544 85.325 75.2551 90.9647C75.0559 96.6044 76.2198 101.964 78.5325 106.057C80.9046 110.254 84.2067 112.637 87.8302 112.765C87.9325 112.768 88.0351 112.77 88.137 112.77ZM100.565 91.859C100.175 102.876 94.4831 111.65 87.878 111.417C81.2719 111.183 76.214 102.03 76.6032 91.0123C76.7939 85.6178 78.2537 80.6012 80.7141 76.8867C83.1073 73.2732 86.1571 71.3436 89.2898 71.4549C95.8956 71.6882 100.953 80.8424 100.565 91.859Z" fill="#00046A"/>
<path d="M102.424 96.9059C103.422 96.9059 104.37 96.207 105.11 94.9188C105.801 93.7159 106.257 92.0955 106.393 90.3561C106.699 86.464 105.382 83.4072 103.329 83.2456C102.445 83.1756 101.561 83.6762 100.847 84.6542C99.9553 85.8706 99.3516 87.7433 99.1915 89.7909C99.0375 91.7382 99.3099 93.6184 99.9388 94.9484C100.496 96.1321 101.319 96.8253 102.256 96.8993C102.312 96.9037 102.368 96.9059 102.424 96.9059ZM103.165 84.6244C103.183 84.6244 103.202 84.6251 103.22 84.6266C104.269 84.709 105.258 87.1304 105.012 90.2475C104.892 91.7864 104.5 93.2003 103.909 94.2288C103.423 95.074 102.85 95.557 102.364 95.5184C101.951 95.4857 101.523 95.0626 101.191 94.3575C100.662 93.2383 100.437 91.6138 100.572 89.8994C100.711 88.1274 101.232 86.4726 101.965 85.472C102.2 85.1498 102.661 84.6244 103.165 84.6244Z" fill="#00046A"/>
<path d="M108.354 90.6104C107.529 98.6101 103.646 104.763 99.6764 104.355C99.6409 104.352 99.6039 104.347 99.5684 104.342C95.663 103.822 93.1656 97.0588 93.9818 89.1316C94.7777 81.4034 98.4302 75.3985 102.255 75.3698C102.39 75.3682 102.523 75.3749 102.658 75.3884C106.627 75.7965 109.177 82.6124 108.354 90.6104Z" fill="#FC3C53"/>
<g opacity="0.6">
<path d="M106.254 78.0063C105.793 77.0493 104.986 76.2601 104.024 75.8071C103.591 75.5817 103.135 75.4375 102.658 75.3884C102.523 75.3749 102.39 75.3682 102.255 75.3699C102.083 75.3712 101.911 75.3888 101.74 75.4138C101.244 75.4681 100.761 75.6131 100.329 75.8607C100.231 75.9169 100.138 75.98 100.046 76.0464C97.1087 77.8215 94.6218 82.918 93.9819 89.1316C93.5922 92.9164 93.9593 96.4339 94.8729 99.1353C94.3376 96.7242 94.1677 93.8575 94.4702 90.8179C94.9465 86.0324 96.4817 81.9099 98.4591 79.4561C98.8625 78.9554 99.5932 78.8263 100.109 79.2107C100.112 79.2133 100.116 79.2159 100.119 79.2185C100.525 79.5266 100.781 79.9948 100.95 80.4752C101.464 81.9331 101.272 83.5479 100.875 85.042C101.22 84.5197 101.804 84.1862 102.414 84.0464C103.024 83.9066 103.662 83.9443 104.281 84.0435C103.852 82.8302 103.963 81.4744 104.374 80.255C104.537 79.7735 104.759 79.2882 105.156 78.9709C105.157 78.9698 105.158 78.9687 105.16 78.9676C105.394 78.7819 105.741 78.8402 105.919 79.0806C107.423 81.115 108.377 84.5125 108.494 88.4888C108.624 84.1844 107.765 80.3928 106.254 78.0063Z" fill="white"/>
</g>
<g opacity="0.25">
<path d="M107.78 81.6607C108.017 83.5649 108.051 85.6754 107.84 87.878C107.092 95.6827 103.568 101.686 99.9658 101.288C99.9337 101.284 99.9 101.28 99.8679 101.275C96.3241 100.768 94.058 94.1691 94.7985 86.4352C94.9166 85.2031 95.105 84.0171 95.3508 82.8929C94.6949 84.754 94.2153 86.8678 93.9821 89.1315C93.1659 97.0587 95.6633 103.822 99.5687 104.342C99.6042 104.347 99.6412 104.352 99.6767 104.355C103.646 104.763 107.53 98.6101 108.354 90.6104C108.695 87.3007 108.456 84.1952 107.78 81.6607Z" fill="#00046A"/>
</g>
<path d="M105.703 90.3018C105.437 93.6912 103.917 96.3353 102.31 96.2089C101.605 96.1532 100.998 95.5731 100.565 94.6524C100.008 93.4754 99.7319 91.7453 99.882 89.8449C100.037 87.8601 100.624 86.13 101.406 85.0626C101.958 84.3071 102.609 83.8839 103.275 83.9361C104.882 84.0626 105.969 86.9124 105.703 90.3018Z" fill="#FFEB52"/>
<g opacity="0.25">
<path d="M105.131 85.7453C105.239 86.5694 105.268 87.4864 105.202 88.4469C104.968 91.8363 103.634 94.4804 102.222 94.3539C101.603 94.2983 101.07 93.7182 100.689 92.7975C100.242 91.7205 100.002 90.1799 100.065 88.47C99.9816 88.9102 99.9192 89.3699 99.8821 89.8449C99.732 91.7453 100.009 93.4755 100.565 94.6525C100.998 95.5732 101.605 96.1533 102.31 96.2089C103.917 96.3353 105.437 93.6913 105.703 90.3019C105.842 88.5318 105.611 86.91 105.131 85.7453Z" fill="#00046A"/>
</g>
<path d="M100.06 105.068C104.298 105.068 108.196 98.9011 109.043 90.6814V90.6813C109.452 86.7087 109.064 82.8835 107.952 79.9105C106.779 76.7758 104.924 74.9251 102.729 74.6995C102.56 74.6825 102.401 74.6753 102.246 74.6773C97.9848 74.7092 94.1342 80.8927 93.293 89.0606C92.4306 97.4386 95.1469 104.452 99.4774 105.028C99.5176 105.034 99.566 105.041 99.6123 105.045C99.7616 105.06 99.9112 105.068 100.06 105.068ZM107.665 90.5395C106.894 98.0171 103.266 104.028 99.7473 103.666C99.7162 103.663 99.6905 103.66 99.666 103.656C96.1966 103.195 93.9119 96.5761 94.671 89.2025C95.4145 81.9828 98.8189 76.0882 102.26 76.0624C102.368 76.0618 102.474 76.066 102.589 76.0776C104.231 76.2464 105.676 77.7801 106.654 80.3959C107.693 83.1726 108.052 86.7754 107.665 90.5395ZM102.425 96.9059C103.422 96.9059 104.37 96.207 105.11 94.9188C105.801 93.7159 106.257 92.0955 106.394 90.3561C106.7 86.464 105.382 83.4072 103.329 83.2456H103.329C102.444 83.176 101.561 83.6762 100.847 84.6542C99.9556 85.8706 99.3519 87.7432 99.1918 89.7909C99.0379 91.7382 99.3102 93.6184 99.9392 94.9484C100.496 96.1321 101.319 96.8253 102.256 96.8993C102.312 96.9037 102.369 96.9059 102.425 96.9059ZM103.221 84.6266C104.269 84.7093 105.258 87.1306 105.013 90.2475C104.892 91.7864 104.5 93.2003 103.909 94.2288C103.424 95.074 102.851 95.557 102.365 95.5184C101.951 95.4857 101.524 95.0626 101.192 94.3575C100.663 93.2383 100.437 91.6138 100.573 89.8994C100.711 88.1274 101.232 86.4726 101.965 85.472C102.209 85.1379 102.693 84.5861 103.221 84.6266Z" fill="#00046A"/>
<path d="M99.5682 104.342H92.8147C91.1065 104.342 89.4623 103.655 88.287 102.416C84.8807 98.8226 84.0477 92.8818 84.7745 87.4503C85.0224 85.5802 85.4574 83.7692 86.0358 82.1369C86.6277 80.4607 87.3713 78.97 88.2212 77.7913C89.4201 76.127 91.3678 75.1675 93.42 75.2063L102.254 75.3698C99.5564 75.3901 96.9426 78.3849 95.3575 82.862C94.7909 84.4657 94.3559 86.2598 94.0962 88.1755C94.0523 88.4908 94.0152 88.8095 93.9815 89.1316C93.1654 97.0587 95.6628 103.822 99.5682 104.342Z" fill="#FFEB52"/>
<g opacity="0.6">
<path d="M95.3579 82.862C94.7913 84.4656 94.3563 86.2598 94.0966 88.1754L84.7748 87.4503C85.0227 85.5803 85.4578 83.7692 86.0361 82.1369L95.3579 82.862Z" fill="white"/>
</g>
<g opacity="0.25">
<path d="M98.3065 75.8276C99.3833 74.7876 100.558 74.1983 101.749 74.1894L99.6889 74.1513C99.1998 74.669 98.7386 75.2307 98.3065 75.8276Z" fill="#00046A"/>
<path d="M94.8157 99.1143H93.1601C90.4784 99.1143 87.8972 98.428 86.052 97.1886C85.6814 96.9395 85.3321 96.6781 84.9998 96.4074C85.6069 98.2429 86.5169 99.9011 87.7818 101.236C88.9571 102.475 90.6012 103.161 92.3094 103.161H99.063C97.3023 102.927 95.8295 101.421 94.8157 99.1143Z" fill="#00046A"/>
</g>
<path d="M92.8149 105.034H99.5684C99.9332 105.034 100.235 104.752 100.26 104.388C100.284 104.024 100.021 103.703 99.6597 103.655C96.1964 103.195 93.9117 96.5761 94.6708 89.2024C95.4143 81.9828 98.8187 76.0882 102.26 76.0624C102.639 76.0596 102.945 75.7526 102.947 75.3736C102.949 74.9947 102.646 74.6844 102.267 74.6774L93.4331 74.5138C91.1392 74.4734 88.9864 75.5445 87.6594 77.3865C83.4757 83.1895 81.6848 96.4565 87.7844 102.892C89.0755 104.254 90.909 105.034 92.8149 105.034ZM96.7461 103.649H92.8149C91.2874 103.649 89.8203 103.026 88.7897 101.939C86.2924 99.3045 85.0343 95.0531 85.2471 89.9682C85.4351 85.4715 86.7901 80.9608 88.7833 78.1963C89.8446 76.7228 91.5767 75.8661 93.4072 75.8987L98.8941 76.0003C96.1023 78.2424 93.9037 83.1281 93.2928 89.0605C92.6306 95.4929 94.0783 101.121 96.7461 103.649Z" fill="#00046A"/>
<path d="M93.808 78.5502C93.7928 78.6176 93.7777 78.6867 93.7625 78.7542L89.6513 77.8234C92.1555 66.7462 92.7322 57.0956 91.3612 49.1381C90.191 42.3357 87.5739 36.9767 83.7915 33.6412C79.2639 29.6464 73.3063 28.7021 67.0164 30.9803C61.1634 33.1016 55.6712 37.7372 51.1368 44.3879C46.0021 51.9205 42.3833 61.7717 40.6717 72.8759L36.5066 72.2351C38.3126 60.5121 42.1675 50.0622 47.6546 42.0136C52.6898 34.626 58.8903 29.4407 65.5814 27.0159C70.2878 25.311 74.9807 25.1222 79.2099 26.3751C79.2116 26.3751 79.215 26.3751 79.2166 26.3768C81.8945 27.171 84.3884 28.5453 86.5806 30.4795C91.0897 34.4574 94.1807 40.6629 95.5162 48.4232C96.9715 56.8781 96.3964 67.0143 93.808 78.5502Z" fill="white"/>
<g opacity="0.25">
<path d="M65.499 30.4744C59.6459 32.5957 54.1537 37.2313 49.6193 43.882C44.4846 51.4146 40.8659 61.2658 39.1543 72.3699L36.5494 71.9692C36.5354 72.0579 36.5205 72.1461 36.5068 72.235L40.6719 72.8758C42.3835 61.7717 46.0022 51.9204 51.137 44.3878C55.6713 37.7371 61.1636 33.1016 67.0166 30.9802C70.774 29.6193 74.4125 29.4093 77.6987 30.3116C74.0321 28.8655 69.845 28.9002 65.499 30.4744Z" fill="#00046A"/>
<path d="M95.5162 48.4231C94.1807 40.6629 91.0897 34.4574 86.5806 30.4794C84.3884 28.5453 81.8945 27.1709 79.2167 26.3767C79.215 26.375 79.2116 26.375 79.2099 26.375C79.1671 26.3624 79.1236 26.3521 79.0807 26.3398C81.2362 27.1621 83.2527 28.3763 85.063 29.9736C89.5721 33.9515 92.663 40.157 93.9986 47.9172C95.4538 56.3722 94.8788 66.5085 92.2904 78.0443C92.2752 78.1118 92.26 78.1809 92.2448 78.2483L89.6856 77.6688C89.674 77.7205 89.6631 77.7717 89.6513 77.8234L93.7625 78.7542C93.7777 78.6867 93.7929 78.6176 93.808 78.5502C96.3964 67.0143 96.9715 56.8781 95.5162 48.4231Z" fill="#00046A"/>
</g>
<path d="M93.7626 79.4287C93.8891 79.4287 94.0143 79.393 94.123 79.3244C94.2743 79.2287 94.3815 79.0768 94.4207 78.9021L94.4661 78.698C94.4661 78.6979 94.4663 78.6979 94.4663 78.6978C97.0743 67.0747 97.6511 56.8502 96.1811 48.3086C94.8192 40.3956 91.6538 34.0554 87.0269 29.9737C84.7793 27.9905 82.2161 26.5628 79.4085 25.73L79.4083 25.7302C79.4034 25.7287 79.3984 25.7273 79.3935 25.7259C74.9884 24.4229 70.133 24.6496 65.3518 26.3817C58.5239 28.856 52.2117 34.1301 47.0972 41.6337C41.5539 49.7647 37.6613 60.311 35.8401 72.1323C35.8128 72.3091 35.8569 72.4895 35.9628 72.6338C36.0685 72.7781 36.2273 72.8744 36.4041 72.9017L40.5691 73.5425C40.9383 73.5987 41.2817 73.3467 41.3383 72.9786C43.0348 61.9728 46.6158 52.2177 51.6941 44.7678C56.1472 38.2363 61.5251 33.688 67.2464 31.6144C73.2943 29.4238 79.0118 30.3232 83.3452 34.147C87.0104 37.3791 89.5524 42.6024 90.6965 49.2525C92.0518 57.1186 91.4787 66.6812 88.9934 77.6747C88.9113 78.0379 89.1392 78.399 89.5023 78.4812L93.6137 79.4121C93.663 79.4232 93.7129 79.4287 93.7626 79.4287ZM79.0362 27.0268C81.6499 27.8038 84.0381 29.1356 86.1344 30.9853C90.5281 34.8613 93.5425 40.9308 94.8515 48.5375C96.2725 56.793 95.7338 66.6859 93.2513 77.9469L90.4561 77.314C92.8558 66.4222 93.3842 56.9066 92.0262 49.0236C90.8293 42.0671 88.136 36.573 84.2377 33.1354C79.5173 28.9707 73.3199 27.9799 66.7868 30.3461C60.7976 32.5168 55.1932 37.241 50.5796 44.0079C45.4916 51.4719 41.8779 61.1753 40.1104 72.107L37.2786 71.6714C39.111 60.3185 42.8853 50.2068 48.2119 42.3936C53.1659 35.1254 59.2516 30.0272 65.8115 27.6501C70.3224 26.0158 74.8892 25.7986 79.0185 27.0218C79.0244 27.0235 79.0303 27.0252 79.0362 27.0268Z" fill="#00046A"/>
<path d="M105.187 76.6615C103.089 74.1574 96.1757 75.1692 93.8149 78.7104L93.8081 78.5502C94.7895 74.1726 95.4826 69.9974 95.8839 66.0397C96.5399 59.5644 96.4201 53.6708 95.5163 48.4231C95.4016 47.7554 95.2735 47.1011 95.1318 46.4569C94.3275 42.7656 93.1032 39.4673 91.4962 36.6411C90.1287 34.2264 88.4795 32.1556 86.5807 30.4794C84.3886 28.5453 81.8946 27.1709 79.2168 26.3767C88.0276 27.7696 95.5012 32.0898 100.557 38.7304C102.066 40.7101 103.359 42.8989 104.406 45.2765C105.401 47.5244 106.175 49.9425 106.706 52.5157C108.148 59.5037 107.804 67.6433 105.187 76.6615Z" fill="#FC3C53"/>
<g opacity="0.6">
<path d="M104.406 45.2765C102.386 45.2546 100.356 45.2546 98.361 45.5767C97.2598 45.7554 96.1654 46.0387 95.1317 46.4569C94.3274 42.7656 93.1032 39.4673 91.4961 36.6411C94.5534 36.9176 97.5886 37.7675 100.557 38.7304C102.066 40.7101 103.359 42.8989 104.406 45.2765Z" fill="white"/>
</g>
<path d="M93.8147 79.385C94.0363 79.385 94.2486 79.2754 94.3759 79.0845C95.6997 77.0987 98.5519 76.0861 100.791 75.9636C102.546 75.8672 103.996 76.2903 104.67 77.0947C104.83 77.2856 105.081 77.3736 105.326 77.3215C105.57 77.2702 105.765 77.0888 105.835 76.8495C107.907 69.7105 108.637 62.8887 108.004 56.5736C107.405 50.5964 105.609 45.2145 102.664 40.5775C97.5769 32.5657 89.2869 27.2858 79.3219 25.7105C78.971 25.6554 78.637 25.8814 78.5586 26.2279C78.4802 26.5745 78.6841 26.9224 79.0246 27.0235C81.6428 27.8 84.0347 29.133 86.1342 30.9853C90.5279 34.8614 93.5423 40.9308 94.8513 48.5375C96.2914 56.9043 95.7189 66.9523 93.1497 78.4025C93.1368 78.4603 93.1314 78.5195 93.134 78.5786L93.1408 78.7388C93.153 79.0305 93.3516 79.2813 93.6329 79.36C93.6931 79.3768 93.7542 79.385 93.8147 79.385ZM101.279 74.601C101.095 74.601 100.908 74.6062 100.717 74.6166C98.5306 74.7363 96.447 75.4796 94.9129 76.6241C97.136 65.8553 97.563 56.3388 96.1809 48.3086C94.819 40.3956 91.6536 34.0554 87.0267 29.9737C86.4574 29.4715 85.8682 29.005 85.2598 28.5747C92.0847 30.945 97.7359 35.3328 101.525 41.3005C107.232 50.287 108.392 62.3875 104.822 75.4706C103.92 74.9055 102.694 74.601 101.279 74.601Z" fill="#00046A"/>
<g opacity="0.25">
<path d="M104.007 76.6615C102.127 74.1574 95.9304 75.1692 93.8145 78.7103L93.8084 78.5502C94.6881 74.1726 95.3092 69.9974 95.669 66.0397C95.7763 66.0801 95.8851 66.1172 95.9939 66.1543C97.865 66.7816 100.038 66.9587 101.642 65.7142C102.289 65.2151 102.794 64.5186 103.215 63.7784C105.112 60.4564 105.41 56.3132 105.295 52.3774C105.319 52.423 105.345 52.4702 105.369 52.5157C106.661 59.5036 106.353 67.6433 104.007 76.6615Z" fill="#00046A"/>
</g>
<g opacity="0.6">
<path d="M86.8234 36.4219C86.8521 36.518 86.8808 36.6141 86.9111 36.7102C86.8656 36.7153 86.8201 36.722 86.7745 36.7287L86.8234 36.4219Z" fill="white"/>
</g>
</svg>
