<svg width="138" height="138" viewBox="0 0 138 138" fill="none" xmlns="http://www.w3.org/2000/svg">
<path d="M85.5532 109.052C103.933 101.258 114.039 88.2407 115.585 70.3657C116.539 59.3327 113.769 49.7337 112.725 46.5947L111.19 47.1627C113.191 62.0127 111.679 87.8597 81.5572 101.319C70.6242 106.204 60.2272 108.125 50.6542 107.029C50.6542 107.029 50.6522 107.029 50.6502 107.029C31.7572 104.869 20.0442 91.3737 14.4892 82.9627L13.1592 83.4557C15.8162 88.7877 28.5972 111.558 54.2032 114.488C63.8862 115.595 74.4332 113.768 85.5532 109.052Z" fill="#2BE273"/>
<path d="M110.82 68.3517C110.903 67.3767 110.949 66.4217 110.98 65.4747C108.751 78.3547 101.3 92.4967 81.557 101.32C70.624 106.205 60.227 108.126 50.654 107.03C50.654 107.03 50.652 107.03 50.65 107.03C45.234 106.41 40.412 104.857 36.15 102.762C28.166 99.9207 21.865 95.0847 17.125 90.1897C21.302 96.3897 28.495 104.835 39.094 110.045C42.28 111.194 45.719 112.048 49.438 112.473C59.124 113.581 69.67 111.753 80.789 107.039C99.167 99.2427 109.274 86.2277 110.82 68.3517Z" fill="#1A9371"/>
<path d="M50.9172 104.711C50.9172 104.711 50.9173 104.711 50.9193 104.711C60.0703 105.759 70.0593 103.9 80.6053 99.1887C108.99 86.5057 110.75 62.2607 108.947 47.9957L16.7393 82.1337C22.1773 90.2107 33.2892 102.693 50.9172 104.711ZM95.1852 56.4757C95.7882 56.2437 96.4632 56.5477 96.6953 57.1497L98.5703 62.0587C98.8013 62.6607 98.5022 63.3337 97.8962 63.5667C97.2932 63.7967 96.6193 63.4947 96.3903 62.8917L94.5122 57.9837C94.2812 57.3827 94.5832 56.7077 95.1852 56.4757ZM87.1212 69.2977C87.7242 69.0677 88.3982 69.3677 88.6302 69.9707L90.5082 74.8797C90.7382 75.4827 90.4372 76.1557 89.8333 76.3877C89.2293 76.6177 88.5553 76.3167 88.3253 75.7137L86.4473 70.8047C86.2183 70.2027 86.5192 69.5277 87.1212 69.2977ZM82.8062 85.8957C83.4082 85.6667 84.0842 85.9667 84.3142 86.5707L86.1923 91.4777C86.4233 92.0817 86.1212 92.7557 85.5182 92.9877C84.9163 93.2167 84.2413 92.9177 84.0113 92.3137L82.1313 87.4047C81.9023 86.8007 82.2022 86.1267 82.8062 85.8957ZM74.0113 65.3127C74.6133 65.0827 75.2863 65.3837 75.5193 65.9857L77.3962 70.8947C77.6262 71.4987 77.3253 72.1717 76.7223 72.4037C76.1203 72.6327 75.4463 72.3317 75.2143 71.7287L73.3362 66.8207C73.1052 66.2177 73.4083 65.5437 74.0113 65.3127ZM68.9302 79.6887C69.5312 79.4577 70.2053 79.7597 70.4373 80.3617L72.3152 85.2707C72.5442 85.8737 72.2463 86.5477 71.6403 86.7787C71.0363 87.0077 70.3642 86.7087 70.1342 86.1047L68.2552 81.1957C68.0252 80.5927 68.3272 79.9197 68.9302 79.6887ZM62.3683 93.1407C62.9723 92.9107 63.6473 93.2117 63.8783 93.8147L65.7573 98.7227C65.9853 99.3277 65.6852 99.9977 65.0812 100.231C64.4792 100.463 63.8033 100.16 63.5753 99.5587L61.6963 94.6487C61.4673 94.0477 61.7673 93.3717 62.3683 93.1407ZM53.8783 73.4677C54.4803 73.2367 55.1552 73.5377 55.3872 74.1407L57.2643 79.0487C57.4953 79.6517 57.1932 80.3257 56.5912 80.5567C55.9882 80.7887 55.3143 80.4867 55.0843 79.8837L53.2043 74.9747C52.9753 74.3727 53.2763 73.6977 53.8783 73.4677ZM46.3532 88.8827C46.9542 88.6507 47.6303 88.9527 47.8603 89.5547L49.7383 94.4637C49.9692 95.0657 49.6673 95.7407 49.0633 95.9727C48.4623 96.2027 47.7873 95.9027 47.5573 95.2997L45.6783 90.3907C45.4483 89.7867 45.7492 89.1117 46.3532 88.8827ZM32.8062 81.2387C33.4102 81.0077 34.0833 81.3087 34.3133 81.9117L36.1932 86.8217C36.4222 87.4227 36.1222 88.0967 35.5182 88.3287C34.9182 88.5597 34.2423 88.2577 34.0103 87.6547L32.1332 82.7457C31.9032 82.1447 32.2042 81.4677 32.8062 81.2387Z" fill="#EE4237"/>
<path d="M95.1848 56.4757C95.3448 56.4137 95.5068 56.3947 95.6678 56.4047C102.517 53.7457 107.528 51.7937 109.26 51.1197C109.177 50.0367 109.072 48.9887 108.946 47.9947L16.7378 82.1327C17.4988 83.2617 18.3828 84.4817 19.3678 85.7417C25.6368 83.5757 70.6628 66.1197 94.7718 56.7537C94.8878 56.6357 95.0228 56.5387 95.1848 56.4757Z" fill="white"/>
<path d="M103.968 56.1527C104.863 58.4867 102.11 61.7137 97.821 63.3587C93.529 65.0037 89.327 64.4467 88.431 62.1137C87.536 59.7797 90.29 56.5537 94.579 54.9077C98.87 53.2627 103.074 53.8197 103.968 56.1527Z" fill="white"/>
<path d="M50.9172 104.711C50.9172 104.711 50.9172 104.711 50.9192 104.711C60.0702 105.759 70.0592 103.9 80.6052 99.1887C108.99 86.5057 110.75 62.2607 108.947 47.9957C108.947 47.9957 109.968 78.7807 71.3732 89.9417C62.9882 92.3657 55.6712 93.3647 49.3492 93.4497L49.7392 94.4647C49.9702 95.0667 49.6682 95.7417 49.0642 95.9737C48.4632 96.2037 47.7882 95.9037 47.5582 95.3007L46.8452 93.4317C25.8492 92.8937 16.7402 82.1337 16.7402 82.1337C22.1772 90.2107 33.2892 102.693 50.9172 104.711ZM82.8062 85.8957C83.4082 85.6667 84.0842 85.9667 84.3142 86.5707L86.1922 91.4777C86.4232 92.0817 86.1212 92.7557 85.5182 92.9877C84.9162 93.2167 84.2412 92.9177 84.0112 92.3137L82.1312 87.4047C81.9022 86.8007 82.2022 86.1267 82.8062 85.8957ZM62.3682 93.1407C62.9722 92.9107 63.6472 93.2117 63.8782 93.8147L65.7572 98.7227C65.9852 99.3277 65.6852 99.9977 65.0812 100.231C64.4792 100.463 63.8032 100.16 63.5752 99.5587L61.6962 94.6487C61.4672 94.0477 61.7672 93.3717 62.3682 93.1407Z" fill="#C41D37"/>
<path d="M86.465 111.204C132.409 91.7187 114.7 45.1297 114.517 44.6617L114.097 43.5957L38.142 71.7167L13.194 80.9537L11.15 81.7097L10 82.1357L10.483 83.2637C10.611 83.5657 23.687 113.35 53.937 116.811C64.026 117.964 74.971 116.078 86.465 111.204ZM80.605 99.1877C70.059 103.899 60.071 105.758 50.919 104.71C50.917 104.71 50.917 104.71 50.917 104.71C33.289 102.692 22.177 90.2097 16.738 82.1317L108.946 47.9937C110.749 62.2597 108.99 86.5047 80.605 99.1877ZM13.159 83.4567L14.489 82.9637C20.044 91.3747 31.758 104.87 50.65 107.03C50.652 107.03 50.654 107.03 50.654 107.03C60.227 108.126 70.625 106.205 81.557 101.32C111.679 87.8607 113.191 62.0137 111.19 47.1637L112.725 46.5957C113.769 49.7347 116.539 59.3327 115.585 70.3667C114.039 88.2417 103.933 101.26 85.553 109.053C74.433 113.769 63.886 115.596 54.202 114.49C28.597 111.558 15.816 88.7887 13.159 83.4567Z" fill="#231F20"/>
<path d="M34.0099 87.6547C34.2419 88.2577 34.9169 88.5597 35.5179 88.3287C36.1219 88.0977 36.4219 87.4237 36.1929 86.8217L34.3129 81.9117C34.0839 81.3087 33.4109 81.0077 32.8059 81.2387C32.2039 81.4677 31.9029 82.1447 32.1329 82.7457L34.0099 87.6547Z" fill="#231F20"/>
<path d="M55.0838 79.8847C55.3128 80.4867 55.9868 80.7887 56.5908 80.5577C57.1928 80.3277 57.4948 79.6527 57.2638 79.0497L55.3868 74.1417C55.1548 73.5397 54.4798 73.2377 53.8778 73.4687C53.2748 73.6977 52.9748 74.3727 53.2038 74.9757L55.0838 79.8847Z" fill="#231F20"/>
<path d="M47.5568 95.2987C47.7858 95.9017 48.4618 96.2017 49.0628 95.9717C49.6658 95.7407 49.9688 95.0647 49.7378 94.4627L47.8598 89.5537C47.6308 88.9517 46.9538 88.6497 46.3528 88.8817C45.7488 89.1107 45.4478 89.7857 45.6778 90.3897L47.5568 95.2987Z" fill="#231F20"/>
<path d="M70.1338 86.1047C70.3628 86.7087 71.0358 87.0078 71.6398 86.7788C72.2448 86.5478 72.5438 85.8737 72.3148 85.2707L70.4368 80.3617C70.2048 79.7597 69.5308 79.4577 68.9298 79.6887C68.3268 79.9187 68.0248 80.5927 68.2548 81.1957L70.1338 86.1047Z" fill="#231F20"/>
<path d="M63.5761 99.5587C63.8041 100.16 64.4801 100.463 65.0821 100.231C65.6861 99.9987 65.9861 99.3277 65.7581 98.7227L63.8791 93.8147C63.6491 93.2127 62.9741 92.9107 62.3691 93.1407C61.7671 93.3707 61.4681 94.0477 61.6971 94.6487L63.5761 99.5587Z" fill="#231F20"/>
<path d="M75.2138 71.7287C75.4448 72.3307 76.1198 72.6327 76.7218 72.4037C77.3248 72.1717 77.6258 71.4987 77.3958 70.8947L75.5188 65.9857C75.2868 65.3847 74.6128 65.0827 74.0108 65.3127C73.4078 65.5427 73.1048 66.2177 73.3358 66.8207L75.2138 71.7287Z" fill="#231F20"/>
<path d="M84.011 92.3136C84.241 92.9176 84.915 93.2157 85.518 92.9877C86.121 92.7557 86.423 92.0827 86.192 91.4777L84.314 86.5707C84.085 85.9667 83.408 85.6666 82.806 85.8956C82.202 86.1256 81.902 86.8007 82.131 87.4047L84.011 92.3136Z" fill="#231F20"/>
<path d="M88.3259 75.7137C88.5549 76.3167 89.2299 76.6177 89.8339 76.3877C90.4369 76.1557 90.7379 75.4827 90.5089 74.8797L88.6309 69.9707C88.3999 69.3687 87.7249 69.0677 87.1219 69.2977C86.5189 69.5277 86.2189 70.2027 86.4479 70.8047L88.3259 75.7137Z" fill="#231F20"/>
<path d="M96.3902 62.8917C96.6182 63.4947 97.2932 63.7967 97.8962 63.5667C98.5012 63.3337 98.8012 62.6607 98.5702 62.0587L96.6952 57.1497C96.4642 56.5477 95.7892 56.2447 95.1852 56.4757C94.5832 56.7067 94.2812 57.3817 94.5122 57.9837L96.3902 62.8917Z" fill="#231F20"/>
<path d="M98.1897 48.919C95.9187 48.919 93.4947 49.182 90.8317 49.711C90.8177 49.713 90.8057 49.718 90.7917 49.72C89.9327 49.892 89.0477 50.095 88.1377 50.324C88.0037 50.357 87.8777 50.395 87.7457 50.428C87.0557 50.608 86.3927 50.802 85.7397 50.998C85.3167 51.125 84.8917 51.256 84.4847 51.391C84.3017 51.452 84.1307 51.516 83.9507 51.579C82.9077 51.94 81.9127 52.32 80.9907 52.728C69.6237 57.687 65.8517 66.394 69.2177 79.704C73.6067 97.052 87.1927 111.162 99.5057 111.162C100.803 111.162 102.087 111.005 103.32 110.691C109.675 109.085 114.793 103.467 117.726 94.874C120.596 86.473 120.913 76.394 118.592 67.219C115.479 54.905 108.806 48.919 98.1897 48.919ZM77.5697 74.525C77.4687 74.548 77.3697 74.561 77.2697 74.561C76.7237 74.561 76.2298 74.193 76.0868 73.639L74.6747 68.053C74.5117 67.4 74.9077 66.737 75.5597 66.571C76.2127 66.41 76.8757 66.801 77.0427 67.456L78.4547 73.041C78.6187 73.696 78.2227 74.358 77.5697 74.525ZM89.5998 89.937C89.4988 89.962 89.3987 89.975 89.2987 89.975C88.7537 89.975 88.2588 89.606 88.1168 89.054L86.7037 83.466C86.5387 82.814 86.9337 82.149 87.5877 81.983C88.2367 81.819 88.9037 82.215 89.0707 82.868L90.4847 88.457C90.6497 89.108 90.2528 89.771 89.5998 89.937ZM92.8567 70.657C92.7547 70.682 92.6548 70.695 92.5568 70.695C92.0108 70.695 91.5147 70.326 91.3727 69.773L89.9607 64.19C89.7977 63.536 90.1927 62.872 90.8467 62.707C91.4977 62.545 92.1627 62.938 92.3297 63.591L93.7407 69.176C93.9057 69.828 93.5097 70.492 92.8567 70.657ZM100.888 102.407C100.787 102.431 100.686 102.446 100.586 102.446C100.042 102.446 99.5427 102.078 99.4037 101.523L97.9897 95.939C97.8247 95.285 98.2207 94.621 98.8747 94.456C99.5247 94.29 100.191 94.686 100.357 95.34L101.771 100.924C101.937 101.577 101.541 102.24 100.888 102.407ZM104.889 86.071C104.786 86.095 104.686 86.108 104.588 86.108C104.043 86.108 103.545 85.74 103.404 85.186L101.993 79.599C101.829 78.946 102.224 78.282 102.878 78.118C103.532 77.954 104.194 78.347 104.36 79.001L105.772 84.588C105.936 85.242 105.54 85.906 104.889 86.071ZM108.144 66.792C108.043 66.818 107.941 66.828 107.843 66.828C107.297 66.828 106.801 66.461 106.661 65.908L105.248 60.324C105.085 59.67 105.479 59.006 106.133 58.84C106.787 58.678 107.45 59.073 107.616 59.726L109.027 65.31C109.192 65.963 108.797 66.627 108.144 66.792Z" fill="#EE4237"/>
<path d="M83.2938 49.223C83.8188 49.044 84.3478 48.87 84.8938 48.704C85.6488 48.473 86.4218 48.251 87.2218 48.043C87.3028 48.021 87.3778 47.994 87.4598 47.974C87.4828 47.969 87.5068 47.963 87.5348 47.957C87.5808 47.946 87.6268 47.931 87.6738 47.92C88.5848 47.688 89.4778 47.494 90.3598 47.317C91.8788 47.01 93.3518 46.772 94.7578 46.626C100.605 39.414 105.479 30.483 103.544 28.394C103.054 27.865 102.603 27.595 102.202 27.595C101.305 27.595 100.124 28.793 98.9828 29.952C97.2938 31.667 95.3648 33.622 92.8288 33.439C89.4858 33.19 89.5908 29.724 89.6608 27.432C89.7068 25.998 89.7568 24.369 89.1868 23.775C89.1098 23.695 88.8808 23.452 88.1368 23.439C87.9228 23.447 87.4388 23.439 86.7808 24.218C85.1338 26.177 84.4558 30.646 84.7308 32.224C84.8388 32.854 84.4458 33.46 83.8268 33.617C83.2168 33.77 82.5738 33.428 82.3708 32.823C81.7878 31.085 77.3758 26.835 74.7678 26.835C74.4728 26.835 74.2278 26.891 74.0198 27.01C73.6308 27.23 73.4098 27.452 73.3648 27.673C73.2108 28.397 74.3148 29.877 75.1218 30.961C76.3518 32.609 77.5148 34.169 77.2188 35.793C77.1178 36.336 76.7988 37.114 75.8208 37.737C75.0488 38.234 74.1258 38.484 73.0788 38.484C71.6428 38.484 70.1728 38.033 68.7518 37.597C67.5698 37.234 66.4528 36.891 65.5958 36.891C64.9578 36.891 64.3558 37.006 63.9978 38.393C63.2838 41.168 71.8568 46.721 80.4728 50.29C80.9598 50.086 81.4588 49.887 81.9688 49.695C82.4008 49.531 82.8478 49.377 83.2938 49.223Z" fill="#2BE273"/>
<path d="M85.779 49.9C85.779 49.9 71.287 56.915 73.117 71.102C74.947 85.29 85.931 114.578 104.084 111.373C104.084 111.373 79.981 114.119 71.744 90.475C63.507 66.832 66.71 55.391 85.779 49.9Z" fill="white"/>
<path d="M80.8249 64.154C79.8419 67.55 77.1508 69.756 74.8198 69.08C72.4868 68.402 71.3979 65.101 72.3829 61.703C73.3689 58.307 76.0589 56.097 78.3909 56.774C80.7229 57.451 81.8119 60.755 80.8249 64.154Z" fill="white"/>
<path d="M118.592 67.219C115.479 54.905 108.806 48.919 98.1897 48.919C96.7647 48.919 95.2697 49.035 93.7007 49.241C101.907 54.85 107.592 67.002 107.592 81.095C107.592 93.628 103.092 104.627 96.3217 110.85C97.3877 111.051 98.4507 111.162 99.5057 111.162C100.803 111.162 102.087 111.005 103.32 110.691C109.675 109.085 114.793 103.467 117.726 94.874C120.596 86.473 120.912 76.394 118.592 67.219ZM108.144 66.792C108.043 66.818 107.941 66.828 107.843 66.828C107.297 66.828 106.801 66.461 106.661 65.908L105.248 60.324C105.085 59.67 105.479 59.006 106.133 58.84C106.787 58.678 107.45 59.073 107.616 59.726L109.027 65.31C109.192 65.963 108.797 66.627 108.144 66.792Z" fill="#C41D37"/>
<path d="M81.1027 50.865C81.1027 50.865 70.4217 44.763 72.0497 41.305C73.6767 37.848 77.1347 43.848 79.8817 41.001C82.6267 38.153 76.1157 35.815 78.8637 33.881C81.6077 31.949 82.7257 38.052 85.4737 37.239C88.2177 36.425 84.7617 31.848 87.5057 31.747C90.2527 31.644 88.8297 36.83 92.0837 36.729C95.3367 36.627 95.7437 32.05 98.8977 32.863C102.049 33.677 94.1167 47.916 94.1167 47.916L81.1027 50.865Z" fill="#1A9371"/>
<path d="M98.1901 48.919C97.3551 48.919 96.4861 48.969 95.6001 49.044C103.779 50.358 113.468 55.372 116.184 68.053C119.297 82.569 117.389 96.161 112.162 104.988C114.439 102.358 116.332 98.957 117.726 94.875C120.596 86.474 120.913 76.395 118.592 67.22C115.479 54.905 108.806 48.919 98.1901 48.919Z" fill="#EE4237"/>
<path d="M98.1899 46.478C98.1179 46.478 98.0399 46.489 97.9659 46.489C101.571 41.755 109.118 30.819 105.335 26.735C104.364 25.686 103.31 25.155 102.203 25.155C100.284 25.155 98.7369 26.723 97.2439 28.241C95.9029 29.602 94.5169 31.012 93.1599 31.012L93.0119 31.007C92.2389 30.946 92.0119 30.459 92.1019 27.508C92.1649 25.503 92.2289 23.427 90.9559 22.092C90.2849 21.389 89.3539 21.022 88.1139 21C87.2889 21 86.0619 21.285 84.9169 22.648C83.6449 24.16 82.8329 26.58 82.4649 28.776C80.4019 26.567 77.3379 24.395 74.7709 24.395C74.0539 24.395 73.3979 24.561 72.8239 24.884C71.7979 25.463 71.1769 26.233 70.9799 27.167C70.5969 28.971 71.9049 30.725 73.1679 32.42C73.9079 33.414 74.9239 34.774 74.8199 35.353C74.7999 35.452 74.6969 35.564 74.5089 35.682C73.4329 36.372 71.3979 35.856 69.4689 35.263C68.1659 34.865 66.8209 34.45 65.5969 34.45C64.1799 34.45 62.3439 35.027 61.6349 37.786C60.2459 43.189 72.0849 49.214 77.5499 51.677C66.9469 57.317 63.4239 66.746 66.8499 80.302C71.4939 98.663 86.1429 113.603 99.5049 113.603C101.004 113.603 102.489 113.42 103.917 113.057C111.101 111.242 116.825 105.065 120.035 95.662C123.054 86.826 123.389 76.239 120.958 66.618C117.578 53.256 109.918 46.478 98.1899 46.478ZM63.9989 38.394C64.3559 37.007 64.9589 36.892 65.5969 36.892C66.4539 36.892 67.5719 37.235 68.7529 37.598C70.1739 38.034 71.6439 38.485 73.0799 38.485C74.1269 38.485 75.0499 38.235 75.8219 37.738C76.7999 37.115 77.1189 36.337 77.2199 35.794C77.5159 34.17 76.3539 32.61 75.1229 30.962C74.3159 29.878 73.2119 28.397 73.3659 27.674C73.4109 27.453 73.6329 27.231 74.0209 27.011C74.2289 26.892 74.4739 26.836 74.7689 26.836C77.3759 26.836 81.7889 31.086 82.3719 32.824C82.5749 33.428 83.2179 33.771 83.8279 33.618C84.4469 33.462 84.8409 32.855 84.7319 32.225C84.4569 30.647 85.1349 26.178 86.7819 24.219C87.4399 23.44 87.9239 23.447 88.1379 23.44C88.8819 23.453 89.1109 23.696 89.1879 23.776C89.7569 24.371 89.7079 25.999 89.6619 27.433C89.5919 29.725 89.4869 33.191 92.8299 33.44C95.3659 33.623 97.2959 31.667 98.9839 29.953C100.125 28.794 101.305 27.596 102.203 27.596C102.603 27.596 103.055 27.866 103.545 28.395C105.479 30.485 100.605 39.416 94.7589 46.627C93.3529 46.773 91.8789 47.012 90.3609 47.318C89.4779 47.495 88.5859 47.689 87.6749 47.921C87.6279 47.932 87.5819 47.947 87.5359 47.958C87.5079 47.964 87.4839 47.97 87.4609 47.975C87.3789 47.996 87.3039 48.023 87.2229 48.044C86.4229 48.252 85.6499 48.474 84.8949 48.705C84.3489 48.871 83.8209 49.045 83.2949 49.224C82.8489 49.378 82.4009 49.533 81.9709 49.698C81.4609 49.889 80.9619 50.089 80.4749 50.293C71.8589 46.722 63.2859 41.169 63.9989 38.394ZM117.726 94.874C114.792 103.468 109.674 109.085 103.32 110.691C102.087 111.005 100.802 111.162 99.5059 111.162C87.1929 111.162 73.6069 97.052 69.2179 79.704C65.8529 66.394 69.6239 57.687 80.9909 52.728C81.9129 52.32 82.9079 51.94 83.9509 51.579C84.1309 51.516 84.3029 51.451 84.4849 51.391C84.8919 51.256 85.3169 51.125 85.7399 50.998C86.3929 50.802 87.0549 50.607 87.7459 50.428C87.8779 50.395 88.0039 50.357 88.1379 50.324C89.0479 50.095 89.9329 49.892 90.7919 49.72C90.8059 49.718 90.8179 49.713 90.8319 49.711C93.4949 49.182 95.9199 48.919 98.1899 48.919C108.806 48.919 115.479 54.905 118.592 67.219C120.912 76.394 120.596 86.473 117.726 94.874Z" fill="#231F20"/>
<path d="M77.0428 67.456C76.8758 66.802 76.2128 66.41 75.5598 66.571C74.9078 66.737 74.5118 67.4 74.6748 68.053L76.0868 73.639C76.2288 74.193 76.7238 74.561 77.2698 74.561C77.3698 74.561 77.4688 74.548 77.5698 74.525C78.2228 74.358 78.6198 73.696 78.4558 73.041L77.0428 67.456Z" fill="#231F20"/>
<path d="M92.3299 63.591C92.1629 62.939 91.4979 62.545 90.8469 62.707C90.1939 62.872 89.798 63.536 89.961 64.19L91.3729 69.773C91.5149 70.326 92.011 70.695 92.557 70.695C92.655 70.695 92.755 70.682 92.857 70.657C93.51 70.492 93.906 69.828 93.742 69.176L92.3299 63.591Z" fill="#231F20"/>
<path d="M107.617 59.726C107.451 59.074 106.788 58.678 106.134 58.84C105.481 59.006 105.086 59.67 105.249 60.324L106.662 65.908C106.802 66.461 107.298 66.828 107.844 66.828C107.942 66.828 108.044 66.818 108.145 66.792C108.798 66.627 109.193 65.963 109.029 65.31L107.617 59.726Z" fill="#231F20"/>
<path d="M100.357 95.34C100.192 94.687 99.525 94.29 98.875 94.456C98.222 94.621 97.825 95.285 97.99 95.939L99.404 101.523C99.543 102.078 100.042 102.446 100.586 102.446C100.686 102.446 100.787 102.431 100.888 102.407C101.541 102.24 101.937 101.577 101.771 100.924L100.357 95.34Z" fill="#231F20"/>
<path d="M89.0709 82.867C88.9049 82.215 88.2379 81.818 87.5879 81.982C86.9349 82.148 86.5389 82.813 86.7039 83.465L88.117 89.053C88.259 89.605 88.7539 89.974 89.2989 89.974C89.3989 89.974 89.499 89.961 89.6 89.936C90.253 89.77 90.6499 89.107 90.4849 88.456L89.0709 82.867Z" fill="#231F20"/>
<path d="M104.361 79.001C104.195 78.348 103.533 77.954 102.879 78.118C102.225 78.282 101.83 78.946 101.994 79.599L103.405 85.186C103.546 85.74 104.044 86.108 104.589 86.108C104.687 86.108 104.787 86.095 104.89 86.071C105.541 85.906 105.937 85.242 105.774 84.588L104.361 79.001Z" fill="#231F20"/>
</svg>
