<svg width="138" height="138" viewBox="0 0 138 138" fill="none" xmlns="http://www.w3.org/2000/svg">
<path d="M80.5976 45.3091C80.5631 45.3091 80.5294 45.2916 80.5101 45.2607C80.1177 44.638 79.7929 43.9208 79.5161 43.0687C79.5115 43.0545 79.5115 43.025 79.5134 43.0098C79.1624 40.6944 79.33 38.2725 79.4926 35.9309C79.5364 35.3072 79.5792 34.6868 79.6119 34.0728C79.6313 33.72 79.6409 33.3548 79.6502 32.9835C79.6787 31.8799 79.7068 30.739 79.9905 29.7197C80.2296 28.8616 81.2692 28.7566 81.9573 28.6875C82.0383 28.6792 82.089 28.6769 82.1355 28.6769C82.3709 28.6769 82.5482 28.7442 82.6629 28.8773C82.8578 29.1039 82.8329 29.4779 82.7827 29.8137C82.6127 30.9468 82.4603 32.1024 82.3124 33.2198C82.1669 34.322 82.0162 35.4611 81.849 36.5799C81.7592 37.1782 81.6634 37.7756 81.5676 38.3739C81.406 39.3817 81.2388 40.424 81.1061 41.453C81.0642 41.7731 81.0094 42.1098 80.9532 42.4552C80.804 43.3723 80.6483 44.3202 80.7022 45.2004C80.7045 45.2474 80.6754 45.2902 80.6303 45.3049C80.6193 45.3072 80.6087 45.3091 80.5976 45.3091Z" fill="#AC9F0C"/>
<path d="M80.6566 46.9083C80.6359 46.9083 80.6152 46.9018 80.5977 46.8899C79.9547 46.4468 79.2523 46.0672 78.5729 45.7001C77.963 45.3713 77.3329 45.0313 76.7438 44.6444C76.7084 44.621 76.6904 44.5772 76.6992 44.5348C77.1856 42.4179 76.7286 40.1799 76.2869 38.0155L76.1874 37.5259C75.8687 35.9433 75.5177 34.3395 75.1797 32.7887C74.948 31.727 74.7158 30.6663 74.4924 29.6037C74.4897 29.5465 74.4865 29.5323 74.4782 29.5171L74.3934 29.1366C74.3474 28.9215 74.3018 28.7064 74.258 28.4904C74.1175 27.8009 73.9853 27.1091 73.8541 26.4177C73.7274 25.7512 73.5994 25.0852 73.4649 24.4206L73.4492 24.3469C73.2986 23.6053 73.1678 22.9642 73.9577 22.5717C74.3699 22.3677 74.8213 22.247 75.2483 22.1415C75.3247 22.1231 75.3929 22.1042 75.4565 22.0867C75.6186 22.043 75.7453 22.0084 75.8535 22.0084C76.1377 22.0084 76.2105 22.2535 76.2446 22.4934C76.3173 23.0038 76.3873 23.5155 76.456 24.0268L76.4919 24.2925C76.7498 26.1989 77.0036 28.1063 77.2574 30.0131C77.4988 31.8237 77.7396 33.6343 77.9842 35.444C78.0644 36.0364 78.1316 36.6572 78.2016 37.2947C78.5604 40.5672 78.9671 44.2764 81.2964 46.5711C81.3231 46.5969 81.3332 46.6356 81.324 46.6715C81.3143 46.7075 81.2858 46.7356 81.2494 46.7448C81.061 46.7931 80.8731 46.8475 80.6861 46.9027C80.676 46.9069 80.6663 46.9083 80.6566 46.9083Z" fill="#AC9F0C"/>
<path d="M76.43 44.4115C76.4084 44.4115 76.3877 44.4046 76.3702 44.3921C76.1951 44.2673 76.0233 44.1388 75.8575 44.0006C75.3366 43.5672 75.0331 42.8675 74.8507 42.3788C74.8387 42.3466 74.8433 42.3107 74.8636 42.2821C74.8769 42.2642 74.8824 42.248 74.8824 42.2278C74.8783 40.0703 74.7811 37.8779 74.6867 35.7573C74.6263 34.3916 74.5632 32.9795 74.5264 31.5894C74.525 31.5355 74.5646 31.4899 74.6176 31.4834C74.6213 31.483 74.6254 31.483 74.6291 31.483C74.6775 31.483 74.7208 31.5171 74.7309 31.5654L74.7783 31.7953C75.0146 32.9435 75.2495 34.0918 75.4973 35.2387C75.5996 35.7117 75.7138 36.1981 75.829 36.6942C76.3997 39.1261 77.045 41.8823 76.5305 44.329C76.5231 44.3631 76.4991 44.3912 76.4669 44.4041C76.4549 44.4092 76.4425 44.4115 76.43 44.4115Z" fill="#AC9F0C"/>
<path d="M74.5596 41.261C74.515 41.261 74.4744 41.2319 74.4611 41.1877C74.3763 40.9114 74.2943 40.6447 74.2036 40.407C73.5827 38.7567 73.0493 37.4127 72.5243 36.1773C72.4888 36.0921 72.3336 35.7126 72.3336 35.7126C72.0913 34.1816 71.8094 32.6547 71.5386 31.1776C71.4105 30.4821 71.282 29.7861 71.1586 29.0902L71.0678 28.5876C70.9495 27.9373 70.8279 27.2653 70.7468 26.5992C70.7031 26.2437 70.7749 25.9576 70.9592 25.7504C71.2935 25.3727 71.9439 25.3289 72.4036 25.3289C72.6085 25.3289 72.8135 25.3386 73.0005 25.3473C73.1216 25.3529 73.2359 25.3584 73.3386 25.3607C73.3432 25.3602 73.3478 25.3602 73.3519 25.3602C73.4012 25.3602 73.4551 25.3893 73.4652 25.4367L73.4758 25.4832C73.7186 26.6439 73.9558 27.8042 74.1925 28.9658L74.2962 29.4706C74.2994 29.489 74.2985 29.5088 74.2916 29.5268C74.2939 31.6317 74.3874 33.7343 74.4767 35.7679C74.5555 37.5333 74.6361 39.3587 74.6623 41.1564C74.6633 41.2075 74.6264 41.2522 74.5753 41.2605C74.5702 41.2605 74.5652 41.261 74.5596 41.261Z" fill="#AC9F0C"/>
<path d="M70.7343 40.2052C70.6993 40.2052 70.6648 40.1868 70.6463 40.155C69.6123 38.4402 68.5759 36.7277 67.5368 35.0157C67.3259 34.667 67.1172 34.3151 66.909 33.9623C66.3946 33.0927 65.863 32.1941 65.2831 31.3553C65.162 31.1798 65.0395 31.0053 64.916 30.8312C64.5665 30.3356 64.2049 29.8229 63.8866 29.29C63.543 28.7161 63.3408 28.2919 63.6471 27.6406C63.8921 27.1201 64.3891 26.6803 64.8276 26.2924L64.934 26.198C64.9534 26.181 64.9782 26.1718 65.0031 26.1718C65.01 26.1718 65.0178 26.1727 65.0261 26.1745C65.0579 26.1819 65.0855 26.2049 65.0984 26.2358L65.2219 26.5342C65.3389 26.8184 65.454 27.0976 65.5613 27.3684C66.1993 28.9823 66.9367 30.5944 67.6506 32.1535C68.8191 34.7066 70.0273 37.3472 70.8329 40.0721C70.8485 40.1218 70.8232 40.1748 70.7762 40.1955C70.7624 40.202 70.7481 40.2052 70.7343 40.2052Z" fill="#AC9F0C"/>
<path d="M73.3534 51.7828C73.3175 51.7792 73.2857 51.7566 73.2705 51.7234C72.3811 49.8069 72.1996 47.6508 72.0228 45.5666L71.9891 45.1687C71.9878 45.1512 71.991 45.1327 71.9984 45.1166C72.0053 45.1019 72.0103 45.0802 71.9901 45.0471C71.9818 45.0337 71.9767 45.0181 71.9753 45.0024C71.9297 44.4842 71.8726 43.8749 71.7948 43.2834C71.7271 42.7745 71.6267 42.225 71.4876 41.606C71.4857 41.5608 71.483 41.5461 71.4751 41.5304C70.9749 39.3684 70.1528 37.2929 69.4126 35.544C68.8926 34.3156 68.3256 33.0822 67.777 31.8901C67.046 30.2997 66.2897 28.6554 65.6348 26.9977C65.3939 26.3883 65.1493 25.7131 64.8881 24.9333C64.8536 24.8319 64.8048 24.708 64.7509 24.5703C64.5224 23.9886 64.2083 23.1913 64.4533 22.7496C64.7159 22.2752 65.8416 21.774 66.643 21.774C67.1211 21.774 67.4435 21.9426 67.5757 22.2618C67.9202 23.0937 68.1551 24.0084 68.3818 24.8927C68.4992 25.3501 68.6199 25.8227 68.7535 26.2704C69.1173 27.491 69.4549 28.5715 69.7829 29.5724C70.5949 32.044 71.2941 33.9025 72.0504 35.5979L72.1458 35.819C72.1499 35.825 72.1651 35.8628 72.1679 35.8692C72.791 37.2869 73.3521 38.7369 73.867 40.0924C74.0462 40.5627 74.2221 41.0339 74.3976 41.5046L74.6846 42.2674C74.7343 42.4028 74.7762 42.5272 74.8181 42.6529C74.948 43.0389 75.0816 43.4377 75.3211 43.7505C76.0806 44.7458 77.4293 45.4243 78.6181 46.0235C79.0119 46.2211 79.3826 46.4077 79.7263 46.6007C79.8861 46.69 80.0441 46.7826 80.2002 46.8789C80.2343 46.8996 80.2532 46.9383 80.2486 46.9784C80.2435 47.018 80.2168 47.0516 80.1786 47.0649C78.1128 47.7568 76.2897 48.8355 74.7606 50.2716C74.2917 50.712 73.8615 51.1928 73.4465 51.7423C73.4267 51.7686 73.3967 51.7833 73.364 51.7833C73.3603 51.7833 73.3571 51.7833 73.3534 51.7828Z" fill="#AC9F0C"/>
<path d="M70.8243 49.5204C70.7902 49.5204 70.758 49.5043 70.7373 49.4744L70.7317 49.4643C69.671 47.8568 68.6706 46.3391 67.199 45.1268C65.5164 43.74 63.4889 42.7326 61.5276 41.7585C60.9017 41.4476 60.279 41.138 59.671 40.8179C59.5084 40.7323 59.3172 40.6406 59.1127 40.5411C58.0897 40.046 56.6895 39.368 56.3574 38.3786C56.2303 38 56.2699 37.603 56.4749 37.1999C56.8148 36.5335 57.5301 35.4156 58.5052 35.4156C58.7208 35.4156 58.9372 35.4718 59.1487 35.5833C59.601 35.8214 60.021 36.2456 60.4259 36.656C60.5954 36.8282 60.7603 36.9945 60.9187 37.1382L61.7073 37.8517C63.51 39.4859 65.3741 41.1758 67.3703 42.6189C67.9691 43.3959 68.4518 44.0974 68.8668 44.7841C69.7281 46.2097 70.3301 47.772 70.921 49.3813C70.9395 49.4306 70.9174 49.4859 70.8704 49.5094C70.8556 49.5177 70.8395 49.5204 70.8243 49.5204Z" fill="#AC9F0C"/>
<path d="M72.5942 52.9218C72.5555 52.92 72.5214 52.8965 72.5058 52.8615C72.0194 51.7971 71.6067 50.6833 71.2073 49.606C70.627 48.0414 70.0273 46.4247 69.1991 44.9434C67.9693 42.7486 66.2389 40.8818 64.5637 39.0763C62.3924 36.7342 60.3133 34.8185 58.2098 33.2189C58.0905 33.1291 57.9679 33.0402 57.845 32.9504C56.9975 32.3364 56.0385 31.6409 56.378 30.4116C56.6889 29.2854 57.5014 28.4057 57.9587 27.9819C58.2586 27.7033 58.5308 27.5683 58.7901 27.5683C59.276 27.5683 59.5998 28.0307 59.9416 28.5208C60.0158 28.6267 60.0899 28.7331 60.1673 28.8368C61.0512 30.0173 61.9245 31.2245 62.7692 32.3917C64.9073 35.345 67.1209 38.4453 69.3493 41.6054L69.4483 41.7459C70.2212 42.8417 71.0199 43.9748 71.7836 45.1046C71.7932 45.1189 71.7992 45.1359 71.8006 45.153L71.866 45.8669C72.0489 47.9133 72.2386 50.0293 73.1308 51.9127C73.1382 51.9274 73.1478 51.938 73.1621 51.9481C73.1861 51.9629 73.2017 51.9873 73.2073 52.0149C73.2123 52.0426 73.2068 52.0711 73.1907 52.0942C73.0069 52.3567 72.8379 52.6179 72.6891 52.8712C72.6697 52.903 72.6366 52.9218 72.6002 52.9218C72.5974 52.9218 72.596 52.9218 72.5942 52.9218Z" fill="#AC9F0C"/>
<path d="M117.04 105.241C115.235 105.241 113.366 104.61 111.718 104.054C109.575 103.33 107.352 102.32 104.893 100.957C97.5144 96.8646 90.2522 90.7575 82.691 82.2867C77.1298 76.0581 71.8757 69.2044 71.0918 61.3084C70.651 56.8581 72.2553 52.6957 75.4933 49.8879C76.8981 48.671 78.6585 47.7194 80.5842 47.1372C80.5939 47.1308 80.6736 47.1096 80.6851 47.1068C82.1328 46.6798 83.6311 46.4638 85.1372 46.4638C85.2832 46.4638 85.4297 46.4656 85.5753 46.4698C91.6012 46.7604 96.2846 51.1983 99.6916 55.0318C102.661 58.3721 105.236 62.125 107.727 65.7541C108.185 66.4224 108.643 67.0889 109.103 67.754C115.583 77.1124 121.421 86.4058 121.68 97.1875C121.767 100.805 121.37 104.988 117.496 105.228C117.344 105.236 117.192 105.241 117.04 105.241Z" fill="#FF7F06"/>
<path d="M74.94 61.7649C74.906 61.7649 74.8498 61.7359 74.8309 61.7082C74.8111 61.6797 74.8051 61.6244 74.8175 61.5922C75.8285 59.0045 77.8469 56.6882 80.815 54.7058C83.8033 52.71 86.6019 51.4733 89.3682 50.9252C89.3724 50.9247 89.3765 50.9247 89.3793 50.9247C89.4949 50.9247 89.5617 50.9814 89.576 51.062C89.5916 51.1463 89.5465 51.2274 89.4645 51.2591C83.5629 53.552 77.734 56.4026 75.0529 61.6958C75.0358 61.7308 74.9792 61.7649 74.94 61.7649Z" fill="#FF7F06"/>
<path d="M81.244 74.1595C81.2113 74.1595 81.1662 74.1369 81.1468 74.1112C81.127 74.0849 81.1178 74.0365 81.1261 74.0066C81.6613 72.0214 82.9289 70.3789 84.0477 68.9304L84.1333 68.8184C85.2747 67.3413 86.4538 65.8121 87.7914 64.4474C91.0681 61.1044 94.096 59.0782 97.3188 58.0704C97.3285 58.0677 97.3552 58.063 97.3663 58.063C97.4395 58.063 97.5035 58.1146 97.521 58.1888C97.539 58.2611 97.5077 58.333 97.4427 58.3666C93.7464 60.2974 90.5987 62.6045 88.0866 65.2239C85.8748 67.5311 83.1099 70.6244 81.3504 74.0927C81.332 74.1287 81.2827 74.1595 81.244 74.1595Z" fill="#FF7F06"/>
<path d="M84.4476 71.1611C84.4112 71.1611 84.3619 71.1339 84.3435 71.103C84.3241 71.0726 84.3232 71.016 84.3398 70.9842C85.4503 68.8341 87.2826 66.8466 89.6381 65.2346C89.656 65.2226 89.6961 65.2101 89.7168 65.2101C89.7762 65.2101 89.8306 65.2479 89.8527 65.305C89.8748 65.3598 89.861 65.4211 89.8191 65.4616C87.5488 67.5702 85.922 69.3127 84.5443 71.1127C84.525 71.138 84.4785 71.1611 84.4476 71.1611Z" fill="#FF7F06"/>
<path d="M90.5437 85.8416C90.5133 85.8416 90.4664 85.82 90.447 85.7956C90.4277 85.7721 90.4152 85.7214 90.4208 85.6905C91.2102 81.6916 94.2009 78.5748 96.5702 76.6633C99.7211 74.1227 102.944 72.535 106.423 71.8082C106.426 71.8082 106.43 71.8082 106.433 71.8082C106.545 71.8082 106.61 71.8662 106.622 71.9463C106.635 72.0283 106.588 72.1034 106.508 72.1292C99.0445 74.5436 93.2686 79.5126 90.6616 85.7615C90.6455 85.8006 90.5856 85.8416 90.5437 85.8416Z" fill="#FF7F06"/>
<path d="M97.9844 74.9923C97.9434 74.9923 97.8877 74.955 97.8716 74.9181C97.855 74.8813 97.8642 74.8122 97.8914 74.7809C98.9489 73.5898 100.35 72.6603 102.173 71.9385C102.186 71.9339 102.213 71.9284 102.226 71.9284C102.288 71.9284 102.342 71.9708 102.359 72.033C102.378 72.0979 102.354 72.1647 102.297 72.1988L102.234 72.2393C100.846 73.1089 99.4123 74.0085 98.0558 74.9693C98.0392 74.9812 98.0056 74.9923 97.9844 74.9923Z" fill="#FF7F06"/>
<path d="M99.5389 92.8824C99.5066 92.8824 99.4472 92.8529 99.4274 92.828C99.4076 92.8027 99.3952 92.7419 99.4016 92.711C100.065 89.9953 102.108 87.6053 105.646 85.4027C108.654 83.5281 111.803 82.3282 115.006 81.8368C115.008 81.8368 115.009 81.8368 115.011 81.8368C115.117 81.8368 115.187 81.8985 115.198 81.9791C115.209 82.0597 115.16 82.1316 115.081 82.1537C109.524 83.7262 102.336 86.849 99.6591 92.804C99.6425 92.8409 99.5789 92.8824 99.5389 92.8824Z" fill="#FF7F06"/>
<path d="M102.635 86.5657C102.594 86.5657 102.539 86.5279 102.523 86.4911C102.506 86.4533 102.516 86.3856 102.544 86.3557C104.097 84.6602 106.093 83.7326 108.351 82.7778C108.365 82.7722 108.405 82.7644 108.419 82.7644C108.494 82.7644 108.56 82.8137 108.581 82.8855C108.602 82.9556 108.573 83.0269 108.509 83.0666C107.642 83.6137 106.741 84.1333 105.869 84.6367C104.818 85.242 103.733 85.8693 102.703 86.545C102.685 86.5551 102.655 86.5657 102.635 86.5657Z" fill="#FF7F06"/>
<path d="M109.559 100.008C109.53 100.008 109.481 99.988 109.461 99.9668C109.442 99.9465 109.424 99.8981 109.426 99.8696C109.541 97.6928 111.234 95.8868 112.696 94.5557C114.324 93.0739 116.105 91.6461 118.099 91.2334C118.104 91.2334 118.107 91.2334 118.111 91.2334C118.217 91.2334 118.28 91.2827 118.301 91.3545C118.323 91.4278 118.293 91.5042 118.228 91.5466L117.701 91.8824C114.502 93.921 110.875 96.2318 109.688 99.9156C109.674 99.9575 109.604 100.008 109.559 100.008Z" fill="#FF7F06"/>
<path d="M81.2434 54.0029C81.2006 54.0029 81.149 53.9679 81.1338 53.9283C81.1182 53.8896 81.1301 53.8297 81.161 53.8007C82.6648 52.3512 83.9568 51.3522 85.7508 50.8483C85.7564 50.8483 85.7614 50.8478 85.767 50.8478C85.8641 50.8478 85.918 50.8934 85.9337 50.9565C85.9507 51.0224 85.9217 51.0887 85.8623 51.121C85.0595 51.5581 84.2834 52.0781 83.5322 52.5811C82.8132 53.0624 82.0702 53.5603 81.3001 53.9877C81.2844 53.9969 81.26 54.0029 81.2434 54.0029Z" fill="#FF7F06"/>
<path d="M115.618 103.281C111.78 101.93 107.972 99.5466 104.508 97.432C100.826 95.1829 97.4319 92.5036 94.2579 89.5885C88.2016 84.0273 82.5717 77.2399 78.921 69.8363C76.8534 65.6444 75.8074 60.9422 75.7825 56.2805C75.7724 54.1908 76.1137 52.1733 76.6761 50.1684C76.8202 49.6553 76.9966 49.1523 77.1841 48.6548C76.5789 49.0265 76.0114 49.4388 75.4932 49.8874C72.2557 52.6952 70.651 56.8576 71.0918 61.3079C71.8753 69.2044 77.1293 76.0576 82.691 82.2862C90.2521 90.7575 97.5148 96.8641 104.893 100.956C107.352 102.32 109.575 103.33 111.718 104.053C113.366 104.61 115.235 105.24 117.04 105.24C117.192 105.24 117.344 105.236 117.496 105.227C118.694 105.153 119.558 104.699 120.178 104.005C118.74 104.091 117.228 103.849 115.618 103.281Z" fill="#CD6B06"/>
<path d="M64.8879 24.9323C65.149 25.7121 65.3936 26.3873 65.6345 26.9967C66.2899 28.6548 67.0458 30.2991 67.7768 31.8891C68.3249 33.0811 68.8923 34.3146 69.4123 35.543C70.152 37.2915 70.9747 39.3674 71.4749 41.5294C71.4832 41.5451 71.4855 41.5598 71.4873 41.6049C71.6264 42.224 71.7268 42.7735 71.7945 43.2824C71.8728 43.8738 71.9299 44.4832 71.9751 45.0014C71.9765 45.017 71.982 45.0327 71.9898 45.0461C72.0106 45.0792 72.005 45.1009 71.9981 45.1156C71.9903 45.1317 71.9875 45.1497 71.9889 45.1677L72.0225 45.5656C72.1994 47.6498 72.3809 49.8059 73.2703 51.7224C73.2855 51.7556 73.3173 51.7781 73.3532 51.7818C73.3569 51.7823 73.3606 51.7823 73.3638 51.7823C73.396 51.7823 73.4264 51.7676 73.4462 51.7413C73.6268 51.5027 73.811 51.2793 73.999 51.0638C73.7912 50.6036 73.6079 50.1301 73.4444 49.6516C72.333 46.4094 72.8834 42.8007 71.9456 39.483C71.1073 36.5149 69.6684 33.6573 68.4465 30.8344C67.3493 28.3001 65.3775 25.1156 65.2269 22.1411C64.8672 22.3175 64.571 22.5339 64.4522 22.7472C64.2076 23.1889 64.5213 23.9862 64.7497 24.5679C64.8045 24.707 64.8533 24.8309 64.8879 24.9323Z" fill="#8C7F03"/>
<path d="M71.2485 47.8783C70.4452 45.398 69.5839 42.8804 67.8949 40.8395C65.9945 38.5443 63.4676 36.8203 61.2361 34.8651C60.1145 33.8813 58.9151 32.9849 57.8571 31.9306C57.1395 31.2162 56.8309 30.3899 56.7503 29.5111C56.5988 29.7888 56.4657 30.0882 56.3772 30.4116C56.0378 31.6404 56.9967 32.3364 57.8442 32.9504C57.9672 33.0402 58.0897 33.1291 58.209 33.2189C60.3126 34.8186 62.3917 36.7342 64.563 39.0763C66.2386 40.8819 67.9691 42.7487 69.1984 44.9434C70.027 46.4242 70.6267 48.0414 71.2066 49.606C71.6059 50.6829 72.0191 51.7971 72.505 52.8615C72.5207 52.897 72.5548 52.92 72.5935 52.9219C72.5953 52.9223 72.5967 52.9223 72.599 52.9223C72.6354 52.9223 72.6685 52.903 72.6879 52.8717C72.7639 52.7422 72.8454 52.61 72.9315 52.4778C72.3171 50.9597 71.7501 49.4241 71.2485 47.8783Z" fill="#8C7F03"/>
<path d="M73.9582 22.5727C73.1683 22.9651 73.2991 23.6058 73.4497 24.3478L73.4653 24.4215C73.5998 25.0861 73.7274 25.7522 73.8545 26.4186C73.9858 27.11 74.118 27.8018 74.2585 28.4913C74.3023 28.7069 74.3479 28.9224 74.3939 29.1375L74.4787 29.518C74.487 29.5332 74.4902 29.5475 74.4929 29.6046C74.7163 30.6672 74.9485 31.7279 75.1802 32.7896C75.5178 34.3404 75.8687 35.9447 76.1879 37.5268L76.2874 38.0165C76.7291 40.1808 77.1856 42.4188 76.6997 44.5357C76.6904 44.5781 76.7089 44.6219 76.7443 44.6454C77.0866 44.8701 77.4426 45.0769 77.8005 45.2768C78.0704 42.1876 77.7351 39.0173 77.0138 36.034C76.404 33.5091 75.807 30.9818 75.2128 28.4526C74.9199 27.204 74.5864 25.965 74.2907 24.7172C74.101 23.9185 74.0696 23.2175 74.1148 22.5049C74.0618 22.5275 74.0098 22.5478 73.9582 22.5727Z" fill="#8C7F03"/>
<path d="M70.7367 49.4743C70.7574 49.5047 70.7897 49.5204 70.8238 49.5204C70.839 49.5204 70.8551 49.5171 70.8698 49.5098C70.9173 49.4858 70.9389 49.431 70.9205 49.3817C70.6418 48.6231 70.3595 47.8756 70.05 47.1469C68.6346 45.4547 66.9022 43.9743 64.7738 42.6685C62.2769 41.1371 57.8092 39.6631 56.7608 36.6969C56.6471 36.8756 56.5499 37.0497 56.4734 37.1999C56.2685 37.6034 56.2289 37.9999 56.356 38.3785C56.6885 39.3679 58.0887 40.0459 59.1113 40.541C59.3158 40.6405 59.5065 40.7322 59.6695 40.8179C60.2775 41.138 60.9002 41.447 61.5262 41.7584C63.4878 42.7326 65.5149 43.7399 67.1975 45.1267C68.6691 46.339 69.6695 47.8567 70.7303 49.4642L70.7367 49.4743Z" fill="#8C7F03"/>
<path d="M79.5161 43.0692C79.7934 43.9213 80.1181 44.6385 80.5101 45.2612C80.5294 45.292 80.563 45.3095 80.5976 45.3095C80.6082 45.3095 80.6192 45.3077 80.6289 45.3045C80.6478 45.2985 80.6621 45.2851 80.6745 45.2708C80.1407 43.4151 80.0813 41.435 80.1678 39.5194C80.2752 37.2072 80.4069 34.8862 80.633 32.5823C80.7362 31.5326 80.7901 30.0887 81.0863 28.8211C80.5957 28.945 80.1379 29.1868 79.9901 29.7202C79.7063 30.739 79.6778 31.8804 79.6497 32.984C79.64 33.3552 79.6308 33.7209 79.6114 34.0733C79.5787 34.6873 79.5359 35.3077 79.4921 35.9313C79.3296 38.2725 79.1619 40.6948 79.5129 43.0102C79.5115 43.0254 79.5115 43.0545 79.5161 43.0692Z" fill="#8C7F03"/>
<path d="M71.926 25.8572C71.9205 25.6863 71.9324 25.5182 71.9504 25.3505C71.5805 25.3874 71.1936 25.4869 70.9596 25.7508C70.7754 25.9585 70.7035 26.2441 70.7473 26.5997C70.8284 27.2657 70.95 27.9377 71.0684 28.5881L71.1591 29.0906C71.2825 29.7865 71.411 30.482 71.5391 31.178C71.8099 32.6551 72.0913 34.1815 72.3341 35.713C72.3341 35.713 72.4893 36.0926 72.5248 36.1778C72.984 37.2588 73.4496 38.4227 73.9747 39.8027C73.8416 38.7976 73.7241 37.7899 73.5786 36.7881C73.2318 34.3976 72.8817 32.0075 72.4718 29.6272C72.2539 28.3651 71.9693 27.1413 71.926 25.8572Z" fill="#8C7F03"/>
<path d="M64.9162 30.8316C65.0396 31.0057 65.1621 31.1803 65.2833 31.3558C65.8631 32.1945 66.3947 33.0932 66.9092 33.9628C67.1173 34.3156 67.326 34.6675 67.5369 35.0162C68.576 36.7277 69.6124 38.4407 70.6464 40.1555C70.6649 40.1873 70.6994 40.2057 70.7344 40.2057C70.7482 40.2057 70.7625 40.2029 70.7763 40.1965C70.8233 40.1758 70.8486 40.1223 70.833 40.073C70.5152 38.9971 70.1324 37.935 69.7165 36.8857C69.5576 36.6089 69.3867 36.3266 69.2071 36.035C68.2633 34.5095 67.2882 33.0038 66.3435 31.4788C65.4891 30.0979 64.5012 28.7207 63.9296 27.1938C63.8195 27.3362 63.7204 27.4845 63.6472 27.6411C63.3409 28.2919 63.5427 28.7166 63.8867 29.2905C64.205 29.8229 64.567 30.336 64.9162 30.8316Z" fill="#8C7F03"/>
<path d="M101.848 62.3336C98.8455 58.6249 95.4431 55.2888 91.9877 52.0071C90.4175 50.5152 88.687 49.1693 86.5614 48.6452C85.3601 48.3485 82.4657 48.3039 82.5063 50.2153C82.5344 51.5271 83.7536 53.1692 84.6927 54.0323C86.0612 55.2893 87.3292 56.6725 88.5802 58.045C91.5418 61.2932 94.52 64.5173 97.2555 67.9617C102.836 74.9895 106.772 83.8044 113.76 89.5982C114.368 90.1035 115.423 89.823 115.402 88.9174C115.287 84.0674 113.197 79.2689 110.824 75.0972C108.251 70.5728 105.119 66.3745 101.848 62.3336Z" fill="#FF9408"/>
<path d="M109.98 68.4781C107.143 64.3451 104.347 60.1556 101.162 56.2787C98.0539 52.494 94.2061 48.5319 89.4864 46.848C88.234 46.4008 86.8955 46.223 85.5736 46.1589C84.2669 46.1216 82.9625 46.2515 81.694 46.5343C81.4688 46.3289 81.2638 46.1074 81.0745 45.8748C81.0842 45.843 81.0883 45.808 81.08 45.7688C80.8898 44.884 81.1454 43.9347 81.2283 43.0453C81.3393 41.8533 81.519 40.6682 81.7023 39.4854C81.9915 37.6098 82.278 35.7366 82.5341 33.8559C82.705 32.5944 82.8722 31.3319 83.0537 30.0721C83.1232 29.5913 83.4263 28.7373 82.8155 28.4845C82.0989 28.1878 80.6825 28.3864 80.1275 28.946C79.3569 29.7221 79.5002 31.0928 79.4292 32.0928C79.2367 34.8154 78.9019 37.6978 78.9903 40.4918C78.9631 40.3517 78.9382 40.2122 78.9129 40.074C78.5292 37.9635 78.3427 35.8135 78.0576 33.6883C77.5578 29.9593 77.0788 26.2275 76.5556 22.5018C76.5316 22.3286 76.5496 21.9016 76.3566 21.8003C75.9135 21.5691 75.2162 21.8238 74.7786 21.9445C74.2226 22.0978 73.5548 22.3139 73.1495 22.7459C72.7451 23.1766 73.055 24.3105 73.2568 25.047C72.5465 25.0245 71.2472 24.8863 70.7101 25.3846C70.1395 25.9134 70.5079 27.1225 70.6189 27.7862C70.9607 29.828 71.36 31.8606 71.717 33.9002C70.2283 30.0648 69.0336 26.1534 67.8784 22.1904C67.5127 20.9362 65.4515 21.6478 64.7362 22.0757C64.341 22.312 63.9909 22.7063 64.0517 23.1899C64.1646 24.0738 64.4866 24.9895 64.8398 25.8733C64.8329 25.8784 64.826 25.8803 64.8186 25.8858C64.1388 26.5025 63.3719 27.1644 63.1637 28.0962C63.049 28.6097 63.5013 29.2509 63.7441 29.6558C64.5966 31.0813 65.5975 32.4203 66.4634 33.8435C68.018 36.4007 69.5715 38.9603 71.1136 41.5263C71.3283 42.4267 71.5014 43.341 71.6065 44.2774C71.6078 44.2871 71.6088 44.2977 71.6101 44.3069C68.0935 39.1298 64.4124 34.0443 60.6862 29.0183C60.2813 28.473 59.881 27.7558 59.3431 27.327C58.4523 26.6163 57.211 28.274 56.807 28.8506C56.3971 29.4361 56.0742 30.1237 55.9692 30.834C55.8619 31.5617 56.2152 31.9325 56.7214 32.4037C57.6568 33.2756 58.7401 33.9886 59.718 34.8117C60.9796 35.8738 62.1559 37.0359 63.3097 38.2137C64.3111 39.2362 65.3101 40.2817 66.2447 41.3789C64.06 39.6544 62.0325 37.7157 59.9649 35.8641C59.005 35.0047 58.1718 34.7923 57.1732 35.7306C56.4017 36.4546 55.4022 37.9691 56.2179 39.0036C57.0825 40.0998 58.8521 40.7419 60.0611 41.3724C61.722 42.2397 63.406 43.0674 65.0236 44.0149C66.3055 44.7652 67.4956 45.6564 68.4726 46.7807C69.5702 48.046 70.396 49.5683 71.3476 50.9409C71.3651 50.9666 71.3868 50.9851 71.4089 50.9998C71.6977 51.7667 72.0007 52.5271 72.348 53.2659C72.3485 53.2669 72.3494 53.2673 72.3499 53.2687C70.7903 56.1866 70.4361 59.6664 71.0146 62.9878C71.9574 68.409 75.1332 73.3475 78.4201 77.6407C80.6272 80.5231 83.0592 83.2383 85.5768 85.8513C92.2762 92.8045 99.999 99.414 108.924 103.301C110.938 104.178 113.042 104.895 115.198 105.33C116.496 105.593 117.916 105.698 119.164 105.177C122.054 103.97 122.031 99.7646 121.991 97.1889C121.827 86.5003 115.843 77.0212 109.98 68.4781ZM79.7157 34.0793C79.7903 32.6879 79.7153 31.0983 80.0897 29.7483C80.3127 28.9474 81.3122 28.8571 81.9966 28.7885C82.7465 28.7125 82.7663 29.2279 82.6801 29.799C82.342 32.0504 82.0837 34.3133 81.746 36.5647C81.5028 38.1902 81.2136 39.8092 81.0036 41.4392C80.8539 42.5985 80.5232 43.9766 80.5982 45.206C80.1782 44.5386 79.8631 43.8011 79.6144 43.0375C79.6144 43.0237 79.6195 43.0117 79.6167 42.9974C79.1736 40.0786 79.5577 37.0106 79.7157 34.0793ZM74.0053 22.6653C74.4027 22.4682 74.8458 22.3489 75.2751 22.2429C75.8416 22.1029 76.0646 21.9527 76.1443 22.5091C76.2295 23.1084 76.3096 23.7081 76.3907 24.3078C76.8936 28.0243 77.381 31.7427 77.883 35.4593C78.3763 39.109 78.4141 43.8771 81.2251 46.6458C81.0344 46.6946 80.8451 46.749 80.6576 46.8047C79.4325 45.9613 78.0451 45.3736 76.8011 44.5588C77.3298 42.2549 76.7476 39.776 76.2898 37.5062C75.7569 34.8582 75.1517 32.2254 74.5948 29.583C74.5948 29.5765 74.5943 29.5701 74.5943 29.5636C74.5943 29.5263 74.5851 29.4955 74.5709 29.4688C74.5009 29.1357 74.429 28.8037 74.3608 28.4702C74.0845 27.116 73.8427 25.755 73.5677 24.4004C73.412 23.6353 73.2618 23.0347 74.0053 22.6653ZM74.6298 31.5866C74.8818 32.8118 75.1337 34.0374 75.3967 35.2612C76.0075 38.0916 77.0424 41.3973 76.4298 44.3083C76.2576 44.1848 76.0876 44.0577 75.9232 43.9214C75.4741 43.5487 75.1807 42.9675 74.9476 42.3429C74.9697 42.3125 74.9859 42.2761 74.9859 42.2282C74.9799 38.6779 74.7247 35.1336 74.6298 31.5866ZM71.2615 29.0722C71.1145 28.2468 70.9506 27.4196 70.8502 26.5868C70.6797 25.1801 72.4401 25.4459 73.3365 25.4643C73.3475 25.4648 73.3549 25.4602 73.3655 25.4593C73.3687 25.4735 73.3733 25.4906 73.3756 25.5044C73.6543 26.8323 73.9237 28.1616 74.195 29.4909C74.1876 29.5125 74.1807 29.536 74.1807 29.5636C74.2005 33.4294 74.5027 37.2906 74.5598 41.1573C74.4746 40.8791 74.3912 40.6101 74.301 40.3706C73.7657 38.9492 73.2135 37.5357 72.6202 36.1368C72.5548 35.983 72.4949 35.8273 72.4295 35.673C72.0841 33.4658 71.6525 31.2715 71.2615 29.0722ZM67.6264 34.9618C66.8849 33.7389 66.1825 32.4737 65.3695 31.2969C64.897 30.6143 64.4023 29.9505 63.9758 29.2371C63.6616 28.7125 63.4484 28.3067 63.7413 27.6849C63.9974 27.1418 64.5483 26.6803 65.0038 26.275C65.1627 26.6619 65.3212 27.0419 65.4658 27.4067C67.1502 31.6676 69.4403 35.7218 70.735 40.1012C69.7014 38.3873 68.6651 36.6739 67.6264 34.9618ZM71.5885 41.5825C71.5903 41.5502 71.5848 41.5166 71.5664 41.482C71.0947 39.4278 70.326 37.4371 69.5071 35.5035C68.2934 32.6349 66.8766 29.8575 65.7311 26.959C65.4626 26.28 65.2184 25.5919 64.9858 24.8996C64.814 24.3875 64.2668 23.2986 64.5441 22.7989C64.8937 22.1683 67.0944 21.371 67.4804 22.3014C68.0018 23.5584 68.2644 24.9927 68.654 26.2999C68.9847 27.4057 69.3256 28.5084 69.6853 29.6046C70.3536 31.6405 71.0823 33.6828 71.9565 35.6403C71.9892 35.7135 72.0192 35.7877 72.0514 35.8614C72.0588 35.8798 72.0638 35.8982 72.0735 35.9116C72.6833 37.2998 73.2328 38.7139 73.7708 40.1306C74.0462 40.8542 74.3152 41.5802 74.5874 42.3051C74.5884 42.3061 74.5888 42.3074 74.5893 42.3084C74.5907 42.3125 74.5916 42.3162 74.593 42.3194C74.7791 42.8192 74.9117 43.3848 75.2396 43.815C76.258 45.1493 78.2529 45.8936 79.6757 46.6923C79.835 46.7812 79.9916 46.8733 80.1464 46.9682C78.1313 47.643 76.2562 48.7268 74.6906 50.1979C74.1978 50.6613 73.7593 51.1596 73.3645 51.6815C72.4272 49.6609 72.2835 47.3846 72.0928 45.1608C72.115 45.112 72.1154 45.0544 72.079 44.9941C72.0274 44.4137 71.9726 43.8375 71.8966 43.271C71.822 42.7017 71.7133 42.1402 71.5885 41.5825ZM67.2649 45.0471C65.0388 43.2134 62.2527 42.0587 59.718 40.7271C58.473 40.0731 55.65 39.0455 56.5657 37.2473C57.0207 36.3547 57.953 35.0715 59.1003 35.6753C59.7295 36.0065 60.3209 36.7393 60.8488 37.2155C62.9422 39.104 65.0208 41.0486 67.3095 42.7035C67.8346 43.3908 68.3312 44.0982 68.7779 44.8384C69.6452 46.2736 70.2445 47.841 70.8239 49.4181C69.782 47.8378 68.7512 46.2718 67.2649 45.0471ZM69.2892 44.8932C68.0626 42.7031 66.3368 40.8349 64.6399 39.0059C62.6732 36.8853 60.5752 34.8877 58.2722 33.1365C57.3252 32.417 56.1111 31.7658 56.4777 30.4388C56.7269 29.5355 57.3519 28.6862 58.029 28.058C59.0515 27.1091 59.4946 28.1105 60.0846 28.899C60.9639 30.0744 61.8248 31.2637 62.6856 32.453C64.8988 35.5095 67.0908 38.5817 69.2648 41.6654C70.0828 42.8261 70.9027 43.9868 71.6977 45.1631C71.9155 47.4698 72.0334 49.8396 73.038 51.9574C73.0555 51.9947 73.0799 52.0177 73.1057 52.0348C72.927 52.2909 72.7575 52.5511 72.6 52.8192C71.4093 50.2099 70.6926 47.4012 69.2892 44.8932ZM117.491 105.124C115.555 105.243 113.528 104.555 111.721 103.945C109.367 103.15 107.115 102.07 104.944 100.866C96.4994 96.1825 89.1686 89.3855 82.7699 82.2181C77.5412 76.3621 71.9957 69.3597 71.1961 61.2978C70.7709 57.0083 72.2941 52.7989 75.5621 49.9653C77.0166 48.7042 78.7614 47.7954 80.6153 47.2358C80.6517 47.2363 80.6857 47.2261 80.7148 47.2054C82.2951 46.7398 83.9509 46.526 85.5741 46.573C91.3863 46.8531 95.9301 50.9533 99.6153 55.1005C103.118 59.0418 106.024 63.4852 109.019 67.8125C115.094 76.5855 121.314 86.1875 121.578 97.1898C121.652 100.262 121.462 104.878 117.491 105.124Z" fill="#441203"/>
<path d="M89.388 51.0265C86.3209 51.6345 83.4587 53.0646 80.8715 54.7919C78.3323 56.4882 76.0399 58.7484 74.9137 61.6299C74.9031 61.6571 74.9478 61.6759 74.9602 61.6497C77.7367 56.1695 83.987 53.277 89.4262 51.1633C89.5114 51.1301 89.4796 51.0081 89.388 51.0265Z" fill="#441203"/>
<path d="M97.3945 58.2758C97.4534 58.2454 97.4119 58.1501 97.3493 58.1694C93.6493 59.3265 90.5468 61.7847 87.8661 64.5197C86.499 65.9144 85.3199 67.4514 84.1297 68.9939C82.9372 70.5388 81.7415 72.1218 81.2252 74.0333C81.2201 74.0522 81.2487 74.0656 81.2575 74.0467C82.917 70.7755 85.482 67.7918 88.0116 65.153C90.7195 62.33 93.9358 60.0823 97.3945 58.2758Z" fill="#441203"/>
<path d="M89.6957 65.3207C87.5502 66.7886 85.6309 68.7097 84.4311 71.0316C84.4205 71.0532 84.4481 71.0671 84.4619 71.0496C86.0455 68.9815 87.8427 67.1557 89.7473 65.3861C89.7818 65.3543 89.7362 65.2935 89.6957 65.3207Z" fill="#441203"/>
<path d="M106.443 71.9108C102.767 72.6782 99.5517 74.3925 96.6352 76.7452C93.8283 79.0082 91.2365 82.0923 90.5221 85.7108C90.5161 85.7402 90.5544 85.7495 90.5654 85.7232C93.376 78.9861 99.6355 74.2447 106.476 72.032C106.554 72.0066 106.522 71.8933 106.443 71.9108Z" fill="#441203"/>
<path d="M102.243 72.1108C102.282 72.0859 102.257 72.015 102.211 72.0339C100.601 72.6727 99.1313 73.54 97.9687 74.849C97.9531 74.867 97.9747 74.8997 97.9968 74.8845C99.3758 73.9071 100.812 73.0085 102.243 72.1108Z" fill="#441203"/>
<path d="M115.022 81.9385C111.67 82.4525 108.58 83.6952 105.701 85.4897C102.988 87.1787 100.291 89.5126 99.503 92.7358C99.4938 92.7717 99.549 92.7985 99.5652 92.7621C102.197 86.9079 109.217 83.7054 115.054 82.0546C115.129 82.0325 115.096 81.927 115.022 81.9385Z" fill="#441203"/>
<path d="M102.647 86.458C104.534 85.2194 106.545 84.1835 108.454 82.9791C108.522 82.9353 108.463 82.8427 108.392 82.8731C106.272 83.7681 104.203 84.698 102.621 86.4248C102.606 86.4418 102.626 86.4718 102.647 86.458Z" fill="#441203"/>
<path d="M118.12 91.3356C116.074 91.758 114.27 93.2627 112.765 94.6326C111.285 95.9803 109.641 97.7674 109.529 99.8755C109.528 99.9115 109.58 99.9156 109.59 99.8834C110.856 95.9559 114.906 93.5502 118.172 91.4595C118.238 91.4171 118.195 91.32 118.12 91.3356Z" fill="#441203"/>
<path d="M111.836 98.1483C111.798 98.1483 111.737 98.111 111.718 98.0783C111.699 98.0456 111.702 97.9779 111.721 97.9461C112.377 96.8789 113.064 95.8873 114.265 95.4801C114.275 95.4755 114.309 95.4704 114.32 95.4704C114.387 95.4704 114.446 95.5137 114.468 95.58C114.492 95.6523 114.468 95.7302 114.407 95.7758C113.442 96.4939 112.577 97.3975 111.931 98.1059C111.912 98.1271 111.864 98.1483 111.836 98.1483Z" fill="#FF7F06"/>
<path d="M114.298 95.5773C113.118 95.978 112.429 96.99 111.809 98.001C111.791 98.0286 111.832 98.0604 111.855 98.036C112.617 97.2009 113.437 96.3686 114.346 95.6925C114.399 95.6533 114.371 95.5524 114.298 95.5773Z" fill="#441203"/>
<path d="M85.8131 51.0302C85.8587 51.0058 85.8269 50.934 85.7781 50.9478C83.9182 51.4701 82.6055 52.5516 81.2329 53.8744C81.2209 53.8859 81.2357 53.9048 81.25 53.8975C82.8206 53.0251 84.2365 51.8883 85.8131 51.0302Z" fill="#441203"/>
<path d="M63.1378 62.1814C63.0913 62.1801 63.0481 62.1559 63.022 62.1173C62.0529 60.7072 61.3718 59.0295 60.8863 57.7261C60.6553 57.1071 60.4688 56.4522 60.3157 55.7246C60.3026 55.6644 60.3275 55.6048 60.3772 55.5721C62.5548 53.7989 65.5542 52.8266 68.8389 52.8266C73.0147 52.8266 77.0525 54.3662 79.639 56.9455C79.6829 56.9894 79.6946 57.0548 79.6685 57.1111C79.6436 57.1634 79.5919 57.1961 79.535 57.1961C79.5311 57.1961 79.5265 57.1961 79.5225 57.1955C78.9435 57.1464 78.3428 57.1222 77.7376 57.1222C75.2361 57.1222 72.4847 57.5462 69.5593 58.385C66.6174 59.2284 64.6146 60.4167 63.2575 62.1258C63.2287 62.1618 63.1869 62.182 63.1417 62.182C63.1417 62.182 63.1391 62.1814 63.1378 62.1814Z" fill="#FF7F06"/>
<path d="M60.3387 55.2181C60.3211 55.2181 60.3027 55.2135 60.2857 55.207C60.2373 55.19 60.2026 55.1461 60.1941 55.0957C59.954 53.7092 59.8722 52.311 59.8192 51.0056C59.8166 50.9356 59.863 50.8734 59.9317 50.8571C60.34 50.7596 60.7693 50.7098 61.2064 50.7098C62.7682 50.7098 64.5309 51.3511 66.17 52.5158C66.2184 52.5498 66.2413 52.6093 66.2282 52.6669C66.2152 52.7252 66.1694 52.769 66.1105 52.7801C63.9525 53.1563 61.9876 53.9893 60.4277 55.1873C60.4022 55.2076 60.3708 55.2181 60.3387 55.2181Z" fill="#FF7F06"/>
<path d="M61.3156 66.7576C61.2855 66.7576 61.2547 66.7478 61.2292 66.7294C59.8139 65.695 58.8723 63.6875 58.3312 62.1872C57.7338 60.5285 57.6167 58.7546 57.5788 57.0848C57.5539 55.9999 57.5925 54.8961 57.6298 53.8302C57.6959 51.9353 57.7633 49.975 57.4786 48.069C56.5547 41.8902 53.9133 38.0736 49.6281 36.7244C48.5642 36.3887 47.4885 36.2199 46.4311 36.2199C43.1929 36.2199 40.7824 37.7896 39.8173 40.5286C39.2716 42.078 39.4319 43.8041 40.2262 44.9256C40.8158 45.7592 41.6939 46.1996 42.765 46.1996C42.765 46.1996 42.9103 46.197 42.9122 46.197C42.9705 46.197 43.0235 46.2323 43.047 46.2866C43.0706 46.3429 43.0581 46.407 43.0143 46.4502C42.4051 47.0404 41.7246 47.34 40.9918 47.34C39.1231 47.34 37.4905 45.3725 37.0502 43.5489C36.2231 40.1282 38.6853 36.4156 41.544 34.8001C42.9567 34.0031 44.5637 33.5981 46.3199 33.5981C50.2164 33.5981 54.3615 35.6755 56.6346 38.7665C59.1386 42.1723 59.3376 46.3108 59.5299 50.3133C59.6117 52.0053 59.6955 53.7543 59.9559 55.4065C60.4911 58.8089 62.4776 63.0757 65.2388 64.6461C65.2899 64.6755 65.3187 64.7331 65.3121 64.7914C65.3056 64.8496 65.2644 64.8993 65.2081 64.9157C63.853 65.3142 62.5725 65.9259 61.4 66.7308C61.3738 66.7491 61.3443 66.7576 61.3156 66.7576Z" fill="#AC9F0C"/>
<path d="M60.4206 67.4289C60.3852 67.4289 60.3506 67.4165 60.3224 67.3916C59.4705 66.63 58.4916 66.0555 57.414 65.6839C56.651 65.4221 55.7775 65.2978 54.6658 65.2978C54.1103 65.2978 53.5555 65.3286 53.0785 65.3574C51.5519 65.447 49.9319 65.6086 48.4282 66.1674C48.4112 66.174 48.3942 66.1766 48.3765 66.1766C48.3281 66.1766 48.281 66.1523 48.2535 66.1092L48.2038 66.0346C48.1645 65.9744 48.1449 65.852 48.1959 65.8029C50.9794 63.1575 52.9568 59.4129 53.916 54.9746C54.571 51.9399 54.8726 47.5985 52.5877 44.1555C51.179 42.0322 48.5218 40.5496 46.1244 40.5496C45.1606 40.5496 44.2759 40.7819 43.4934 41.2386C42.6984 41.7025 42.135 42.6833 42.0565 43.738C41.9924 44.6063 42.2763 45.3608 42.8332 45.8083C42.8816 45.8469 42.9006 45.9117 42.8803 45.9699C42.8606 46.0275 42.807 46.0674 42.7448 46.0694L42.6323 46.072C41.4447 46.072 40.5699 45.544 40.1027 44.5474C39.2436 42.7108 39.9843 39.8239 41.1869 38.3818C42.3418 36.9979 44.0783 36.2657 46.2075 36.2657C49.2213 36.2657 52.6093 37.8197 54.2621 39.9594C57.5043 44.1568 57.6142 49.761 57.4617 54.6841C57.3793 57.3518 57.446 59.5778 58.0447 61.7619C58.4923 63.399 59.5124 65.572 61.0343 66.7596C61.071 66.7877 61.0912 66.8315 61.0912 66.878C61.0906 66.9231 61.0677 66.967 61.031 66.9938C60.855 67.124 60.6829 67.2582 60.5128 67.3962C60.486 67.4191 60.4539 67.4289 60.4206 67.4289Z" fill="#AC9F0C"/>
<path d="M48.0328 65.6872C47.9909 65.6845 47.9523 65.663 47.9275 65.6289C47.2843 64.7449 46.5115 64.0252 45.6302 63.49C45.5883 63.4644 45.5621 63.4199 45.5601 63.3709C45.5582 63.3218 45.5804 63.2754 45.619 63.2459C47.8038 61.6317 48.8128 58.7946 49.6235 56.5149C49.8708 55.8187 50.0828 55.1154 50.2536 54.4264C50.2876 54.3577 50.2954 54.3217 50.2928 54.2863C50.7809 52.1984 50.8693 50.3388 50.5676 48.5545C50.1247 45.9359 48.3456 43.7623 46.0352 43.017C45.7218 42.9163 45.424 42.8652 45.1492 42.8652C44.6081 42.8652 44.1475 43.0667 43.8164 43.4482C43.3682 43.9618 43.1752 44.7902 43.2975 45.6631C43.306 45.7187 43.2805 45.7743 43.2327 45.8064C43.2079 45.8221 43.1797 45.8299 43.1523 45.8299C43.1261 45.8299 43.0993 45.824 43.0764 45.809C41.7527 45.0107 42.1826 43.1629 42.7943 42.1173C43.4846 40.9369 44.8489 40.689 45.8723 40.689C46.558 40.689 47.3196 40.8028 48.0171 41.0076C51.1061 41.9184 53.3524 44.6319 54.0283 48.266C55.1014 54.0331 52.6281 61.3438 48.1486 65.6486C48.1205 65.6747 48.0845 65.6885 48.0465 65.6885C48.0413 65.6878 48.0374 65.6878 48.0328 65.6872Z" fill="#AC9F0C"/>
<path d="M49.9522 54.0082C49.9273 54.0082 49.9031 54.001 49.8815 53.9905C48.582 53.2701 47.0738 52.7087 45.5211 52.3684C45.4635 52.3547 45.4184 52.3096 45.4086 52.2513C45.3975 52.1931 45.423 52.1342 45.4727 52.1015C46.9574 51.1246 48.6272 50.5625 50.3016 50.4775C50.3042 50.4775 50.3068 50.4775 50.3094 50.4775C50.3474 50.4775 50.3834 50.4912 50.4102 50.5174C50.4396 50.5442 50.456 50.5828 50.4566 50.6221C50.4593 50.9381 50.4547 51.2509 50.4396 51.5578C50.403 52.2919 50.2904 53.0568 50.0968 53.8943C50.0856 53.9388 50.0555 53.9768 50.013 53.9951C49.9934 54.0043 49.9724 54.0082 49.9522 54.0082Z" fill="#FF7F06"/>
<path d="M47.0698 61.2254C47.022 61.2254 46.9769 61.2012 46.9488 61.1619C44.5631 57.7124 40.2021 55.6519 35.2842 55.6519C34.9905 55.6519 34.698 55.6597 34.4061 55.6748C34.4035 55.6748 34.4009 55.6748 34.3983 55.6748C34.3427 55.6748 34.291 55.6421 34.2668 55.5917C34.2406 55.5387 34.2491 55.4752 34.2877 55.4307C35.8136 53.6778 38.514 52.4994 41.512 52.2769C41.8104 52.254 42.1094 52.2442 42.4091 52.2442C44.8831 52.2442 47.5344 52.9849 49.8768 54.3302C49.9351 54.3629 49.9632 54.4303 49.9455 54.4951C49.6897 55.4504 49.3593 56.3893 49.0707 57.183C48.5826 58.523 48.0166 59.9331 47.1902 61.1599C47.1634 61.1999 47.1189 61.2247 47.0698 61.2254C47.0711 61.2254 47.0705 61.2254 47.0698 61.2254Z" fill="#FF7F06"/>
<path d="M25.1513 101.173C25.1225 101.173 25.0937 101.166 25.0682 101.148C21.0107 98.3736 18.2888 93.5466 16.9795 86.8033C15.9175 81.3292 16.4017 75.4999 18.3824 69.9493C20.7333 63.3571 25.1729 58.5086 30.5625 56.6471C31.5021 56.3219 32.5294 56.0968 33.6162 55.9777C33.6214 55.9771 33.6266 55.9764 33.6319 55.9764C33.6515 55.9764 33.6705 55.9803 33.6881 55.9875C33.7111 55.9973 33.7353 56.0012 33.7582 56.0012C33.7909 56.0012 33.8216 55.9921 33.8478 55.9705C33.8707 55.9541 33.8962 55.943 33.9244 55.9417C34.3765 55.9005 34.8384 55.8809 35.2971 55.8809C40.1194 55.8809 44.5367 58.0303 46.8275 61.491C46.8622 61.5433 46.8596 61.612 46.8203 61.6624C46.3283 62.2958 45.8087 62.7905 45.2323 63.1745C45.2074 63.1916 45.1793 63.1994 45.1511 63.1994C45.1282 63.1994 45.106 63.1942 45.0851 63.1843C43.8962 62.5876 42.5267 62.2853 41.0132 62.2853C38.2579 62.2853 35.0871 63.3074 32.3141 65.0884C26.2662 68.9744 23.789 75.2631 22.7761 79.8537C22.0786 83.0161 21.9471 86.005 22.3763 88.9913L22.5072 89.9106C23.0195 93.5322 23.503 96.953 24.9596 100.268C25.0368 100.444 25.1192 100.616 25.2016 100.788L25.2847 100.963C25.3135 101.023 25.2985 101.094 25.2481 101.137C25.2193 101.161 25.1859 101.173 25.1513 101.173Z" fill="#FF7F06"/>
<path d="M37.8181 110.515C35.3108 110.515 32.4521 108.99 30.6121 107.562C28.2036 105.692 26.3159 102.958 24.8391 99.2046C23.7202 96.3576 23.3099 93.4747 22.8761 90.4243L22.7767 89.7314C22.3141 86.5115 22.3481 83.7516 22.8873 80.781C23.9322 75.0184 26.5514 70.1941 30.4603 66.8303C33.4905 64.2222 37.6316 62.5366 41.0092 62.5366C43.9955 62.5366 46.3936 63.7949 47.9443 66.1753C47.9679 66.2113 47.9738 66.2551 47.962 66.2963C47.9496 66.3382 47.9208 66.3709 47.8809 66.3892C47.4405 66.5882 47.0218 66.7982 46.6023 67.0324C42.2158 69.8355 38.85 75.3024 36.605 83.2752C35.0438 88.8199 34.6277 94.7421 35.3998 100.403C35.9324 104.304 37.065 107.61 38.7675 110.228C38.795 110.269 38.7989 110.321 38.7787 110.367C38.7584 110.413 38.7165 110.445 38.6668 110.453C38.3972 110.495 38.1113 110.515 37.8181 110.515Z" fill="#FF7F06"/>
<path d="M49.3727 115.839C48.5325 115.839 47.6577 115.758 46.7731 115.599C36.5703 113.765 35.4331 100.001 35.3271 95.8263C35.2074 91.091 35.9068 86.3191 37.4039 81.6407C38.9442 76.8321 41.816 70.4388 46.7489 67.2883C48.7478 66.1648 51.403 65.498 53.86 65.498C55.7281 65.498 57.4254 65.8769 58.7654 66.594C59.2692 66.8636 59.7462 67.1999 60.2226 67.6226C60.2402 67.6383 60.2546 67.6599 60.2631 67.6822C60.2802 67.728 60.3227 67.7672 60.3757 67.7849C60.3953 67.7914 60.4143 67.8026 60.4293 67.817C62.9858 70.2432 64.1596 74.2607 65.0606 77.8365C66.3817 83.0848 66.593 88.8585 65.6894 94.9979C64.2047 105.073 59.139 115.839 49.3727 115.839Z" fill="#FF7F06"/>
<path d="M62.5426 115.345C60.492 115.345 58.6691 114.828 57.1242 113.813C57.0837 113.785 57.0588 113.741 57.0582 113.692C57.0568 113.643 57.0804 113.597 57.1197 113.569C63.7158 108.874 65.8064 98.8524 66.3998 91.2728C66.9259 84.5536 65.9019 77.911 63.4391 72.064C62.6899 70.283 61.8039 68.888 60.7302 67.8018C60.7007 67.7717 60.6857 67.7318 60.6877 67.6912C60.6903 67.6493 60.7099 67.6107 60.742 67.5846C63.0268 65.7322 65.7691 64.7527 68.6723 64.7527C73.4652 64.7527 78.3052 67.3955 81.3032 71.6492C84.6062 76.3354 86.0745 83.5146 85.3293 91.3474C84.7011 97.9502 81.3595 104.5 76.161 109.314C73.1576 112.096 67.7883 115.345 62.5426 115.345Z" fill="#FF7F06"/>
<path d="M78.1596 108.12C78.1033 108.12 78.0509 108.086 78.0274 108.034C78.0019 107.981 78.0117 107.917 78.0523 107.874C80.9038 104.779 83.1337 100.915 84.5006 96.6992C86.3137 91.1054 86.2829 84.165 84.4161 77.6559C82.4748 70.8916 77.6943 66.0418 71.6262 64.6854C70.7298 64.4832 69.8072 64.3824 68.884 64.3824C67.9424 64.3824 66.991 64.4884 66.0586 64.6965C66.0481 64.6991 66.037 64.7004 66.0265 64.7004C66.0082 64.7004 65.9899 64.6965 65.9722 64.6893C65.0359 64.3189 64.1624 63.6162 63.3779 62.6046C63.3321 62.5464 63.3373 62.462 63.3896 62.4096C65.4017 59.7237 68.7596 58.7873 72.3152 57.9937C74.3377 57.5422 76.1672 57.3223 77.909 57.3223C80.555 57.3223 82.8935 57.8275 85.0587 58.8665C90.3384 61.4 94.1125 66.9761 95.4152 74.1625C96.6224 80.8228 95.4924 88.4927 92.2346 95.7635C88.6437 103.776 84.0425 107.817 78.1681 108.12C78.1641 108.12 78.1622 108.12 78.1596 108.12Z" fill="#FF7F06"/>
<path d="M88.2373 79.7333C86.6244 69.7883 73.9208 57.3497 63.9536 63.2733C64.5831 63.9309 65.259 64.4066 65.9709 64.6892C65.9885 64.6964 66.0069 64.7003 66.0252 64.7003C66.0357 64.7003 66.0468 64.699 66.0572 64.6964C66.9903 64.4883 67.941 64.3824 68.8826 64.3824C69.8058 64.3824 70.7284 64.4831 71.6248 64.6853C77.6923 66.0417 82.4734 70.8915 84.4148 77.6558C86.2815 84.165 86.3123 91.106 84.4992 96.6991C83.1323 100.915 80.9024 104.779 78.0509 107.874C78.0103 107.917 78.0005 107.981 78.026 108.034C78.0496 108.086 78.1019 108.12 78.1582 108.12C78.1608 108.12 78.1634 108.12 78.166 108.12C82.2215 107.911 86.5446 100.761 87.9003 94.0602C88.8654 89.2903 88.9728 84.2697 88.2373 79.7333Z" fill="#CD6B06"/>
<path d="M61.6974 107.463C58.7046 111.012 54.8755 113.73 50.345 113.965C44.1388 114.286 41.0943 107.964 40.0716 102.843C38.9259 97.1094 38.9717 91 40.2947 85.2983C41.2147 81.3325 42.9034 77.2135 45.0876 73.779C46.2143 72.0071 47.5884 70.3792 48.9762 68.8081C49.8804 67.7848 50.8246 66.6908 51.7963 65.6517C49.9864 65.9069 48.1956 66.4762 46.7489 67.2895C41.816 70.44 38.9442 76.8334 37.4039 81.6419C35.9062 86.3197 35.2074 91.0916 35.3271 95.8275C35.4325 100.002 36.5697 113.766 46.7731 115.6C47.6584 115.759 48.5325 115.84 49.3727 115.84C54.9403 115.839 58.9781 112.337 61.6974 107.463Z" fill="#CD6B06"/>
<path d="M46.1526 60.153C46.2272 60.2374 46.3024 60.3231 46.3737 60.4094C46.3227 60.3048 46.2475 60.2177 46.1526 60.153Z" fill="#CD6B06"/>
<path d="M29.0625 106.154C28.5927 105.405 28.1557 104.612 27.7611 103.761C25.295 98.4449 25.0365 92.3107 25.5508 86.5717C26.0579 80.9072 27.7336 74.6068 31.4992 70.2236C33.4236 67.9838 35.5102 66.1785 38.0201 64.6232C39.4361 63.7451 40.9868 63.1929 42.548 62.6714C42.0534 62.5916 41.5443 62.5366 41.0097 62.5366C37.6321 62.5366 33.4916 64.2215 30.4608 66.8303C26.5513 70.1948 23.9327 75.019 22.8877 80.781C22.3486 83.7516 22.3146 86.5115 22.7772 89.7314L22.8766 90.4243C23.3098 93.4747 23.72 96.3576 24.8396 99.2046C25.982 102.11 27.3757 104.399 29.0625 106.154Z" fill="#CD6B06"/>
<path d="M61.0096 68.1028C61.9577 69.1432 62.7566 70.442 63.4391 72.0648C65.9019 77.9117 66.9259 84.555 66.3998 91.2736C65.807 98.8532 63.7158 108.875 57.1197 113.57C57.0804 113.598 57.0568 113.643 57.0582 113.693C57.0588 113.742 57.0758 113.816 57.1242 113.813C60.844 113.599 66.8533 104.525 68.6442 96.7718C70.0568 90.6598 70.2629 84.1323 68.279 78.1335C67.3381 75.2827 64.5926 69.5129 61.0096 68.1028Z" fill="#CD6B06"/>
<path d="M69.5595 58.3843C72.4849 57.5461 75.2363 57.1214 77.7378 57.1214C77.7882 57.1214 77.8379 57.1247 77.8883 57.1247C75.5203 56.2931 72.9763 55.8861 70.6123 55.8422C67.3132 55.7794 63.9722 57.018 61.4224 59.087C61.8431 60.0861 62.3646 61.1618 63.0209 62.1171C63.047 62.1558 63.0902 62.18 63.1367 62.1813C63.138 62.1813 63.1399 62.1813 63.1413 62.1813C63.1864 62.1813 63.2283 62.161 63.2571 62.125C64.6148 60.4159 66.6176 59.2277 69.5595 58.3843Z" fill="#CD6B06"/>
<path d="M45.3307 55.998C42.5132 54.5971 38.6076 54.2418 35.6782 55.6624C40.4331 55.769 44.6267 57.804 46.9482 61.1619C46.9763 61.2012 47.0208 61.2254 47.0692 61.2254H47.0699C47.119 61.2247 47.1641 61.1999 47.1909 61.16C47.7818 60.2825 48.2365 59.3122 48.6272 58.3398C47.6483 57.3983 46.5386 56.5987 45.3307 55.998Z" fill="#CD6B06"/>
<path d="M26.1989 63.5226C30.7209 59.1119 37.1758 57.8432 43.1026 59.9089C44.4354 60.3728 45.5432 61.1193 46.5489 61.9896C46.6405 61.8842 46.7314 61.7789 46.8204 61.6638C46.8597 61.6134 46.8616 61.5446 46.8276 61.4923C44.5375 58.0316 40.1196 55.8822 35.2972 55.8822C34.8386 55.8822 34.3766 55.9018 33.9245 55.943C33.8963 55.9444 33.8702 55.9555 33.8479 55.9718C33.8217 55.9934 33.7916 56.0026 33.7583 56.0026C33.7354 56.0026 33.7112 55.998 33.6883 55.9889C33.6706 55.9817 33.6516 55.9777 33.632 55.9777C33.6268 55.9777 33.6215 55.9784 33.6163 55.979C32.5295 56.0981 31.5022 56.3226 30.5626 56.6484C25.173 58.5099 20.7334 63.3584 18.3825 69.9507C16.886 74.1435 16.2448 78.4954 16.4777 82.7334C16.8108 80.7855 17.2858 78.8847 17.9015 76.9793C19.5668 71.8299 22.3215 67.3039 26.1989 63.5226Z" fill="#CD6B06"/>
<path d="M43.0474 46.2873C43.0238 46.233 42.9708 46.1976 42.9126 46.1976C42.9106 46.1976 42.7654 46.2002 42.7654 46.2002C41.6943 46.2002 40.8162 45.7599 40.2266 44.9263C39.4323 43.8048 39.272 42.0787 39.8177 40.5293C40.7828 37.7903 43.194 36.2206 46.4315 36.2206C47.4889 36.2206 48.5646 36.3894 49.6285 36.7251C53.9136 38.0736 56.5551 41.8909 57.479 48.0696C57.7636 49.9757 57.6963 51.9353 57.6302 53.8309C57.5935 54.8968 57.5549 56 57.5791 57.0855C57.6171 58.7553 57.7342 60.5291 58.3316 62.1878C58.8727 63.6882 59.8149 65.6956 61.2296 66.7301C61.2551 66.7484 61.2858 66.7582 61.3159 66.7582C61.3447 66.7582 61.3735 66.7497 61.399 66.7334C61.6837 66.5371 61.9755 66.3552 62.2712 66.1824C59.6808 63.9538 58.8688 60.6587 58.7549 57.3544C58.5619 51.7273 59.0494 45.6447 55.9937 40.6353C53.1101 35.9078 46.6684 34.1058 41.8467 36.8108C39.6691 38.0317 38.5562 40.5443 38.7152 42.9633C38.8552 45.0912 40.6709 47.1582 42.8491 46.5863C42.9028 46.5385 42.9597 46.5019 43.0127 46.4509C43.0579 46.407 43.0709 46.3435 43.0474 46.2873Z" fill="#8C7F03"/>
<path d="M54.9098 45.9091C53.6306 41.7967 48.4151 37.3578 43.9461 39.8207C42.1349 40.8192 41.0193 42.222 41.1443 44.3675C41.1776 44.9453 41.3648 45.4845 41.6658 45.9294C41.9602 46.0203 42.2802 46.0727 42.6329 46.0727L42.7454 46.0701C42.8076 46.0681 42.8612 46.0282 42.8808 45.9706C42.9005 45.9124 42.8815 45.8469 42.8337 45.809C42.2769 45.3614 41.9929 44.607 42.0571 43.7387C42.1356 42.684 42.6983 41.7032 43.4939 41.2392C44.2758 40.7832 45.1611 40.5503 46.1249 40.5503C48.5224 40.5503 51.1802 42.0329 52.5883 44.1562C54.8738 47.5999 54.5715 51.9406 53.9166 54.9753C52.9573 59.4136 50.98 63.1582 48.1965 65.8036C48.1455 65.8521 48.1651 65.9751 48.2044 66.0353L48.2541 66.1099C48.2816 66.153 48.3287 66.1772 48.3771 66.1772C48.3941 66.1772 48.4118 66.1746 48.4288 66.1681C48.9961 65.9567 49.5797 65.803 50.1693 65.6878C54.4466 59.8042 57.0566 52.8096 54.9098 45.9091Z" fill="#8C7F03"/>
<path d="M51.7963 49.3122C51.3893 46.3062 49.8091 42.1153 46.3982 41.5736C44.4352 41.2615 42.7569 42.5897 42.2131 44.2432C42.238 44.8654 42.4749 45.4452 43.0762 45.8083C43.0997 45.824 43.1259 45.8293 43.1521 45.8293C43.1796 45.8293 43.2077 45.8214 43.2326 45.8057C43.2803 45.7736 43.3052 45.718 43.2973 45.6624C43.1743 44.7895 43.368 43.9612 43.8162 43.4475C44.1473 43.0661 44.6079 42.8645 45.1491 42.8645C45.4239 42.8645 45.7222 42.9156 46.0357 43.0163C48.3461 43.7616 50.1251 45.9353 50.5681 48.5538C50.8704 50.3382 50.7814 52.1977 50.294 54.2857C50.2972 54.321 50.2887 54.3563 50.2547 54.4257C50.0839 55.1153 49.8719 55.8181 49.6246 56.5142C48.8139 58.7939 47.8049 61.631 45.6195 63.2452C45.5803 63.2747 45.558 63.3211 45.5606 63.3702C45.5626 63.4186 45.5894 63.4638 45.6306 63.4893C46.018 63.7242 46.3805 64.0016 46.724 64.3065C50.326 60.0908 52.5285 54.7227 51.7963 49.3122Z" fill="#8C7F03"/>
<path d="M31.2128 93.5388C32.0726 89.4258 32.4495 85.2682 33.8262 81.2723C34.6192 78.9684 35.6007 76.804 36.5998 74.5845C37.3771 72.8584 38.3023 71.4811 38.462 69.5633C38.5078 69.0104 37.8757 68.5713 37.3699 68.731C33.3236 70.0056 30.7149 75.3272 29.2963 79.0044C27.4799 83.7136 26.8243 89.1974 29.2178 93.7992C29.6425 94.6178 31.0218 94.4548 31.2128 93.5388Z" fill="#FF9408"/>
<path d="M54.1444 106.076C56.5686 103.713 58.3183 101.635 59.8487 98.5757C61.5545 95.1654 62.0845 91.4208 62.5655 87.6846C63.0287 84.0937 62.854 80.4708 61.8156 76.9944C61.336 75.3913 60.7183 73.7758 59.6636 72.4665C58.4884 71.0074 57.7307 70.601 56.0465 70.056C55.5695 69.9029 55.0631 70.2314 54.9289 70.6907C54.3008 72.8401 54.2105 74.7946 54.3381 77.1658C54.5095 80.3406 54.2066 83.6272 53.9088 86.7856C53.6007 90.0631 52.6473 93.2489 52.294 96.5277C51.974 99.4983 52.0094 102.221 52.0074 105.189C52.0054 106.293 53.3664 106.833 54.1444 106.076Z" fill="#FF9408"/>
<path d="M89.7633 71.7762C90.4124 72.2617 91.1805 71.5858 91.2342 70.9328C91.4835 67.8967 89.7613 65.8507 87.8324 63.6712C86.8594 62.5713 85.6568 61.686 84.4594 60.8458C83.2103 59.9684 81.9141 59.9605 80.4687 59.7871C79.7745 59.704 79.4833 60.6718 79.9237 61.103C80.7671 61.9307 81.3089 62.9691 82.2216 63.7464C83.2155 64.5937 84.0694 65.5942 84.958 66.5456C85.8642 67.5153 86.5552 68.6243 87.3639 69.666C88.0647 70.5677 88.8603 71.1016 89.7633 71.7762Z" fill="#FF9408"/>
<path d="M92.838 77.5087C93.9733 76.8269 93.6448 75.4698 93.2057 74.4726C92.8491 73.6613 92.3191 73.2059 91.4319 73.1221C91.0851 73.0888 90.8188 73.3793 90.7108 73.6704C90.7095 73.6737 90.7082 73.6783 90.7069 73.6816C90.7082 73.6744 90.6735 73.7562 90.597 73.9439C90.5329 74.1193 90.4537 74.3365 90.4746 74.5211C90.5126 74.8463 90.6081 75.2683 90.6388 75.5346C90.6918 76.0103 90.7403 76.5396 90.9896 76.9649C91.3468 77.5774 92.204 77.8901 92.838 77.5087Z" fill="#FF9408"/>
<path d="M80.7721 84.5099C80.4593 79.3002 78.8824 72.9769 74.0064 70.2674C73.5222 69.9985 72.8116 70.3295 72.847 70.9328C73.1152 75.5549 75.0841 79.8368 75.2804 84.5099C75.3857 87.0245 75.1449 89.6149 74.8466 92.1085C74.5345 94.716 74.7046 97.2959 74.5515 99.9047C74.4893 100.965 75.9465 101.24 76.4581 100.42C79.6277 95.3474 81.1352 90.5676 80.7721 84.5099Z" fill="#FF9408"/>
<path d="M32.0523 100.047C32.299 99.3105 32.0818 98.4553 31.82 97.7401C31.6826 97.3665 31.4373 96.9255 31.1474 96.6402C31.0349 96.5296 30.4623 96.0127 30.7097 96.3379C30.3046 95.8059 29.6183 95.7654 29.2204 96.3379C29.0706 96.5519 28.8416 96.7063 28.7035 96.9543C28.5327 97.2625 28.3574 97.8546 28.3862 98.2053C28.4621 99.1318 28.6315 100.083 29.2878 100.777C30.1849 101.725 31.6728 101.183 32.0523 100.047Z" fill="#FF9408"/>
<path d="M89.5174 61.4616C86.8386 58.8796 83.7215 57.5815 80.4302 57.145C80.4172 57.1162 80.4047 57.0875 80.3799 57.0606C77.2378 53.56 71.8292 51.9268 66.9081 52.521C64.9864 51.0304 62.4051 49.8716 59.9429 50.4029C59.9063 49.3783 59.8768 48.3549 59.8068 47.3512C59.4077 41.6416 56.9049 36.4012 51.3622 34.1804C46.0419 32.0487 39.2514 33.5687 37.0791 39.3391C36.1146 41.9007 36.2592 45.0474 38.497 46.9017C40.1714 48.2888 42.4373 47.9715 43.7394 46.3017C43.7453 46.2932 43.7466 46.2847 43.7525 46.2768C43.8107 46.2127 43.8441 46.1257 43.8146 46.017C43.4521 44.6731 43.6844 43.3357 45.3359 43.3402C46.6112 43.3442 47.8073 44.3754 48.6082 45.2659C49.7702 46.5588 50.2021 48.3137 50.2911 50.0372C48.3111 50.1399 46.3835 50.8616 44.7909 52.0374C44.7771 52.0479 44.7706 52.061 44.7595 52.0728C40.6144 51.3648 36.1192 52.1722 33.6066 55.5864C33.0177 55.6434 32.4341 55.7225 31.8609 55.8377C25.6979 57.0868 21.2001 62.4365 18.7353 67.9066C16.2672 73.3839 15.4886 79.5862 16.3222 85.5149C17.1486 91.392 19.5257 97.5792 24.4076 101.24C24.8087 101.542 25.2379 101.802 25.6711 102.056C27.0078 104.567 28.7568 106.774 31.1078 108.476C33.1205 109.933 36.4555 111.353 39.0041 110.84C39.6892 111.809 40.477 112.704 41.3871 113.489C44.923 116.541 50.0732 116.954 54.3217 115.267C55.1657 114.933 55.9522 114.523 56.687 114.048C61.7128 117.576 69.0333 114.954 73.6011 111.898C75.0452 110.933 76.3735 109.809 77.5879 108.569C77.6082 108.572 77.6252 108.581 77.6481 108.58C84.2953 108.487 88.4358 103.967 91.3933 98.4606C94.7873 92.1392 96.6017 84.9215 96.2562 77.7377C95.967 71.7474 93.9 65.6871 89.5174 61.4616ZM79.5351 57.0488C76.2609 56.7708 72.8402 57.2922 69.5182 58.2436C67.0913 58.9392 64.7364 60.0286 63.1412 62.0341C62.2003 60.6646 61.527 59.0288 61.0225 57.6757C60.7817 57.0279 60.5998 56.3657 60.4579 55.6944C60.467 55.6885 60.4755 55.6872 60.4847 55.6807C65.6636 51.4472 74.8587 52.3855 79.5351 57.0488ZM66.0856 52.6361C63.9689 53.0051 61.9818 53.8087 60.3381 55.0715C60.1071 53.7354 60.0214 52.3685 59.9652 51.001C62.0825 50.4965 64.3419 51.3968 66.0856 52.6361ZM37.1929 43.5149C36.3881 40.1851 38.8176 36.5098 41.6155 34.929C46.5215 32.1586 53.369 34.575 56.5156 38.8542C60.0528 43.6654 58.9385 49.8893 59.8101 55.4307C60.3047 58.5767 62.1702 63.0712 65.1657 64.7757C63.8034 65.1774 62.5033 65.7957 61.3157 66.611C59.9534 65.6138 59.0144 63.6483 58.4694 62.1362C57.8884 60.5259 57.7634 58.7782 57.7248 57.0796C57.6561 54.0717 58.0703 51.0409 57.6227 48.0467C56.8807 43.0824 54.764 38.1875 49.6708 36.5831C45.7213 35.3399 41.164 36.2612 39.6774 40.4789C38.7155 43.21 39.8658 46.4515 42.911 46.3442C40.6726 48.5178 37.8257 46.1355 37.1929 43.5149ZM57.9028 61.8024C58.3791 63.5469 59.4463 65.7094 60.9434 66.8767C60.766 67.0075 60.592 67.1436 60.4199 67.283C59.5883 66.5397 58.6146 65.9436 57.4617 65.5458C56.0667 65.0655 54.5173 65.1257 53.07 65.2115C51.4787 65.3057 49.8762 65.4719 48.3765 66.03C48.351 65.9901 48.3235 65.9502 48.2974 65.9096C51.3413 63.0162 53.1805 59.0739 54.0593 55.0054C54.8412 51.3857 54.8203 47.2544 52.7101 44.075C50.8374 41.2523 46.5484 39.2848 43.4194 41.1116C41.819 42.0467 41.3112 44.7765 42.7416 45.9235C38.9216 46.0269 39.4484 40.6974 41.2994 38.476C44.4578 34.6915 51.5205 36.6498 54.1457 40.049C57.3498 44.198 57.4683 49.7008 57.3145 54.6789C57.2406 57.0822 57.2654 59.4685 57.9028 61.8024ZM46.0792 42.8776C43.9246 42.1834 42.8966 43.8774 43.1512 45.682C41.9701 44.9708 42.2829 43.2787 42.9195 42.1906C43.8971 40.5195 46.4188 40.6889 47.9741 41.1489C51.2994 42.1278 53.2761 45.031 53.8826 48.2921C54.9871 54.234 52.36 61.3955 48.0448 65.5419C47.3643 64.6075 46.5739 63.8917 45.705 63.363C47.8622 61.7697 48.8915 59.0066 49.7604 56.5633C50.0064 55.8691 50.2197 55.1677 50.3945 54.461C50.4285 54.4041 50.4429 54.338 50.4376 54.2732C50.8832 52.396 51.0403 50.4788 50.7105 48.529C50.2813 45.9824 48.5774 43.6818 46.0792 42.8776ZM50.3087 50.6241C50.312 50.9375 50.3068 51.247 50.2917 51.5506C50.2525 52.3371 50.1275 53.1059 49.9521 53.8617C48.6527 53.1413 47.1412 52.5733 45.5525 52.2246C46.9704 51.2921 48.6101 50.7111 50.3087 50.6241ZM41.5232 52.4228C44.3688 52.2134 47.344 53.0438 49.8049 54.4564C49.5622 55.3607 49.2553 56.2499 48.934 57.1326C48.4564 58.4458 47.8858 59.867 47.0692 61.0781C44.2694 57.0292 39.2181 55.2835 34.3984 55.5275C36.1048 53.5666 39.0277 52.6086 41.5232 52.4228ZM17.1237 86.7758C16.0356 81.1663 16.6062 75.3665 18.52 69.9991C20.5726 64.2437 24.6706 58.8364 30.6105 56.7858C31.5724 56.4528 32.5911 56.2381 33.6322 56.123C33.7296 56.1642 33.8441 56.1603 33.9371 56.0877C38.7666 55.6584 44.0351 57.5389 46.7048 61.5728C46.2605 62.144 45.7521 62.6518 45.1508 63.0535C41.2334 61.0879 35.9877 62.5543 32.2339 64.9654C26.9974 68.3306 23.9469 73.8635 22.6318 79.823C21.9565 82.882 21.7851 85.9141 22.23 89.0129C22.7862 92.8838 23.2337 96.7064 24.8237 100.329C24.9278 100.565 25.0416 100.795 25.1509 101.026C20.4725 97.8266 18.1752 92.1909 17.1237 86.7758ZM30.7021 107.445C27.9959 105.345 26.2102 102.291 24.9749 99.1496C23.7755 96.0998 23.3836 92.9264 22.9223 89.7091C22.4832 86.6541 22.478 83.8569 23.0316 80.8071C23.9993 75.4718 26.4111 70.5094 30.5562 66.9408C35.1482 62.9887 43.7944 60.0731 47.821 66.2544L47.8204 66.2551C47.3774 66.454 46.9541 66.6673 46.5307 66.9055C41.1385 70.3498 38.1397 77.283 36.4634 83.2359C34.9015 88.7832 34.4756 94.714 35.2535 100.422C35.7194 103.831 36.7388 107.378 38.6449 110.307C35.9831 110.719 32.6768 108.978 30.7021 107.445ZM46.799 115.455C38.0841 113.887 35.6618 103.257 35.4734 95.823C35.353 91.0446 36.0871 86.2327 37.5437 81.6859C39.2154 76.465 42.0748 70.4479 46.8278 67.4119C50.1007 65.5739 55.2724 64.8915 58.6964 66.7229C59.216 67.0017 59.6877 67.3452 60.1248 67.7325C60.1569 67.8202 60.2328 67.8909 60.3276 67.9236C62.9325 70.3956 64.1018 74.6304 64.9177 77.8718C66.3199 83.4394 66.3775 89.3172 65.5432 94.9764C64.1292 104.577 58.8155 117.614 46.799 115.455ZM76.0614 109.206C71.5996 113.338 63.0182 117.514 57.2052 113.691C63.8381 108.968 65.9587 98.7923 66.5463 91.2854C67.058 84.7481 66.1229 78.0583 63.5744 72.0072C62.886 70.3734 62.0073 68.8867 60.8341 67.6998C67.4263 62.3547 76.5757 65.1977 81.1834 71.7337C85.0236 77.1815 85.7983 84.8613 85.1826 91.3338C84.538 98.1125 81.0204 104.614 76.0614 109.206ZM92.0993 95.7026C89.3826 101.764 85.2702 107.607 78.1591 107.972C81.1094 104.771 83.3079 100.85 84.6395 96.745C86.5972 90.7056 86.2936 83.6717 84.5564 77.6147C82.7609 71.3542 78.1827 65.9999 71.6585 64.5401C69.7701 64.1181 67.8549 64.1436 66.0268 64.5532C65.025 64.156 64.1921 63.4147 63.4939 62.515L63.4959 62.513C65.5589 59.759 69.1537 58.8502 72.3468 58.137C76.6123 57.1862 80.9786 57.0717 84.9954 59C90.8974 61.8326 94.1467 67.9884 95.2708 74.1887C96.5808 81.4268 95.0752 89.062 92.0993 95.7026Z" fill="#441203"/>
</svg>
