<svg width="138" height="138" viewBox="0 0 138 138" fill="none" xmlns="http://www.w3.org/2000/svg">
<path d="M35.0036 85.6805C34.9938 86.2986 35.0036 86.9217 35.0376 87.535C35.1644 90.0198 35.6363 92.3221 36.5685 93.3221C37.2986 94.1061 40.6036 94.6096 44.9649 94.9138C44.9673 94.9138 44.9673 94.9138 44.97 94.9138C44.9746 94.9114 44.977 94.9114 44.9821 94.9138C45.133 94.9236 45.2837 94.936 45.4372 94.9457H45.4397C45.4443 94.943 45.447 94.943 45.4518 94.9457C46.3377 95.0039 47.2625 95.055 48.2166 95.0964C48.5013 95.1088 48.7907 95.1209 49.083 95.1328C49.302 95.1426 49.521 95.1499 49.7401 95.1572C49.9129 95.1645 50.0857 95.1696 50.2585 95.1767C50.3071 95.1793 50.3582 95.1793 50.4069 95.1818C50.7038 95.1915 51.0029 95.2012 51.3025 95.2083C51.4534 95.2134 51.6043 95.218 51.7552 95.2207C51.9621 95.2253 52.1687 95.2304 52.3783 95.2353C52.4732 95.2377 52.5681 95.2404 52.663 95.2426C52.8139 95.245 52.9672 95.2499 53.1181 95.2524C53.1716 95.2548 53.2276 95.2548 53.2812 95.2548C53.4661 95.2599 53.6511 95.2621 53.8361 95.2645C54.021 95.2691 54.2057 95.2691 54.3909 95.2718C54.5759 95.2767 54.7631 95.2789 54.9507 95.2816C54.9675 95.284 54.9848 95.284 54.9994 95.2816C55.0042 95.284 55.0064 95.2816 55.0116 95.2816C62.9161 95.3787 70.8454 95.1255 73.1575 94.8116C75.4333 94.5028 79.8965 94.4297 84.9075 94.466H85.1947C85.4795 94.4687 85.7691 94.4709 86.0587 94.4733C86.4846 94.4779 86.9132 94.4831 87.3437 94.4879C87.8183 94.4952 88.2929 94.5028 88.7699 94.5074C89.006 94.5125 89.2418 94.5147 89.4781 94.5198C89.546 94.5222 89.612 94.5222 89.6774 94.5222C89.8259 94.5271 89.9719 94.5295 90.1179 94.532C90.1347 94.532 90.152 94.5344 90.169 94.532C90.8821 94.5441 91.5928 94.5585 92.301 94.5733C92.3669 94.5758 92.4324 94.5758 92.4981 94.5758C92.7585 94.5809 93.0192 94.5879 93.2796 94.5928C93.3061 94.5952 93.3331 94.5952 93.3597 94.5952C93.5592 94.5999 93.7566 94.605 93.9535 94.6074C94.1044 94.6125 94.2553 94.6147 94.4086 94.6196C94.4232 94.6222 94.4378 94.6222 94.4546 94.6196C94.7201 94.6269 94.9854 94.6344 95.2482 94.639C95.3648 94.6417 95.4843 94.6442 95.6009 94.6464C95.8905 94.6537 96.1804 94.6607 96.4675 94.6683L96.5308 94.6707C96.8642 94.6804 97.1952 94.6877 97.5192 94.6953C97.8453 94.705 98.169 94.7123 98.4854 94.7218H98.5267C98.9745 94.7342 99.415 94.7464 99.8458 94.7561C100.026 94.7607 100.199 94.7658 100.372 94.7707C100.432 94.7734 100.491 94.7756 100.552 94.7756C100.61 94.778 100.666 94.778 100.724 94.7804C100.895 94.7853 101.065 94.7877 101.235 94.7926C101.347 94.7977 101.457 94.7999 101.566 94.8024C110.396 95.0433 117.004 93.6904 117.763 91.0425C118.048 90.0422 117.897 88.9032 117.595 87.8735C117.213 86.5666 116.595 85.4325 116.33 84.9776C116.298 84.9238 116.274 84.8825 116.254 84.8486C116.22 84.7951 116.201 84.7659 116.201 84.7659C114.046 78.9295 105.855 77.9441 99.9261 76.7272C97.974 76.3257 95.4043 75.1015 92.6614 73.4758C91.1985 72.6072 89.685 71.6261 88.1907 70.5918C87.4216 70.0612 86.655 69.5161 85.9051 68.9661C84.4741 67.9193 83.0942 66.8558 81.8313 65.8339C81.0914 65.2376 80.3903 64.6559 79.7405 64.0986C78.8984 63.3831 78.1464 62.7089 77.5087 62.1076C77.3703 61.9788 77.2337 61.8423 77.1023 61.7062C77.0975 61.7011 77.0901 61.6989 77.0855 61.6938C77.0317 61.6454 76.976 61.5967 76.9176 61.5478C76.6669 61.3288 76.3943 61.0976 76.0999 60.8542C75.1848 60.0973 74.085 59.2309 72.9336 58.2988C71.7021 57.3007 70.4122 56.2274 69.2246 55.1298C66.8395 52.9297 64.8755 50.6347 64.6567 48.6877C63.6808 39.9871 59.5629 40.9044 58.9374 41.0969C58.8985 41.1093 58.8715 41.1188 58.862 41.1215C58.8595 41.1239 58.8571 41.1239 58.8571 41.1239C58.969 42.3432 52.9066 42.6936 47.6789 43.1731C44.5175 43.4627 41.6625 43.7959 40.6574 44.3973C38.652 45.5971 38.5571 52.2558 38.5473 57.6003C38.5449 58.3231 38.5449 59.0216 38.5425 59.6811C38.569 59.686 38.5982 59.6909 38.6252 59.6933C38.944 59.7444 39.2482 59.7906 39.5403 59.8369C41.4118 60.134 43.5535 60.4843 45.6149 60.8447C48.713 61.3872 51.6238 61.9593 53.1449 62.412C55.554 63.1324 56.143 71.0615 56.2065 77.7421C56.2089 77.8054 56.2089 77.8684 56.2089 77.9319C56.226 79.8741 56.1968 81.7015 56.1578 83.2083C56.1359 83.9992 56.1116 84.7002 56.0897 85.2843C55.7052 85.2015 55.3255 85.1185 54.9507 85.0336C54.8169 85.0044 54.6854 84.9727 54.554 84.9435C54.4007 84.9073 54.2498 84.873 54.1013 84.8367C53.8409 84.7732 53.5805 84.7123 53.325 84.6469C52.4247 84.423 51.5581 84.1893 50.7282 83.953C50.1248 83.7802 49.5429 83.605 48.9786 83.43C48.8931 83.4032 48.8106 83.3765 48.7279 83.3497C48.4699 83.2694 48.2192 83.1891 47.971 83.1063C47.9518 83.1012 47.9323 83.0941 47.9153 83.0893C47.6889 83.0138 47.4699 82.9411 47.2506 82.8654C47.1827 82.841 47.1143 82.8194 47.0462 82.7948C46.4767 82.6001 45.9315 82.4054 45.4107 82.2109C45.1746 82.1233 44.9434 82.0355 44.7171 81.9481C44.5686 81.8921 44.4226 81.8335 44.2788 81.7777C44.06 81.6925 43.8482 81.6074 43.6411 81.5222C43.0354 81.2788 42.4683 81.0379 41.9448 80.8067C41.7696 80.7288 41.5992 80.6534 41.4337 80.5782C41.407 80.5657 41.3826 80.556 41.358 80.5438C41.195 80.4708 41.037 80.3978 40.8837 80.325C40.7691 80.2712 40.6571 80.218 40.5476 80.1668C40.4868 80.1401 40.4286 80.1111 40.3702 80.0817C40.2945 80.0452 40.2217 80.0111 40.1512 79.9768C38.7834 79.3102 37.8561 78.7818 37.3913 78.5068C37.3648 78.49 37.3402 78.4752 37.3159 78.4608C37.1966 78.3878 37.1139 78.3367 37.0749 78.3123C37.0606 78.3026 37.0506 78.2977 37.0481 78.2929C37.0457 78.2929 37.0457 78.2929 37.0457 78.2929C37.0433 78.2904 37.0433 78.2904 37.0433 78.2904C37.0262 78.3221 37.009 78.3537 36.9922 78.3829C36.8802 78.5776 36.7561 78.7212 36.6222 78.8064C36.6152 78.8088 36.6076 78.8137 36.6003 78.8186C36.5711 78.8356 36.5446 78.8551 36.5176 78.877C36.4908 78.8989 36.4641 78.9208 36.4397 78.9475C36.4105 78.9741 36.3815 79.006 36.3545 79.04C36.3253 79.0741 36.2983 79.1106 36.2718 79.152C36.2572 79.1714 36.2426 79.1909 36.2328 79.2104C36.218 79.2298 36.2061 79.2518 36.1939 79.2712C36.1136 79.4051 36.0357 79.5633 35.9627 79.7431C35.9481 79.7774 35.9335 79.8113 35.9213 79.848C35.8948 79.9186 35.8678 79.9916 35.841 80.0668C35.8191 80.1328 35.7972 80.1958 35.7777 80.2642C35.7558 80.3297 35.7364 80.4005 35.7169 80.4711C35.6414 80.7363 35.5733 81.0238 35.51 81.3326C35.4879 81.4348 35.4687 81.5419 35.4492 81.649C35.4149 81.8413 35.381 82.0408 35.3518 82.2428C35.3397 82.328 35.3275 82.4107 35.3153 82.4984C35.3032 82.586 35.2934 82.6712 35.2813 82.7588C35.2691 82.8512 35.2594 82.9437 35.2496 83.0362C35.2399 83.1287 35.2301 83.2234 35.2204 83.3161C35.2009 83.5057 35.1839 83.6979 35.1693 83.8926C35.1547 84.0849 35.1425 84.2823 35.1304 84.4819C35.1257 84.579 35.1206 84.679 35.1158 84.7788C35.1133 84.8493 35.1085 84.9224 35.106 84.9929C35.0987 85.222 35.0912 85.4554 35.089 85.6866L35.0036 85.6805Z" fill="#FF0F5C"/>
<path d="M56.2077 77.7365C56.2077 77.7365 61.5198 79.2958 76.2212 82.7344C88.1295 85.5196 101.783 86.3887 102.029 88.7876C102.029 88.7876 83.3036 95.3665 70.7614 92.7405C58.2194 90.1147 50.9656 89.1775 56.2077 77.7365Z" fill="#00CC00" stroke="#201600" stroke-width="0.343069" stroke-miterlimit="10"/>
<path d="M35.089 85.6854C35.0793 86.3281 35.0914 86.9755 35.1255 87.6104L35.1279 87.6129C35.1498 88.0485 35.1839 88.4795 35.2301 88.8979C35.2618 89.1756 35.2961 89.4506 35.3372 89.7156C35.3981 90.1148 35.4711 90.4993 35.556 90.8595C35.5779 90.9544 35.6001 91.0444 35.6242 91.1345C35.6534 91.2513 35.685 91.363 35.7191 91.4728C35.7653 91.631 35.8164 91.7821 35.87 91.9255C35.9162 92.0542 35.9673 92.1786 36.0184 92.2976C36.201 92.7164 36.41 93.0642 36.6534 93.3249C36.6658 93.3395 36.6802 93.3514 36.695 93.3638C36.7094 93.3784 36.724 93.3903 36.741 93.4052C36.7559 93.4198 36.7726 93.4344 36.7921 93.4465C36.8262 93.4731 36.8651 93.5001 36.9065 93.5242C36.97 93.5655 37.0379 93.6045 37.1158 93.641C37.162 93.6653 37.2107 93.687 37.2618 93.7091C37.3519 93.7478 37.447 93.7868 37.5514 93.8235C37.6171 93.8479 37.6853 93.8722 37.7559 93.8941C37.7632 93.8965 37.7707 93.8987 37.7778 93.9014C37.8386 93.9209 37.9021 93.9401 37.9652 93.9571C38.2351 94.0374 38.5393 94.1105 38.873 94.181C38.9584 94.2005 39.0433 94.2175 39.1309 94.2346C39.1575 94.2397 39.1845 94.2443 39.2137 94.2516C39.2867 94.2638 39.3597 94.2784 39.4352 94.293C39.4814 94.3003 39.5301 94.31 39.5787 94.3176C39.6469 94.3297 39.715 94.3419 39.7856 94.3538C40.6498 94.4974 41.6596 94.624 42.7742 94.7311C42.913 94.7435 43.0541 94.7578 43.1953 94.77C43.3875 94.787 43.5822 94.8043 43.7791 94.8211C44.0225 94.8406 44.271 94.8601 44.5241 94.8795L44.9254 94.9087C44.9403 94.9087 44.9522 94.9112 44.9643 94.9136C44.9668 94.9136 44.9668 94.9136 44.9695 94.9136C44.9741 94.9112 44.9765 94.9112 44.9816 94.9136L45.3175 94.9357C45.3589 94.9382 45.3978 94.9428 45.4367 94.9455H45.4392C45.4438 94.9428 45.4465 94.9428 45.4513 94.9455C46.3372 95.0036 47.262 95.0547 48.2161 95.0961C48.5008 95.1085 48.7902 95.1207 49.0825 95.1326C49.3015 95.1424 49.5206 95.1497 49.7396 95.157C49.9124 95.1643 50.0852 95.1694 50.258 95.1764C50.3066 95.1791 50.3578 95.1791 50.4064 95.1815C50.7033 95.1913 51.0024 95.201 51.302 95.2081C51.4529 95.2132 51.6038 95.2178 51.7547 95.2205C51.9616 95.2251 52.1682 95.2302 52.3778 95.2351C52.4727 95.2375 52.5676 95.2402 52.6625 95.2424C52.8134 95.2448 52.9667 95.2497 53.1176 95.2521C53.1712 95.2546 53.2271 95.2546 53.2807 95.2546C53.4656 95.2597 53.6506 95.2619 53.8356 95.2643C54.0205 95.2689 54.2052 95.2689 54.3905 95.2716C54.5462 95.2765 54.7017 95.2786 54.8577 95.2813H54.9989C55.0208 95.2838 55.0451 95.2838 55.0668 95.2838C55.6631 95.2935 56.2593 95.2984 56.8532 95.3008C57.1503 95.3008 57.447 95.3032 57.7439 95.3032C60.0294 95.313 62.2658 95.2911 64.3079 95.2521C64.471 95.247 64.634 95.2448 64.7947 95.24H64.8555C65.0186 95.2348 65.179 95.2327 65.3396 95.2275C65.4515 95.2251 65.5611 95.2227 65.6684 95.2205C65.9164 95.2132 66.1598 95.2081 66.4009 95.201H66.4594C66.6954 95.1937 66.9266 95.1864 67.153 95.1764C67.26 95.1764 67.3647 95.1718 67.4669 95.1694C67.6105 95.1643 67.7517 95.1596 67.8928 95.1523H67.9439C68.0851 95.1472 68.2238 95.1426 68.3625 95.1353C68.4577 95.1329 68.5502 95.1283 68.6424 95.1256C69.2314 95.1012 69.7838 95.0771 70.2925 95.0479C70.3701 95.0453 70.4434 95.0406 70.5188 95.0382C70.6356 95.0309 70.7476 95.0236 70.8595 95.0187C70.8741 95.0163 70.8888 95.0163 70.9009 95.0139C71.0104 95.009 71.1197 95.0017 71.2246 94.9944H71.2465C71.3533 94.9873 71.4582 94.9798 71.5605 94.9725C71.6213 94.9676 71.6821 94.9652 71.743 94.9603C71.8452 94.953 71.9423 94.9457 72.0375 94.9384C72.5291 94.8995 72.938 94.8581 73.2446 94.8167C73.3055 94.8094 73.3687 94.7997 73.4318 94.7922C73.5586 94.7776 73.6946 94.7605 73.8333 94.7461C73.9745 94.7313 74.1205 94.7194 74.2714 94.7048C74.3468 94.6997 74.4247 94.6926 74.5026 94.6853C74.5805 94.6802 74.6608 94.6731 74.7409 94.6683C74.9842 94.6488 75.2422 94.632 75.5075 94.6172C75.5075 94.6172 75.5075 94.6172 75.5099 94.6172C75.6876 94.605 75.8701 94.5953 76.0575 94.588C76.4323 94.5685 76.8266 94.5517 77.2381 94.5393C77.2381 94.5393 77.2405 94.542 77.243 94.5393C77.4474 94.5322 77.6567 94.5249 77.8685 94.5201C77.8685 94.5201 77.8709 94.5225 77.8731 94.5201C78.0775 94.5149 78.2892 94.5103 78.501 94.5052C78.5229 94.5028 78.5424 94.5028 78.5643 94.5028C78.7517 94.4977 78.9442 94.4955 79.1364 94.4906C79.3092 94.4879 79.4845 94.4855 79.6621 94.4833C79.869 94.4782 80.0783 94.476 80.29 94.4736C80.5794 94.4711 80.8739 94.4689 81.1735 94.4663C81.356 94.4663 81.5385 94.4638 81.7235 94.4638C82.7457 94.4565 83.8141 94.459 84.9068 94.4663H85.194C85.4788 94.4689 85.7684 94.4711 86.058 94.4736C86.4839 94.4782 86.9125 94.4833 87.343 94.4882C87.8176 94.4955 88.2922 94.503 88.7692 94.5076C89.0052 94.5128 89.2411 94.5149 89.4774 94.5201C89.5453 94.5225 89.6112 94.5225 89.6767 94.5225C89.8252 94.5274 89.9712 94.5298 90.1172 94.5322C90.134 94.5322 90.1513 94.5347 90.1683 94.5322C90.8814 94.5444 91.592 94.5588 92.3003 94.5736C92.3662 94.576 92.4317 94.576 92.4974 94.576C92.7578 94.5811 93.0185 94.5882 93.2789 94.5931C93.3054 94.5955 93.3324 94.5955 93.3589 94.5955C93.5585 94.6001 93.7559 94.6052 93.9528 94.6077C94.1037 94.6128 94.2546 94.615 94.4079 94.6198H94.4539C94.7194 94.6271 94.9847 94.6347 95.2475 94.6393C95.3641 94.642 95.4836 94.6444 95.6002 94.6466C95.744 94.6517 95.8876 94.6539 96.0312 94.6588C96.0847 94.6612 96.1383 94.6612 96.1942 94.6636L96.4668 94.6685L96.5301 94.6709C96.8635 94.6807 97.1945 94.688 97.5184 94.6955C97.8446 94.7053 98.1682 94.7126 98.4846 94.7221H98.526C98.9738 94.7345 99.4143 94.7466 99.8451 94.7564C100.025 94.761 100.198 94.7661 100.371 94.771C100.432 94.7736 100.49 94.7758 100.551 94.7758C100.609 94.7783 100.665 94.7783 100.724 94.7807C100.894 94.7856 101.064 94.788 101.235 94.7929C101.347 94.798 101.456 94.8002 101.566 94.8026L101.651 94.8077C104.873 94.8953 107.799 94.7712 110.252 94.45C110.349 94.4351 110.444 94.4232 110.542 94.4086C110.637 94.3962 110.731 94.384 110.824 94.3697C111.011 94.3404 111.194 94.3112 111.374 94.282H111.381C111.561 94.2504 111.737 94.2188 111.909 94.1871C112.085 94.1555 112.257 94.1212 112.428 94.0849C112.513 94.0654 112.595 94.0484 112.681 94.0311C113.345 93.8851 113.956 93.7199 114.509 93.5346C114.645 93.4886 114.779 93.4422 114.908 93.3935C115.039 93.3475 115.166 93.2964 115.29 93.2453C115.412 93.1942 115.531 93.1431 115.643 93.0893C115.701 93.0649 115.759 93.0381 115.816 93.0092C115.925 92.953 116.032 92.8997 116.134 92.8435C116.237 92.7877 116.336 92.7291 116.431 92.6707C116.526 92.6098 116.614 92.5514 116.699 92.4906C116.743 92.4616 116.784 92.4324 116.826 92.3981C116.908 92.3348 116.984 92.2715 117.057 92.2085C117.459 91.858 117.726 91.4686 117.848 91.0474C117.901 90.86 117.94 90.6677 117.965 90.473C117.982 90.327 117.994 90.1785 117.996 90.0303C118.001 89.8964 117.999 89.7624 117.994 89.6263C117.984 89.4559 117.97 89.2856 117.948 89.1128C117.936 89.0276 117.923 88.9424 117.909 88.8572C117.897 88.7842 117.882 88.7088 117.867 88.6358C117.85 88.5409 117.828 88.4462 117.807 88.351C117.787 88.2658 117.765 88.1833 117.743 88.1003C117.724 88.0227 117.702 87.9446 117.68 87.8694C117.678 87.8621 117.678 87.857 117.675 87.8524C117.648 87.8597 117.622 87.8669 117.595 87.8743C114.472 88.7188 108.575 88.9621 101.773 88.877C89.1128 88.7236 73.3081 87.4411 66.3744 86.8205C62.6072 86.4822 59.1706 85.9394 56.0894 85.2848C55.7049 85.202 55.3253 85.119 54.9505 85.0341C54.8166 85.0049 54.6852 84.9732 54.5538 84.944C54.4004 84.9078 54.2495 84.8735 54.1011 84.8372C53.8407 84.7737 53.5803 84.7128 53.3247 84.6474C52.4245 84.4235 51.5578 84.1898 50.7279 83.9535C50.1246 83.7807 49.5427 83.6055 48.9783 83.4305C48.8929 83.4037 48.8104 83.377 48.7276 83.3502C48.4697 83.2699 48.219 83.1896 47.9707 83.1068C47.9515 83.1017 47.9321 83.0946 47.915 83.0898C47.6887 83.0143 47.4696 82.9416 47.2504 82.8659C47.1825 82.8415 47.1141 82.8199 47.0459 82.7953C46.4764 82.6006 45.9313 82.4059 45.4105 82.2114C45.1744 82.1238 44.9432 82.036 44.7168 81.9486C44.5684 81.8926 44.4224 81.834 44.2785 81.7782C44.0597 81.6931 43.848 81.6079 43.6409 81.5227C43.0351 81.2793 42.4681 81.0384 41.9446 80.8072C41.7693 80.7293 41.599 80.6538 41.4335 80.5786C41.4067 80.5662 41.3824 80.5565 41.3578 80.5443C41.1947 80.4713 41.0368 80.3983 40.8835 80.3255C40.7688 80.2718 40.6569 80.2185 40.5474 80.1673C40.4865 80.1406 40.4284 80.1116 40.3699 80.0822C40.2943 80.0457 40.2215 80.0116 40.1509 79.9773C38.7832 79.3107 37.8559 78.7823 37.3911 78.5073C37.3645 78.4905 37.34 78.4757 37.3156 78.4613C37.1964 78.3883 37.1136 78.3372 37.0747 78.3128C37.0603 78.3031 37.0503 78.2982 37.0479 78.2934C37.0455 78.2934 37.0455 78.2934 37.0455 78.2934C37.043 78.2909 37.043 78.2909 37.043 78.2909C37.026 78.3226 37.0087 78.3542 36.9919 78.3834C36.88 78.5781 36.7559 78.7217 36.622 78.8069C36.6149 78.8093 36.6074 78.8142 36.6001 78.8191C36.5709 78.8361 36.5444 78.8556 36.5174 78.8775C36.4906 78.8994 36.4638 78.9213 36.4395 78.948C36.4103 78.9746 36.3813 79.0065 36.3543 79.0405C36.3251 79.0746 36.2981 79.1111 36.2715 79.1525C36.2569 79.1719 36.2423 79.1914 36.2326 79.2109C36.2178 79.2304 36.2058 79.2523 36.1937 79.2717C36.1133 79.4056 36.0355 79.5638 35.9625 79.7436C35.9479 79.778 35.9333 79.8118 35.9211 79.8485C35.8946 79.9191 35.8675 79.9921 35.8408 80.0673C35.8189 80.1333 35.797 80.1963 35.7775 80.2647C35.7556 80.3302 35.7361 80.401 35.7166 80.4716C35.6412 80.7368 35.5731 81.0243 35.5098 81.3331C35.4876 81.4353 35.4684 81.5424 35.4489 81.6495C35.4146 81.8418 35.3808 82.0413 35.3516 82.2433C35.3394 82.3285 35.3273 82.4113 35.3151 82.4989C35.3029 82.5865 35.2932 82.6717 35.281 82.7593C35.2688 82.8518 35.2591 82.9442 35.2494 83.0367C35.2396 83.1292 35.2299 83.2239 35.2202 83.3166C35.2007 83.5062 35.1837 83.6985 35.1691 83.8932C35.1544 84.0854 35.1423 84.2828 35.1301 84.4824C35.1255 84.5795 35.1204 84.6795 35.1155 84.7793C35.1131 84.8499 35.1082 84.9229 35.1058 84.9934C35.0987 85.2208 35.0914 85.4542 35.089 85.6854Z" fill="#FAE93E" stroke="#201600" stroke-width="0.343069" stroke-miterlimit="10"/>
<path d="M35.0885 85.6854C35.0788 86.3281 35.091 86.9755 35.125 87.6104C35.1494 88.0485 35.1832 88.4793 35.2297 88.8979C35.2589 89.1756 35.2956 89.4506 35.3368 89.7156C35.3976 90.1148 35.4706 90.4993 35.5555 90.8595C35.5775 90.9544 35.5996 91.0444 35.6237 91.1345C35.6529 91.2513 35.6845 91.363 35.7186 91.4728C35.7648 91.631 35.816 91.7821 35.8695 91.9255C35.9157 92.0542 35.9646 92.1786 36.0179 92.2976C36.2005 92.7164 36.4095 93.0642 36.6529 93.3249C36.6653 93.3395 36.6797 93.3514 36.6945 93.3638C36.7089 93.3784 36.7235 93.3903 36.7405 93.4052C36.7554 93.4198 36.7722 93.4344 36.7916 93.4465C36.8257 93.4731 36.8647 93.5001 36.906 93.5242C36.9696 93.5655 37.0374 93.6045 37.1153 93.641C37.1616 93.6653 37.2102 93.687 37.2613 93.7091C37.3514 93.7478 37.4466 93.7868 37.551 93.8235C37.6167 93.8478 37.6848 93.8722 37.7554 93.8941C37.7627 93.8965 37.7702 93.8987 37.7773 93.9014C37.8381 93.9209 37.9017 93.9401 37.9647 93.9571C38.2346 94.0374 38.5388 94.1104 38.8725 94.181C38.9579 94.2005 39.0428 94.2175 39.1305 94.2346C39.157 94.2397 39.184 94.2443 39.2132 94.2516C39.2862 94.2638 39.3592 94.2784 39.4347 94.293C39.4809 94.3003 39.5296 94.31 39.5783 94.3176C39.6464 94.3297 39.7145 94.3419 39.7851 94.3538C40.6493 94.4974 41.6591 94.624 42.7738 94.7311C42.9125 94.7435 43.0536 94.7578 43.1948 94.77C43.3871 94.787 43.5818 94.8043 43.7786 94.8211C44.022 94.8406 44.2705 94.8601 44.5236 94.8795L44.9249 94.9087C44.9371 94.9112 44.9541 94.9111 44.969 94.9136C44.9736 94.9111 44.9761 94.9111 44.9812 94.9136L45.317 94.9357C45.3584 94.9382 45.3973 94.9428 45.4363 94.9455H45.4509C46.3368 95.0036 47.2616 95.0547 48.2156 95.0961C48.5003 95.1085 48.7897 95.1207 49.082 95.1326C49.301 95.1424 49.5201 95.1497 49.7391 95.157C49.9119 95.1643 50.0847 95.1694 50.2575 95.1764C50.3062 95.1791 50.3573 95.1791 50.406 95.1815C50.7029 95.1913 51.002 95.201 51.3016 95.2081C51.4525 95.2132 51.6033 95.2178 51.7542 95.2205C51.9611 95.2251 52.1677 95.2302 52.3773 95.2351C52.4722 95.2375 52.5671 95.2402 52.662 95.2424C52.8129 95.2448 52.9662 95.2497 53.1171 95.2521C53.1707 95.2545 53.2267 95.2545 53.2802 95.2545C53.4652 95.2597 53.6501 95.2619 53.8351 95.2643C54.1756 95.2716 54.5165 95.2764 54.8572 95.2813H54.9497C54.9665 95.2837 54.9838 95.2837 54.9984 95.2813C55.0033 95.2837 55.0055 95.2813 55.0106 95.2813C55.03 95.2837 55.0495 95.2838 55.0663 95.2838C55.6626 95.2935 56.2588 95.2984 56.8527 95.3008C57.1498 95.3008 57.4465 95.3032 57.7434 95.3032C60.0289 95.313 62.2653 95.2911 64.3074 95.2521C64.4705 95.247 64.6336 95.2448 64.7942 95.2399H64.855C65.0181 95.2348 65.1785 95.2327 65.3391 95.2275C65.4511 95.2251 65.5606 95.2227 65.6679 95.2205C65.9159 95.2132 66.1593 95.2081 66.4005 95.201H66.4589C66.6949 95.1937 66.9261 95.1864 67.1525 95.1764C67.2596 95.1764 67.3642 95.1718 67.4664 95.1694C67.61 95.1643 67.7512 95.1596 67.8923 95.1523H67.9434C68.0846 95.1472 68.2233 95.1426 68.3621 95.1353C68.4572 95.1329 68.5497 95.1282 68.6419 95.1256C69.2309 95.1012 69.7834 95.0771 70.292 95.0479C70.3696 95.0452 70.4429 95.0406 70.5183 95.0382C70.6352 95.0309 70.7471 95.0236 70.8591 95.0187C70.8737 95.0163 70.8883 95.0163 70.9004 95.0138C71.01 95.009 71.1192 95.0017 71.2241 94.9944H71.246C71.3529 94.9873 71.4578 94.9798 71.56 94.9725C71.6208 94.9676 71.6817 94.9652 71.7425 94.9603C71.8447 94.953 71.9418 94.9457 72.037 94.9384C72.5286 94.8995 72.9375 94.8581 73.2441 94.8167C73.305 94.8094 73.3682 94.7997 73.4313 94.7921C73.5581 94.7775 73.6941 94.7605 73.8328 94.7461C73.974 94.7313 74.12 94.7194 74.2709 94.7048C74.3464 94.6997 74.4242 94.6926 74.5021 94.6853C74.58 94.6802 74.6603 94.6731 74.7404 94.6683C74.9838 94.6515 75.2417 94.6342 75.507 94.6172C75.507 94.6172 75.507 94.6172 75.5094 94.6172C75.6871 94.605 75.8696 94.5952 76.057 94.5879C76.4318 94.5712 76.8261 94.5539 77.2376 94.5393C77.2376 94.5393 77.2401 94.542 77.2425 94.5393C77.4469 94.5322 77.6562 94.5249 77.868 94.52C77.868 94.52 77.8704 94.5225 77.8726 94.52C78.077 94.5149 78.2888 94.5103 78.5005 94.5052C78.5224 94.5028 78.5419 94.5028 78.5638 94.5028C78.7512 94.4977 78.9437 94.4955 79.136 94.4906C79.3087 94.4879 79.484 94.4855 79.6616 94.4833C79.8685 94.4782 80.0778 94.476 80.2895 94.4736C80.5789 94.4711 80.8734 94.4689 81.173 94.4663C81.3555 94.4663 81.538 94.4638 81.723 94.4638C84.332 94.4517 87.2233 94.4833 90.117 94.532C90.1338 94.532 90.151 94.5344 90.1681 94.532C90.8812 94.5441 91.5918 94.5585 92.3 94.5733C92.6286 94.5806 92.9547 94.5879 93.2786 94.5928C93.3052 94.5953 93.3322 94.5953 93.3587 94.5953C93.7116 94.605 94.0599 94.6123 94.4079 94.6196C94.4225 94.6223 94.4371 94.6223 94.4539 94.6196C94.7194 94.6269 94.9847 94.6344 95.2475 94.6391C95.5104 94.6464 95.7732 94.6515 96.0312 94.6585C96.0847 94.661 96.1383 94.661 96.1942 94.6634L96.4668 94.6683L96.5301 94.6707C96.8635 94.6804 97.1945 94.6877 97.5184 94.6953C97.8446 94.705 98.1682 94.7123 98.4846 94.7218H98.526C98.9738 94.7342 99.4143 94.7464 99.8451 94.7561C100.025 94.7607 100.198 94.7659 100.371 94.7707C100.432 94.7734 100.49 94.7756 100.551 94.7756C100.926 94.7878 101.293 94.7975 101.651 94.8072C104.873 94.8948 107.799 94.7707 110.252 94.4495C110.349 94.4346 110.444 94.4227 110.542 94.4081C110.637 94.3957 110.731 94.3835 110.824 94.3692C111.011 94.34 111.194 94.3107 111.374 94.2815H111.381C111.561 94.2499 111.737 94.2183 111.909 94.1866C112.085 94.155 112.257 94.1207 112.428 94.0844C112.513 94.0649 112.595 94.0479 112.681 94.0306C113.345 93.8846 113.956 93.7194 114.509 93.5341C114.645 93.4882 114.779 93.4417 114.908 93.393C115.039 93.347 115.166 93.2959 115.29 93.2448C115.412 93.1937 115.531 93.1426 115.643 93.0888C115.701 93.0644 115.759 93.0377 115.815 93.0087C115.925 92.9525 116.032 92.8992 116.134 92.843C116.237 92.7872 116.336 92.7286 116.431 92.6702C116.526 92.6093 116.614 92.5509 116.699 92.4901C116.743 92.4611 116.784 92.4319 116.826 92.3976C116.908 92.3343 116.984 92.271 117.057 92.208C117.459 91.8575 117.726 91.4681 117.848 91.0469C117.901 90.8595 117.94 90.6672 117.965 90.4725C117.982 90.3265 117.994 90.178 117.996 90.0298C118.001 89.896 117.999 89.7619 117.994 89.6258C117.987 89.4555 117.972 89.2827 117.948 89.1123C117.936 89.0271 117.923 88.9419 117.909 88.8568C117.897 88.7837 117.882 88.7083 117.867 88.6353C117.85 88.5404 117.828 88.4457 117.807 88.3505C117.787 88.2654 117.765 88.1828 117.743 88.0999C117.724 88.0222 117.702 87.9441 117.68 87.8689C117.678 87.8616 117.678 87.8565 117.675 87.8519C117.293 86.5547 116.68 85.4327 116.414 84.9825C116.38 84.9241 116.351 84.8778 116.332 84.8438C116.302 84.7953 116.285 84.7708 116.285 84.7708C113.715 78.5112 105.94 77.949 100.011 76.7297C98.0422 76.3257 95.4429 75.0823 92.6736 73.4344C91.2231 72.5729 89.7263 71.5994 88.2466 70.5772C87.4776 70.0445 86.7109 69.4991 85.9614 68.9493C84.5303 67.9001 83.1504 66.8344 81.8873 65.8171C81.1474 65.2184 80.4465 64.6367 79.7991 64.0794C79.7991 64.0794 79.7991 64.0794 79.7967 64.0794C78.9668 63.3712 78.2245 62.7065 77.5942 62.1129C77.1632 61.7065 76.7545 61.2682 76.3676 60.806C75.5912 59.8785 74.9049 58.8539 74.2989 57.7809C73.7099 56.7392 73.1986 55.6514 72.7559 54.5586C71.3297 51.0419 70.6115 47.4959 70.3368 45.3737C69.8403 41.5771 68.7281 33.8597 66.5088 30.966C66.0193 30.331 65.4231 30.0485 64.7635 30.0073C64.7392 30.0047 64.7173 30.0022 64.6905 30.0022C62.3639 29.9097 59.3047 32.6915 57.577 33.2805C55.3477 34.0352 58.7279 39.1214 58.9374 41.0976C58.9374 41.1027 58.9398 41.1074 58.9398 41.1122C58.9423 41.1193 58.9423 41.1244 58.9423 41.129C59.0542 42.3556 52.9239 42.7039 47.6741 43.188C44.5492 43.4729 41.736 43.8061 40.7431 44.4024C38.7766 45.5803 38.6476 52.0078 38.633 57.2963V57.2988C38.6303 58.1335 38.6303 58.9415 38.6257 59.6935C38.6206 60.633 38.6109 61.4897 38.5819 62.2149C38.4626 65.1037 38.3994 69.869 38.0292 73.5707C37.8199 75.6613 37.5157 77.4136 37.046 78.2919C37.0289 78.3235 37.0119 78.3527 36.9924 78.382C36.8805 78.5767 36.7563 78.7202 36.6225 78.8054C36.6154 78.81 36.6079 78.8152 36.6006 78.82C36.5714 78.8371 36.5449 78.8543 36.5178 78.8762C36.4911 78.8981 36.4643 78.9201 36.44 78.9468C36.4108 78.9734 36.3818 79.0052 36.3548 79.0393C36.3256 79.0734 36.2986 79.1099 36.272 79.1513C36.2574 79.1707 36.2428 79.1902 36.2331 79.2097C36.2183 79.2291 36.2063 79.251 36.1942 79.2705C36.1138 79.4044 36.036 79.5626 35.963 79.7424C35.9484 79.7767 35.9337 79.8106 35.9216 79.8473C35.895 79.9179 35.868 79.9909 35.8413 80.0661C35.8194 80.1321 35.7975 80.1951 35.778 80.2635C35.7561 80.3289 35.7366 80.3998 35.7171 80.4703C35.6417 80.7356 35.5735 81.0231 35.5103 81.3319C35.4881 81.4341 35.4689 81.5412 35.4494 81.6483C35.4151 81.8405 35.3813 82.0401 35.3521 82.2421C35.3399 82.3273 35.3277 82.41 35.3156 82.4976C35.3034 82.5853 35.2937 82.6704 35.2815 82.7581C35.2693 82.8505 35.2596 82.943 35.2499 83.0355C35.2401 83.128 35.2304 83.2227 35.2207 83.3154C35.2012 83.505 35.1842 83.6972 35.1696 83.8919C35.155 84.0842 35.1428 84.2816 35.1306 84.4811C35.126 84.5783 35.1209 84.6783 35.116 84.7781C35.1109 84.8486 35.1087 84.9192 35.1063 84.9922C35.0982 85.2208 35.0909 85.4542 35.0885 85.6854Z" stroke="#201600" stroke-width="0.686137" stroke-miterlimit="10"/>
<path d="M92.562 73.6243C92.562 73.6243 88.9105 74.691 88.3415 75.8857C87.7727 77.0799 85.0686 74.8808 85.2625 73.3249C85.4565 71.7685 87.928 69.9216 90.3427 70.5687C92.7575 71.2156 92.8828 73.5245 92.562 73.6243Z" fill="#FAE93E" stroke="#201600" stroke-width="0.686137" stroke-miterlimit="10"/>
<path d="M86.4498 68.7925C86.4498 68.7925 82.7983 69.8592 82.2293 71.0537C81.6605 72.2484 78.9564 70.0488 79.1503 68.4927C79.3443 66.9361 81.8158 65.0894 84.2305 65.7363C86.6453 66.3839 86.7704 68.6923 86.4498 68.7925Z" fill="#FAE93E" stroke="#201600" stroke-width="0.686137" stroke-miterlimit="10"/>
<path d="M80.1952 63.9538C80.1952 63.9538 76.5434 65.0205 75.9746 66.215C75.4054 67.4095 72.7018 65.2101 72.8955 63.654C73.0892 62.0981 75.5612 60.2509 77.9757 60.8978C80.3902 61.5451 80.5153 63.8535 80.1952 63.9538Z" fill="#FAE93E" stroke="#201600" stroke-width="0.686137" stroke-miterlimit="10"/>
<path d="M74.891 57.5891C74.891 57.5891 71.2392 58.6556 70.6702 59.8501C70.1012 61.0445 67.3973 58.8454 67.5913 57.289C67.785 55.7329 70.2567 53.8859 72.6715 54.5331C75.086 55.1805 75.2111 57.4891 74.891 57.5891Z" fill="#FAE93E" stroke="#201600" stroke-width="0.686137" stroke-miterlimit="10"/>
<path d="M35.0034 85.6805C34.9937 86.2987 35.0034 86.9217 35.0375 87.535C35.0667 87.5615 35.0959 87.5861 35.1251 87.6104L35.1275 87.6129C40.1337 91.8573 54.578 91.9522 57.7516 90.7621C59.2118 90.2145 43.3 86.469 39.7419 84.7386C37.3763 83.5899 36.0718 82.7892 35.3515 82.2416C35.3393 82.3268 35.3271 82.4095 35.3149 82.4972C35.3028 82.5848 35.293 82.67 35.2809 82.7576C35.2687 82.8501 35.259 82.9425 35.2492 83.035C35.2395 83.1275 35.2298 83.2222 35.22 83.3149C35.2006 83.5045 35.1835 83.6968 35.1689 83.8915C35.1543 84.0837 35.1422 84.2811 35.13 84.4807C35.1254 84.5778 35.1202 84.6778 35.1154 84.7776C35.1103 84.8481 35.1081 84.9187 35.1057 84.9917C35.0984 85.2208 35.0908 85.4542 35.0886 85.6854L35.0034 85.6805Z" fill="#00CC00" stroke="#201600" stroke-width="0.343069" stroke-miterlimit="10"/>
<path d="M37.9434 73.5508L38.0286 73.5702L47.9631 75.9529L56.1283 77.912L56.2086 77.9315L65.065 80.0537L65.2256 80.0926C64.9019 80.0099 59.4747 67.3983 59.2313 63.0175C59.0853 60.3745 51.6186 58.8388 45.719 58.0357C41.8374 57.5076 38.6322 57.2958 38.6322 57.2958V57.2983L38.5467 57.6C38.5443 58.3229 38.5443 59.0213 38.5419 59.6809C38.5346 60.6252 38.5248 61.4843 38.4956 62.212C38.3766 65.0935 38.3133 69.8515 37.9434 73.5508Z" fill="#FAE93E" stroke="#201600" stroke-width="0.686137" stroke-miterlimit="10"/>
<path d="M35.0038 85.6805L35.089 85.6851C35.0914 85.4541 35.0987 85.2205 35.106 84.9915C35.1084 84.9185 35.1109 84.8479 35.1157 84.7773C35.1206 84.6775 35.1255 84.5778 35.1303 84.4804C35.1425 84.2808 35.1549 84.0835 35.1693 83.8912C35.1839 83.6965 35.2009 83.5042 35.2204 83.3146C35.2301 83.2219 35.2398 83.127 35.2496 83.0348C35.2593 82.9423 35.269 82.8498 35.2812 82.7573C35.2934 82.6697 35.3031 82.5845 35.3153 82.4969C35.3277 82.4117 35.3399 82.3266 35.3518 82.2414C35.381 82.0394 35.4151 81.8398 35.4491 81.6475C35.4686 81.5407 35.4878 81.4334 35.51 81.3312C35.5733 81.0223 35.6414 80.7349 35.7169 80.4696C35.7363 80.399 35.7558 80.3285 35.7777 80.2627C35.7972 80.1946 35.8191 80.1286 35.841 80.0654C35.8677 79.9899 35.8948 79.9171 35.9213 79.8466C35.9335 79.8101 35.9481 79.776 35.9627 79.7417C36.0357 79.5618 36.1136 79.4034 36.1939 79.2698C36.206 79.2479 36.2182 79.2284 36.2328 79.2089C36.2426 79.1895 36.2571 79.17 36.2717 79.1505C36.2983 79.1091 36.3253 79.0726 36.3545 79.0386C36.3813 79.0045 36.4102 78.9726 36.4397 78.9461C36.4908 78.8925 36.5446 78.8509 36.6003 78.8171C36.6076 78.8122 36.6152 78.8074 36.6222 78.8049C36.7563 78.7195 36.8802 78.5762 36.9921 78.3815C37.0089 78.3523 37.0262 78.3206 37.0432 78.289C37.0432 78.289 37.0432 78.289 37.0457 78.2914C37.0457 78.2914 37.0457 78.2914 37.0481 78.2914C37.053 78.2963 37.0627 78.3011 37.0749 78.3109C37.1138 78.3355 37.1966 78.3866 37.3158 78.4593C37.3402 78.4715 37.3645 78.4885 37.3913 78.5053C37.8561 78.7804 38.7834 79.3087 40.1511 79.9753C40.2217 80.0096 40.2947 80.0435 40.3702 80.0802C40.4286 80.1094 40.4867 80.1384 40.5476 80.1654C40.6571 80.2165 40.7691 80.27 40.8837 80.3236C41.037 80.3966 41.1949 80.4696 41.358 80.5424C41.3826 80.5545 41.4067 80.5643 41.4337 80.5767C41.5992 80.6521 41.7696 80.7273 41.9448 80.8052C42.468 81.0364 43.0353 81.2774 43.6411 81.5207C43.8482 81.6059 44.0599 81.6911 44.2787 81.7763C44.4226 81.832 44.5686 81.8907 44.717 81.9466C44.9434 82.034 45.1746 82.1219 45.4107 82.2095C45.9315 82.4042 46.4766 82.5989 47.0461 82.7933C47.1143 82.8179 47.1824 82.842 47.2506 82.8639C47.4696 82.9396 47.6889 83.0124 47.9152 83.0878C47.9323 83.0927 47.9517 83.1 47.971 83.1049C48.2194 83.1876 48.4701 83.2679 48.7279 83.3482C48.8106 83.375 48.8933 83.4018 48.9785 83.4285C49.5429 83.6038 50.1248 83.7788 50.7281 83.9515C51.558 84.1879 52.4247 84.4215 53.3249 84.6454C53.5807 84.7109 53.8409 84.7717 54.1013 84.8352C54.2522 84.8715 54.4009 84.9058 54.554 84.9399C54.6854 84.9715 54.8168 85.0032 54.9507 85.0324C55.3255 85.1175 55.7051 85.2003 56.0897 85.283C56.1116 84.699 56.1359 83.998 56.1578 83.2071C56.1967 81.7003 56.2259 79.8729 56.2089 77.9307C56.2089 77.8699 56.2065 77.8064 56.2038 77.7455C56.0531 71.0878 50.5164 64.4413 48.4429 63.0175C47.4012 62.302 46.5007 61.7788 45.6076 61.3748C43.8871 60.5984 42.1882 60.2601 39.5403 59.8366C39.2482 59.7904 38.944 59.7442 38.6252 59.6931C38.5984 59.6906 38.5692 59.6857 38.5424 59.6809C38.5351 60.6252 38.5254 61.4843 38.4962 62.212C38.3769 65.0935 38.3137 69.8515 37.9437 73.5507C37.6758 76.2473 37.2428 78.3817 36.5151 78.8149C35.6317 79.3357 35.0476 82.4312 35.0038 85.6805Z" fill="#6A5BA2" stroke="#201600" stroke-width="0.343069" stroke-miterlimit="10"/>
<path opacity="0.1" d="M35.0036 85.6805C34.9938 86.2986 35.0036 86.9217 35.0376 87.535C35.1644 90.0198 35.6363 92.3221 36.5685 93.3222C37.2986 94.1061 40.6036 94.6096 44.9649 94.9138C44.9673 94.9138 44.9673 94.9138 44.97 94.9138C44.9746 94.9114 44.977 94.9114 44.9821 94.9138C45.133 94.9236 45.2837 94.936 45.4372 94.9457H45.4518C46.3377 95.0039 47.2625 95.055 48.2166 95.0964C48.5013 95.1088 48.7907 95.1209 49.083 95.1329C49.302 95.1426 49.521 95.1499 49.7401 95.1572C49.9129 95.1645 50.0857 95.1696 50.2585 95.1767C50.3071 95.1793 50.3582 95.1793 50.4069 95.1818C50.7038 95.1915 51.0029 95.2012 51.3025 95.2083C51.4534 95.2134 51.6043 95.218 51.7552 95.2207C51.9621 95.2253 52.1687 95.2304 52.3783 95.2353C52.4732 95.2378 52.5681 95.2404 52.663 95.2426C52.8139 95.245 52.9672 95.2499 53.1181 95.2524C53.1716 95.2548 53.2276 95.2548 53.2812 95.2548C53.4661 95.2599 53.6511 95.2621 53.8361 95.2645C54.1765 95.2718 54.5175 95.2767 54.8582 95.2816H54.9507C54.9675 95.284 54.9848 95.284 54.9994 95.2816C55.0213 95.284 55.0456 95.284 55.0673 95.284C55.6635 95.2937 56.2598 95.2986 56.8536 95.301C57.1508 95.301 57.4475 95.3035 57.7444 95.3035C60.0299 95.3132 62.2663 95.2913 64.3084 95.2524C64.4715 95.2472 64.6345 95.2451 64.7952 95.2402H64.856C65.0191 95.2351 65.1795 95.2329 65.3401 95.2278C65.452 95.2253 65.5616 95.2229 65.6689 95.2207C65.9169 95.2134 66.1603 95.2083 66.4014 95.2012H66.4598C66.6959 95.1939 66.9271 95.1866 67.1535 95.1767C67.2605 95.1767 67.3652 95.172 67.4674 95.1696C67.611 95.1645 67.7522 95.1599 67.8933 95.1526H67.9444C68.0856 95.1475 68.2243 95.1428 68.363 95.1355C68.4582 95.1331 68.5507 95.1285 68.6429 95.1258C69.2319 95.1015 69.7843 95.0774 70.293 95.0482C70.3706 95.0455 70.4439 95.0409 70.5193 95.0384C70.6361 95.0311 70.7481 95.0238 70.86 95.019C70.8746 95.0165 70.8892 95.0165 70.9014 95.0141C71.0109 95.0092 71.1202 95.0019 71.2251 94.9946H71.247C71.3538 94.9876 71.4587 94.98 71.561 94.9727C71.6218 94.9679 71.6826 94.9654 71.7435 94.9605C71.8457 94.9532 71.9428 94.9459 72.038 94.9386C72.5296 94.8997 72.9384 94.8583 73.2451 94.817C73.3059 94.8097 73.3692 94.7999 73.4322 94.7924C73.559 94.7778 73.6951 94.7607 73.8338 94.7464C73.975 94.7315 74.121 94.7196 74.2719 94.705C74.3473 94.6999 74.4252 94.6928 74.5031 94.6855C74.581 94.6804 74.6613 94.6734 74.7414 94.6685C74.9847 94.6517 75.2427 94.6344 75.508 94.6174C75.508 94.6174 75.508 94.6174 75.5104 94.6174C75.6881 94.6052 75.8706 94.5955 76.058 94.5882C76.4328 94.5714 76.8271 94.5541 77.2386 94.5395C77.2386 94.5395 77.2411 94.5422 77.2435 94.5395C77.4479 94.5325 77.6572 94.5252 77.8689 94.5203C77.8689 94.5203 77.8714 94.5227 77.8736 94.5203C78.078 94.5152 78.2897 94.5105 78.5015 94.5054C78.5234 94.503 78.5428 94.503 78.5648 94.503C78.7521 94.4979 78.9447 94.4957 79.1369 94.4908C79.3097 94.4882 79.485 94.4857 79.6626 94.4835C79.8695 94.4784 80.0788 94.4762 80.2905 94.4738C80.5799 94.4714 80.8744 94.4692 81.174 94.4665C81.3565 94.4665 81.539 94.4641 81.724 94.4641C84.333 94.4519 87.2242 94.4835 90.1179 94.5322C90.1347 94.5322 90.152 94.5346 90.169 94.5322C90.8821 94.5444 91.5928 94.5587 92.301 94.5736C92.6296 94.5809 92.9557 94.5882 93.2796 94.5931C93.3061 94.5955 93.3331 94.5955 93.3597 94.5955C93.7126 94.6052 94.0608 94.6125 94.4089 94.6198C94.4235 94.6225 94.4381 94.6225 94.4549 94.6198C94.7204 94.6271 94.9857 94.6347 95.2485 94.6393C95.5113 94.6466 95.7742 94.6517 96.0322 94.6588C96.0857 94.6612 96.1392 94.6612 96.1952 94.6636L96.4678 94.6685L96.5311 94.6709C96.8645 94.6807 97.1955 94.688 97.5194 94.6955C97.8455 94.7052 98.1692 94.7125 98.4856 94.722H98.527C98.9748 94.7345 99.4153 94.7466 99.8461 94.7564C100.026 94.761 100.199 94.7661 100.372 94.771C100.433 94.7736 100.491 94.7758 100.552 94.7758C100.927 94.788 101.294 94.7977 101.652 94.8075C104.874 94.8951 107.8 94.771 110.253 94.4497C110.35 94.4349 110.445 94.4229 110.543 94.4083C110.637 94.3959 110.732 94.3838 110.825 94.3694C111.012 94.3402 111.195 94.311 111.375 94.2818H111.382C111.562 94.2501 111.738 94.2185 111.91 94.1869C112.086 94.1552 112.258 94.1209 112.429 94.0846C112.514 94.0652 112.596 94.0481 112.682 94.0309C113.346 93.8848 113.957 93.7196 114.51 93.5344C114.646 93.4884 114.78 93.4419 114.909 93.3932C115.04 93.3472 115.167 93.2961 115.291 93.245C115.412 93.1939 115.532 93.1428 115.644 93.089C115.702 93.0647 115.76 93.0379 115.816 93.0089C115.926 92.9527 116.033 92.8994 116.135 92.8432C116.238 92.7875 116.337 92.7288 116.432 92.6704C116.527 92.6096 116.615 92.5512 116.7 92.4903C116.744 92.4613 116.785 92.4321 116.827 92.3978C116.909 92.3345 116.985 92.2713 117.058 92.2082C117.459 91.8578 117.727 91.4684 117.849 91.0471C117.902 90.8597 117.941 90.6674 117.966 90.4727C117.983 90.3267 117.995 90.1783 117.997 90.03C118.002 89.8962 118 89.7621 117.995 89.626C117.988 89.4557 117.973 89.2829 117.949 89.1125C117.937 89.0273 117.924 88.9422 117.91 88.857C117.898 88.784 117.883 88.7085 117.868 88.6355C117.851 88.5406 117.829 88.4459 117.808 88.3508C117.788 88.2656 117.766 88.1831 117.744 88.1001C117.725 88.0225 117.703 87.9443 117.681 87.8691C117.679 87.8618 117.679 87.8567 117.676 87.8521C117.294 86.5549 116.681 85.433 116.415 84.9827C116.381 84.9243 116.352 84.8781 116.333 84.844C116.306 84.8467 116.282 84.8491 116.255 84.8491C111.317 85.1412 102.251 85.596 92.2849 85.6985C79.4275 85.8272 65.0712 85.3675 56.1588 83.2088C55.6088 83.0749 55.0855 82.9097 54.5866 82.7123C51.4885 81.4906 49.3638 79.0787 47.9644 75.9538C46.1635 71.9355 45.5599 66.7397 45.6083 61.3757C45.611 61.1978 45.6134 61.0228 45.6156 60.8452C45.6327 59.9106 45.6667 58.9736 45.7203 58.0366C46.0148 52.7311 46.8376 47.4596 47.6746 43.1882C47.6746 43.1836 47.677 43.1787 47.6797 43.1738C44.5183 43.4634 41.6632 43.7966 40.6581 44.398C38.6527 45.5978 38.5578 52.2565 38.5481 57.601C38.5456 58.3238 38.5456 59.0223 38.5432 59.6819C38.5359 60.6261 38.5262 61.4852 38.4969 62.2129C38.3777 65.0945 38.3144 69.8524 37.9445 73.5517C37.6765 76.2483 37.2436 78.3827 36.5159 78.8159C35.6315 79.3357 35.0474 82.4312 35.0036 85.6805Z" fill="#FF0F5C"/>
<path opacity="0.2" d="M114.924 86.057C114.924 86.057 113.772 82.5563 110.827 80.9057C108.15 79.4048 104.216 78.5937 104.053 79.2831C103.891 79.9726 116.06 89.5859 114.924 86.057Z" fill="white"/>
<path d="M21.0036 99.3045C20.9938 99.9227 21.0036 100.546 21.0376 101.159C21.1644 103.644 21.6363 105.946 22.5685 106.946C23.2986 107.73 26.6036 108.234 30.9649 108.538C30.9673 108.538 30.9673 108.538 30.97 108.538C30.9746 108.535 30.977 108.535 30.9821 108.538C31.133 108.548 31.2837 108.56 31.4372 108.57H31.4397C31.4443 108.567 31.447 108.567 31.4518 108.57C32.3377 108.628 33.2625 108.679 34.2166 108.72C34.5013 108.733 34.7907 108.745 35.083 108.757C35.302 108.767 35.521 108.774 35.7401 108.781C35.9129 108.789 36.0857 108.794 36.2585 108.801C36.3071 108.803 36.3582 108.803 36.4069 108.806C36.7038 108.816 37.0029 108.825 37.3025 108.832C37.4534 108.837 37.6043 108.842 37.7552 108.845C37.9621 108.849 38.1687 108.855 38.3783 108.859C38.4732 108.862 38.5681 108.865 38.663 108.867C38.8139 108.869 38.9672 108.874 39.1181 108.876C39.1716 108.879 39.2276 108.879 39.2812 108.879C39.4661 108.884 39.6511 108.886 39.8361 108.889C40.021 108.893 40.2057 108.893 40.3909 108.896C40.5759 108.901 40.7631 108.903 40.9507 108.906C40.9675 108.908 40.9848 108.908 40.9994 108.906C41.0042 108.908 41.0064 108.906 41.0116 108.906C48.9161 109.003 56.8454 108.75 59.1575 108.436C61.4333 108.127 65.8965 108.054 70.9075 108.09H71.1947C71.4795 108.093 71.7691 108.095 72.0587 108.097C72.4846 108.102 72.9132 108.107 73.3437 108.112C73.8183 108.119 74.2929 108.127 74.7699 108.131C75.006 108.137 75.2418 108.139 75.4781 108.144C75.546 108.146 75.612 108.146 75.6774 108.146C75.8259 108.151 75.9719 108.154 76.1179 108.156C76.1347 108.156 76.152 108.158 76.169 108.156C76.8821 108.168 77.5928 108.183 78.301 108.197C78.3669 108.2 78.4324 108.2 78.4981 108.2C78.7585 108.205 79.0192 108.212 79.2796 108.217C79.3061 108.219 79.3331 108.219 79.3597 108.219C79.5592 108.224 79.7566 108.229 79.9535 108.231C80.1044 108.237 80.2553 108.239 80.4086 108.244C80.4232 108.246 80.4378 108.246 80.4546 108.244C80.7201 108.251 80.9854 108.259 81.2482 108.263C81.3648 108.266 81.4843 108.268 81.6009 108.27C81.8905 108.278 82.1804 108.285 82.4675 108.292L82.5308 108.295C82.8642 108.305 83.1952 108.312 83.5192 108.319C83.8453 108.329 84.169 108.336 84.4854 108.346H84.5267C84.9745 108.358 85.415 108.37 85.8458 108.38C86.0259 108.385 86.1987 108.39 86.3715 108.395C86.4323 108.397 86.4908 108.4 86.5516 108.4C86.6098 108.402 86.666 108.402 86.7244 108.405C86.8945 108.409 87.0649 108.412 87.2355 108.417C87.3474 108.422 87.4569 108.424 87.5665 108.426C96.3958 108.667 103.004 107.314 103.763 104.667C104.048 103.666 103.897 102.527 103.595 101.498C103.213 100.191 102.595 99.0566 102.33 98.6017C102.298 98.5479 102.274 98.5065 102.254 98.4727C102.22 98.4192 102.201 98.39 102.201 98.39C100.046 92.5536 91.8547 91.5682 85.9261 90.3513C83.974 89.9498 81.4043 88.7256 78.6614 87.0999C77.1985 86.2313 75.685 85.2502 74.1907 84.2159C73.4216 83.6853 72.655 83.1402 71.9051 82.5902C70.4741 81.5434 69.0942 80.4799 67.8313 79.4579C67.0914 78.8617 66.3903 78.28 65.7405 77.7227C64.8984 77.0072 64.1464 76.333 63.5087 75.7316C63.3703 75.6029 63.2337 75.4664 63.1023 75.3303C63.0975 75.3252 63.0901 75.323 63.0855 75.3179C63.0317 75.2695 62.976 75.2208 62.9176 75.1719C62.6669 74.9528 62.3943 74.7216 62.0999 74.4783C61.1848 73.7214 60.085 72.855 58.9336 71.9228C57.7021 70.9248 56.4122 69.8515 55.2246 68.7539C52.8395 66.5538 50.8755 64.2588 50.6567 62.3118C49.6808 53.6112 45.5629 54.5284 44.9374 54.721C44.8985 54.7334 44.8715 54.7429 44.862 54.7455C44.8595 54.748 44.8571 54.748 44.8571 54.748C44.969 55.9673 38.9066 56.3177 33.6789 56.7972C30.5175 57.0868 27.6625 57.42 26.6574 58.0214C24.652 59.2212 24.5571 65.8799 24.5473 71.2244C24.5449 71.9472 24.5449 72.6457 24.5425 73.3052C24.569 73.3101 24.5982 73.3149 24.6252 73.3174C24.944 73.3685 25.2482 73.4147 25.5403 73.461C27.4118 73.7581 29.5535 74.1083 31.6149 74.4688C34.713 75.0113 37.6238 75.5834 39.1449 76.0361C41.554 76.7565 42.143 84.6856 42.2065 91.3662C42.2089 91.4295 42.2089 91.4925 42.2089 91.556C42.226 93.4981 42.1968 95.3256 42.1578 96.8324C42.1359 97.6233 42.1116 98.3242 42.0897 98.9083C41.7052 98.8256 41.3255 98.7426 40.9507 98.6577C40.8169 98.6285 40.6854 98.5968 40.554 98.5676C40.4007 98.5313 40.2498 98.497 40.1013 98.4608C39.8409 98.3973 39.5805 98.3364 39.325 98.2709C38.4247 98.047 37.5581 97.8134 36.7282 97.5771C36.1248 97.4043 35.5429 97.2291 34.9786 97.0541C34.8931 97.0273 34.8106 97.0005 34.7279 96.9738C34.4699 96.8935 34.2192 96.8131 33.971 96.7304C33.9518 96.7253 33.9323 96.7182 33.9153 96.7134C33.6889 96.6379 33.4699 96.5651 33.2506 96.4894C33.1827 96.4651 33.1143 96.4435 33.0462 96.4189C32.4767 96.2242 31.9315 96.0295 31.4107 95.835C31.1746 95.7474 30.9434 95.6595 30.7171 95.5722C30.5686 95.5162 30.4226 95.4575 30.2788 95.4018C30.06 95.3166 29.8482 95.2315 29.6411 95.1463C29.0354 94.9029 28.4683 94.662 27.9448 94.4308C27.7696 94.3529 27.5992 94.2774 27.4337 94.2022C27.407 94.1898 27.3826 94.1801 27.358 94.1679C27.195 94.0949 27.037 94.0219 26.8837 93.9491C26.7691 93.8953 26.6571 93.842 26.5476 93.7909C26.4868 93.7642 26.4286 93.7352 26.3702 93.7057C26.2945 93.6692 26.2217 93.6352 26.1512 93.6009C24.7834 92.9343 23.8561 92.4059 23.3913 92.1309C23.3648 92.1141 23.3402 92.0992 23.3159 92.0849C23.1966 92.0119 23.1139 91.9607 23.0749 91.9364C23.0606 91.9267 23.0506 91.9218 23.0481 91.917C23.0457 91.917 23.0457 91.917 23.0457 91.917C23.0433 91.9145 23.0433 91.9145 23.0433 91.9145C23.0262 91.9462 23.009 91.9778 22.9922 92.007C22.8802 92.2017 22.7561 92.3453 22.6222 92.4305C22.6152 92.4329 22.6076 92.4378 22.6003 92.4426C22.5711 92.4597 22.5446 92.4791 22.5176 92.501C22.4908 92.5229 22.4641 92.5449 22.4397 92.5716C22.4105 92.5982 22.3815 92.63 22.3545 92.6641C22.3253 92.6982 22.2983 92.7347 22.2718 92.7761C22.2572 92.7955 22.2426 92.815 22.2328 92.8345C22.218 92.8539 22.2061 92.8758 22.1939 92.8953C22.1136 93.0292 22.0357 93.1874 21.9627 93.3672C21.9481 93.4015 21.9335 93.4354 21.9213 93.4721C21.8948 93.5427 21.8678 93.6157 21.841 93.6909C21.8191 93.7569 21.7972 93.8199 21.7777 93.8883C21.7558 93.9537 21.7364 94.0246 21.7169 94.0951C21.6414 94.3604 21.5733 94.6478 21.51 94.9567C21.4879 95.0589 21.4687 95.166 21.4492 95.2731C21.4149 95.4653 21.381 95.6649 21.3518 95.8669C21.3397 95.9521 21.3275 96.0348 21.3153 96.1224C21.3032 96.2101 21.2934 96.2952 21.2813 96.3828C21.2691 96.4753 21.2594 96.5678 21.2496 96.6603C21.2399 96.7528 21.2301 96.8475 21.2204 96.9402C21.2009 97.1298 21.1839 97.322 21.1693 97.5167C21.1547 97.709 21.1425 97.9064 21.1304 98.1059C21.1257 98.203 21.1206 98.3031 21.1158 98.4028C21.1133 98.4734 21.1085 98.5464 21.106 98.617C21.0987 98.846 21.0912 99.0794 21.089 99.3106L21.0036 99.3045Z" fill="#FF0F5C"/>
<path d="M42.2077 91.3606C42.2077 91.3606 47.5198 92.9199 62.2212 96.3585C74.1295 99.1437 87.7835 100.013 88.0293 102.412C88.0293 102.412 69.3036 108.991 56.7614 106.365C44.2194 103.739 36.9656 102.802 42.2077 91.3606Z" fill="#00CC00" stroke="#201600" stroke-width="0.343069" stroke-miterlimit="10"/>
<path d="M21.089 99.3094C21.0793 99.9522 21.0914 100.6 21.1255 101.235L21.1279 101.237C21.1498 101.673 21.1839 102.104 21.2301 102.522C21.2618 102.8 21.2961 103.075 21.3372 103.34C21.3981 103.739 21.4711 104.123 21.556 104.484C21.5779 104.578 21.6001 104.669 21.6242 104.759C21.6534 104.875 21.685 104.987 21.7191 105.097C21.7653 105.255 21.8164 105.406 21.87 105.55C21.9162 105.678 21.9673 105.803 22.0184 105.922C22.201 106.341 22.41 106.688 22.6534 106.949C22.6658 106.964 22.6802 106.975 22.695 106.988C22.7094 107.002 22.724 107.014 22.741 107.029C22.7559 107.044 22.7726 107.058 22.7921 107.071C22.8262 107.097 22.8651 107.124 22.9065 107.148C22.97 107.19 23.0379 107.229 23.1158 107.265C23.162 107.289 23.2107 107.311 23.2618 107.333C23.3519 107.372 23.447 107.411 23.5514 107.448C23.6171 107.472 23.6853 107.496 23.7559 107.518C23.7632 107.521 23.7707 107.523 23.7778 107.525C23.8386 107.545 23.9021 107.564 23.9652 107.581C24.2351 107.662 24.5393 107.735 24.873 107.805C24.9584 107.825 25.0433 107.842 25.1309 107.859C25.1575 107.864 25.1845 107.868 25.2137 107.876C25.2867 107.888 25.3597 107.902 25.4352 107.917C25.4814 107.924 25.5301 107.934 25.5787 107.942C25.6469 107.954 25.715 107.966 25.7856 107.978C26.6498 108.122 27.6596 108.248 28.7742 108.355C28.913 108.368 29.0541 108.382 29.1953 108.394C29.3875 108.411 29.5822 108.428 29.7791 108.445C30.0225 108.465 30.271 108.484 30.5241 108.504L30.9254 108.533C30.9403 108.533 30.9522 108.535 30.9643 108.538C30.9668 108.538 30.9668 108.538 30.9695 108.538C30.9741 108.535 30.9765 108.535 30.9816 108.538L31.3175 108.56C31.3589 108.562 31.3978 108.567 31.4367 108.57H31.4392C31.4438 108.567 31.4465 108.567 31.4513 108.57C32.3372 108.628 33.262 108.679 34.2161 108.72C34.5008 108.733 34.7902 108.745 35.0825 108.757C35.3015 108.766 35.5206 108.774 35.7396 108.781C35.9124 108.788 36.0852 108.793 36.258 108.801C36.3066 108.803 36.3578 108.803 36.4064 108.806C36.7033 108.815 37.0024 108.825 37.302 108.832C37.4529 108.837 37.6038 108.842 37.7547 108.845C37.9616 108.849 38.1682 108.854 38.3778 108.859C38.4727 108.862 38.5676 108.864 38.6625 108.866C38.8134 108.869 38.9667 108.874 39.1176 108.876C39.1712 108.879 39.2271 108.879 39.2807 108.879C39.4656 108.884 39.6506 108.886 39.8356 108.888C40.0205 108.893 40.2052 108.893 40.3905 108.896C40.5462 108.901 40.7017 108.903 40.8577 108.905H40.9989C41.0208 108.908 41.0451 108.908 41.0668 108.908C41.6631 108.918 42.2593 108.922 42.8532 108.925C43.1503 108.925 43.447 108.927 43.7439 108.927C46.0294 108.937 48.2658 108.915 50.3079 108.876C50.471 108.871 50.634 108.869 50.7947 108.864H50.8555C51.0186 108.859 51.179 108.857 51.3396 108.852C51.4515 108.849 51.5611 108.847 51.6684 108.845C51.9164 108.837 52.1598 108.832 52.4009 108.825H52.4594C52.6954 108.818 52.9266 108.81 53.153 108.801C53.26 108.801 53.3647 108.796 53.4669 108.793C53.6105 108.788 53.7517 108.784 53.8928 108.776H53.9439C54.0851 108.771 54.2238 108.767 54.3625 108.759C54.4577 108.757 54.5502 108.752 54.6424 108.75C55.2314 108.725 55.7838 108.701 56.2925 108.672C56.3701 108.669 56.4434 108.665 56.5188 108.662C56.6356 108.655 56.7476 108.648 56.8595 108.643C56.8741 108.64 56.8888 108.64 56.9009 108.638C57.0104 108.633 57.1197 108.626 57.2246 108.618H57.2465C57.3533 108.611 57.4582 108.604 57.5605 108.597C57.6213 108.592 57.6821 108.589 57.743 108.584C57.8452 108.577 57.9423 108.57 58.0375 108.562C58.5291 108.524 58.938 108.482 59.2446 108.441C59.3055 108.434 59.3687 108.424 59.4318 108.416C59.5586 108.402 59.6946 108.385 59.8333 108.37C59.9745 108.355 60.1205 108.343 60.2714 108.329C60.3468 108.324 60.4247 108.317 60.5026 108.309C60.5805 108.304 60.6608 108.297 60.7409 108.292C60.9842 108.273 61.2422 108.256 61.5075 108.241C61.5075 108.241 61.5075 108.241 61.5099 108.241C61.6876 108.229 61.8701 108.219 62.0575 108.212C62.4323 108.193 62.8266 108.176 63.2381 108.163C63.2381 108.163 63.2405 108.166 63.243 108.163C63.4474 108.156 63.6567 108.149 63.8685 108.144C63.8685 108.144 63.8709 108.147 63.8731 108.144C64.0775 108.139 64.2892 108.134 64.501 108.129C64.5229 108.127 64.5424 108.127 64.5643 108.127C64.7517 108.122 64.9442 108.12 65.1364 108.115C65.3092 108.112 65.4845 108.11 65.6621 108.107C65.869 108.102 66.0783 108.1 66.29 108.098C66.5794 108.095 66.8739 108.093 67.1735 108.09C67.356 108.09 67.5385 108.088 67.7235 108.088C68.7457 108.081 69.8141 108.083 70.9068 108.09H71.194C71.4788 108.093 71.7684 108.095 72.058 108.098C72.4839 108.102 72.9125 108.107 73.343 108.112C73.8176 108.12 74.2922 108.127 74.7692 108.132C75.0052 108.137 75.2411 108.139 75.4774 108.144C75.5453 108.147 75.6112 108.147 75.6767 108.147C75.8252 108.151 75.9712 108.154 76.1172 108.156C76.134 108.156 76.1513 108.159 76.1683 108.156C76.8814 108.168 77.592 108.183 78.3003 108.198C78.3662 108.2 78.4317 108.2 78.4974 108.2C78.7578 108.205 79.0185 108.212 79.2789 108.217C79.3054 108.22 79.3324 108.22 79.3589 108.22C79.5585 108.224 79.7559 108.229 79.9528 108.232C80.1037 108.237 80.2546 108.239 80.4079 108.244H80.4539C80.7194 108.251 80.9847 108.259 81.2475 108.263C81.3641 108.266 81.4836 108.269 81.6002 108.271C81.744 108.276 81.8876 108.278 82.0312 108.283C82.0847 108.285 82.1383 108.285 82.1942 108.288L82.4668 108.293L82.5301 108.295C82.8635 108.305 83.1945 108.312 83.5184 108.32C83.8446 108.329 84.1682 108.337 84.4846 108.346H84.526C84.9738 108.359 85.4143 108.371 85.8451 108.38C86.0252 108.385 86.198 108.39 86.3708 108.395C86.4316 108.398 86.49 108.4 86.5509 108.4C86.609 108.402 86.6653 108.402 86.7237 108.405C86.8938 108.41 87.0641 108.412 87.2347 108.417C87.3467 108.422 87.4562 108.424 87.5657 108.427L87.6509 108.432C90.8732 108.519 93.7985 108.395 96.2517 108.074C96.3491 108.059 96.444 108.047 96.5416 108.033C96.6365 108.02 96.7314 108.008 96.8239 107.994C97.0113 107.965 97.1938 107.935 97.3739 107.906H97.3812C97.5611 107.874 97.7366 107.843 97.9094 107.811C98.0846 107.78 98.2574 107.745 98.4277 107.709C98.5129 107.69 98.5954 107.672 98.6808 107.655C99.3453 107.509 99.9561 107.344 100.509 107.159C100.645 107.113 100.779 107.066 100.908 107.018C101.039 106.972 101.166 106.92 101.29 106.869C101.412 106.818 101.531 106.767 101.643 106.713C101.701 106.689 101.759 106.662 101.816 106.633C101.925 106.577 102.032 106.524 102.134 106.468C102.237 106.412 102.336 106.353 102.431 106.295C102.526 106.234 102.614 106.175 102.699 106.115C102.743 106.086 102.784 106.056 102.826 106.022C102.908 105.959 102.984 105.896 103.057 105.833C103.459 105.482 103.726 105.093 103.848 104.671C103.901 104.484 103.94 104.292 103.965 104.097C103.982 103.951 103.994 103.803 103.996 103.654C104.001 103.521 103.999 103.386 103.994 103.25C103.984 103.08 103.97 102.91 103.948 102.737C103.936 102.652 103.923 102.567 103.909 102.481C103.897 102.408 103.882 102.333 103.867 102.26C103.85 102.165 103.828 102.07 103.807 101.975C103.787 101.89 103.765 101.807 103.743 101.724C103.724 101.647 103.702 101.569 103.68 101.493C103.678 101.486 103.678 101.481 103.675 101.476C103.648 101.484 103.622 101.491 103.595 101.498C100.472 102.343 94.5754 102.586 87.7731 102.501C75.1128 102.348 59.3081 101.065 52.3744 100.445C48.6072 100.106 45.1706 99.5635 42.0894 98.9089C41.7049 98.8261 41.3253 98.7431 40.9505 98.6582C40.8166 98.629 40.6852 98.5973 40.5538 98.5681C40.4004 98.5319 40.2495 98.4976 40.1011 98.4613C39.8407 98.3978 39.5803 98.3369 39.3247 98.2715C38.4245 98.0475 37.5578 97.8139 36.7279 97.5776C36.1246 97.4048 35.5427 97.2296 34.9783 97.0546C34.8929 97.0278 34.8104 97.001 34.7276 96.9743C34.4697 96.894 34.219 96.8136 33.9707 96.7309C33.9515 96.7258 33.9321 96.7187 33.915 96.7139C33.6887 96.6384 33.4696 96.5656 33.2504 96.49C33.1825 96.4656 33.1141 96.444 33.0459 96.4194C32.4764 96.2247 31.9313 96.03 31.4105 95.8355C31.1744 95.7479 30.9432 95.6601 30.7168 95.5727C30.5684 95.5167 30.4224 95.4581 30.2785 95.4023C30.0597 95.3171 29.848 95.232 29.6409 95.1468C29.0351 94.9034 28.4681 94.6625 27.9446 94.4313C27.7693 94.3534 27.599 94.2779 27.4335 94.2027C27.4067 94.1903 27.3824 94.1806 27.3578 94.1684C27.1947 94.0954 27.0368 94.0224 26.8835 93.9496C26.7688 93.8958 26.6569 93.8425 26.5474 93.7914C26.4865 93.7647 26.4284 93.7357 26.3699 93.7063C26.2943 93.6697 26.2215 93.6357 26.1509 93.6014C24.7832 92.9348 23.8559 92.4064 23.3911 92.1314C23.3645 92.1146 23.34 92.0997 23.3156 92.0854C23.1964 92.0124 23.1136 91.9613 23.0747 91.9369C23.0603 91.9272 23.0503 91.9223 23.0479 91.9175C23.0455 91.9175 23.0455 91.9175 23.0455 91.9175C23.043 91.915 23.043 91.915 23.043 91.915C23.026 91.9467 23.0087 91.9783 22.9919 92.0075C22.88 92.2022 22.7559 92.3458 22.622 92.431C22.6149 92.4334 22.6074 92.4383 22.6001 92.4431C22.5709 92.4602 22.5444 92.4796 22.5174 92.5016C22.4906 92.5235 22.4638 92.5454 22.4395 92.5721C22.4103 92.5987 22.3813 92.6305 22.3543 92.6646C22.3251 92.6987 22.2981 92.7352 22.2715 92.7766C22.2569 92.796 22.2423 92.8155 22.2326 92.835C22.2178 92.8544 22.2058 92.8763 22.1937 92.8958C22.1133 93.0297 22.0355 93.1879 21.9625 93.3677C21.9479 93.402 21.9333 93.4359 21.9211 93.4726C21.8946 93.5432 21.8675 93.6162 21.8408 93.6914C21.8189 93.7574 21.797 93.8204 21.7775 93.8888C21.7556 93.9543 21.7361 94.0251 21.7166 94.0956C21.6412 94.3609 21.5731 94.6484 21.5098 94.9572C21.4876 95.0594 21.4684 95.1665 21.4489 95.2736C21.4146 95.4658 21.3808 95.6654 21.3516 95.8674C21.3394 95.9526 21.3273 96.0353 21.3151 96.123C21.3029 96.2106 21.2932 96.2957 21.281 96.3834C21.2688 96.4758 21.2591 96.5683 21.2494 96.6608C21.2396 96.7533 21.2299 96.848 21.2202 96.9407C21.2007 97.1303 21.1837 97.3225 21.1691 97.5172C21.1544 97.7095 21.1423 97.9069 21.1301 98.1065C21.1255 98.2036 21.1204 98.3036 21.1155 98.4034C21.1131 98.4739 21.1082 98.547 21.1058 98.6175C21.0987 98.8448 21.0914 99.0782 21.089 99.3094Z" fill="#FAE93E" stroke="#201600" stroke-width="0.343069" stroke-miterlimit="10"/>
<path d="M21.0885 99.3094C21.0788 99.9522 21.091 100.6 21.125 101.235C21.1494 101.673 21.1832 102.103 21.2297 102.522C21.2589 102.8 21.2956 103.075 21.3368 103.34C21.3976 103.739 21.4706 104.123 21.5555 104.484C21.5775 104.578 21.5996 104.669 21.6237 104.759C21.6529 104.875 21.6845 104.987 21.7186 105.097C21.7648 105.255 21.816 105.406 21.8695 105.55C21.9157 105.678 21.9646 105.803 22.0179 105.922C22.2005 106.341 22.4095 106.688 22.6529 106.949C22.6653 106.964 22.6797 106.975 22.6945 106.988C22.7089 107.002 22.7235 107.014 22.7405 107.029C22.7554 107.044 22.7722 107.058 22.7916 107.071C22.8257 107.097 22.8647 107.124 22.906 107.148C22.9696 107.19 23.0374 107.229 23.1153 107.265C23.1616 107.289 23.2102 107.311 23.2613 107.333C23.3514 107.372 23.4466 107.411 23.551 107.448C23.6167 107.472 23.6848 107.496 23.7554 107.518C23.7627 107.521 23.7702 107.523 23.7773 107.525C23.8381 107.545 23.9017 107.564 23.9647 107.581C24.2346 107.662 24.5388 107.735 24.8725 107.805C24.9579 107.825 25.0428 107.842 25.1305 107.859C25.157 107.864 25.184 107.868 25.2132 107.876C25.2862 107.888 25.3592 107.902 25.4347 107.917C25.4809 107.924 25.5296 107.934 25.5783 107.942C25.6464 107.954 25.7145 107.966 25.7851 107.978C26.6493 108.122 27.6591 108.248 28.7738 108.355C28.9125 108.368 29.0536 108.382 29.1948 108.394C29.3871 108.411 29.5818 108.428 29.7786 108.445C30.022 108.465 30.2705 108.484 30.5236 108.504L30.9249 108.533C30.9371 108.535 30.9541 108.535 30.969 108.538C30.9736 108.535 30.9761 108.535 30.9812 108.538L31.317 108.56C31.3584 108.562 31.3973 108.567 31.4363 108.57H31.4509C32.3368 108.628 33.2616 108.679 34.2156 108.72C34.5003 108.733 34.7897 108.745 35.082 108.757C35.301 108.766 35.5201 108.774 35.7391 108.781C35.9119 108.788 36.0847 108.793 36.2575 108.801C36.3062 108.803 36.3573 108.803 36.406 108.806C36.7029 108.815 37.002 108.825 37.3016 108.832C37.4525 108.837 37.6033 108.842 37.7542 108.845C37.9611 108.849 38.1677 108.854 38.3773 108.859C38.4722 108.862 38.5671 108.864 38.662 108.866C38.8129 108.869 38.9662 108.874 39.1171 108.876C39.1707 108.879 39.2267 108.879 39.2802 108.879C39.4652 108.884 39.6501 108.886 39.8351 108.888C40.1756 108.896 40.5165 108.901 40.8572 108.905H40.9497C40.9665 108.908 40.9838 108.908 40.9984 108.905C41.0033 108.908 41.0055 108.905 41.0106 108.905C41.03 108.908 41.0495 108.908 41.0663 108.908C41.6626 108.918 42.2588 108.922 42.8527 108.925C43.1498 108.925 43.4465 108.927 43.7434 108.927C46.0289 108.937 48.2653 108.915 50.3074 108.876C50.4705 108.871 50.6336 108.869 50.7942 108.864H50.855C51.0181 108.859 51.1785 108.857 51.3391 108.852C51.4511 108.849 51.5606 108.847 51.6679 108.845C51.9159 108.837 52.1593 108.832 52.4005 108.825H52.4589C52.6949 108.818 52.9261 108.81 53.1525 108.801C53.2596 108.801 53.3642 108.796 53.4664 108.793C53.61 108.788 53.7512 108.784 53.8923 108.776H53.9434C54.0846 108.771 54.2233 108.767 54.3621 108.759C54.4572 108.757 54.5497 108.752 54.6419 108.75C55.2309 108.725 55.7834 108.701 56.292 108.672C56.3696 108.669 56.4429 108.665 56.5183 108.662C56.6352 108.655 56.7471 108.648 56.8591 108.643C56.8737 108.64 56.8883 108.64 56.9004 108.638C57.01 108.633 57.1192 108.626 57.2241 108.618H57.246C57.3529 108.611 57.4578 108.604 57.56 108.597C57.6208 108.592 57.6817 108.589 57.7425 108.584C57.8447 108.577 57.9418 108.57 58.037 108.562C58.5286 108.524 58.9375 108.482 59.2441 108.441C59.305 108.434 59.3682 108.424 59.4313 108.416C59.5581 108.402 59.6941 108.385 59.8328 108.37C59.974 108.355 60.12 108.343 60.2709 108.329C60.3464 108.324 60.4242 108.317 60.5021 108.309C60.58 108.304 60.6603 108.297 60.7404 108.292C60.9838 108.276 61.2417 108.258 61.507 108.241C61.507 108.241 61.507 108.241 61.5094 108.241C61.6871 108.229 61.8696 108.219 62.057 108.212C62.4318 108.195 62.8261 108.178 63.2376 108.163C63.2376 108.163 63.2401 108.166 63.2425 108.163C63.4469 108.156 63.6562 108.149 63.868 108.144C63.868 108.144 63.8704 108.147 63.8726 108.144C64.077 108.139 64.2888 108.134 64.5005 108.129C64.5224 108.127 64.5419 108.127 64.5638 108.127C64.7512 108.122 64.9437 108.12 65.136 108.115C65.3087 108.112 65.484 108.11 65.6616 108.107C65.8685 108.102 66.0778 108.1 66.2895 108.098C66.5789 108.095 66.8734 108.093 67.173 108.09C67.3555 108.09 67.538 108.088 67.723 108.088C70.332 108.076 73.2233 108.107 76.117 108.156C76.1338 108.156 76.151 108.158 76.1681 108.156C76.8812 108.168 77.5918 108.183 78.3 108.197C78.6286 108.205 78.9547 108.212 79.2786 108.217C79.3052 108.219 79.3322 108.219 79.3587 108.219C79.7116 108.229 80.0599 108.236 80.4079 108.244C80.4225 108.246 80.4371 108.246 80.4539 108.244C80.7194 108.251 80.9847 108.259 81.2475 108.263C81.5104 108.27 81.7732 108.276 82.0312 108.283C82.0847 108.285 82.1383 108.285 82.1942 108.287L82.4668 108.292L82.5301 108.295C82.8635 108.305 83.1945 108.312 83.5184 108.319C83.8446 108.329 84.1682 108.336 84.4846 108.346H84.526C84.9738 108.358 85.4143 108.37 85.8451 108.38C86.0252 108.385 86.198 108.39 86.3708 108.395C86.4316 108.397 86.49 108.4 86.5509 108.4C86.9257 108.412 87.2932 108.422 87.6509 108.431C90.8732 108.519 93.7985 108.395 96.2517 108.074C96.3491 108.059 96.444 108.047 96.5416 108.032C96.6365 108.02 96.7314 108.008 96.8239 107.993C97.0113 107.964 97.1938 107.935 97.3739 107.906H97.3812C97.5611 107.874 97.7366 107.842 97.9094 107.811C98.0846 107.779 98.2574 107.745 98.4277 107.708C98.5129 107.689 98.5954 107.672 98.6809 107.655C99.3453 107.509 99.9561 107.343 100.509 107.158C100.645 107.112 100.779 107.066 100.908 107.017C101.039 106.971 101.166 106.92 101.29 106.869C101.412 106.818 101.531 106.767 101.643 106.713C101.701 106.689 101.759 106.662 101.815 106.633C101.925 106.577 102.032 106.523 102.134 106.467C102.237 106.411 102.336 106.353 102.431 106.294C102.526 106.233 102.614 106.175 102.699 106.114C102.743 106.085 102.784 106.056 102.826 106.022C102.908 105.958 102.984 105.895 103.057 105.832C103.459 105.482 103.726 105.092 103.848 104.671C103.901 104.484 103.94 104.291 103.965 104.097C103.982 103.951 103.994 103.802 103.996 103.654C104.001 103.52 103.999 103.386 103.994 103.25C103.987 103.08 103.972 102.907 103.948 102.736C103.936 102.651 103.923 102.566 103.909 102.481C103.897 102.408 103.882 102.332 103.867 102.259C103.85 102.164 103.828 102.07 103.807 101.975C103.787 101.889 103.765 101.807 103.743 101.724C103.724 101.646 103.702 101.568 103.68 101.493C103.678 101.486 103.678 101.481 103.675 101.476C103.293 100.179 102.68 99.0568 102.414 98.6066C102.38 98.5482 102.351 98.5019 102.332 98.4679C102.302 98.4194 102.285 98.3948 102.285 98.3948C99.7154 92.1353 91.9396 91.5731 86.0111 90.3538C84.0422 89.9498 81.4429 88.7064 78.6736 87.0585C77.2231 86.197 75.7263 85.2235 74.2466 84.2013C73.4776 83.6686 72.7109 83.1232 71.9614 82.5734C70.5303 81.5242 69.1504 80.4585 67.8873 79.4412C67.1474 78.8425 66.4465 78.2608 65.7991 77.7035C65.7991 77.7035 65.7991 77.7035 65.7967 77.7035C64.9668 76.9952 64.2245 76.3306 63.5942 75.737C63.1632 75.3306 62.7545 74.8923 62.3676 74.4301C61.5912 73.5026 60.9049 72.478 60.2989 71.405C59.7099 70.3633 59.1986 69.2754 58.7559 68.1827C57.3297 64.6659 56.6115 61.12 56.3368 58.9978C55.8403 55.2012 54.7281 47.4838 52.5088 44.5901C52.0193 43.9551 51.4231 43.6726 50.7635 43.6314C50.7392 43.6287 50.7173 43.6263 50.6905 43.6263C48.3639 43.5338 45.3047 46.3156 43.577 46.9046C41.3477 47.6593 44.7279 52.7455 44.9374 54.7217C44.9374 54.7268 44.9398 54.7314 44.9398 54.7363C44.9423 54.7434 44.9423 54.7485 44.9423 54.7531C45.0542 55.9797 38.9239 56.328 33.6741 56.812C30.5492 57.097 27.736 57.4302 26.7431 58.0265C24.7766 59.2044 24.6476 65.6319 24.633 70.9204V70.9228C24.6303 71.7576 24.6303 72.5656 24.6257 73.3176C24.6206 74.2571 24.6109 75.1137 24.5819 75.839C24.4626 78.7278 24.3994 83.4931 24.0292 87.1948C23.8199 89.2854 23.5157 91.0377 23.046 91.916C23.0289 91.9476 23.0119 91.9768 22.9924 92.006C22.8805 92.2007 22.7563 92.3443 22.6225 92.4295C22.6154 92.4341 22.6079 92.4393 22.6006 92.4441C22.5714 92.4612 22.5449 92.4784 22.5178 92.5003C22.4911 92.5222 22.4643 92.5441 22.44 92.5709C22.4108 92.5974 22.3818 92.6293 22.3548 92.6634C22.3256 92.6975 22.2986 92.734 22.272 92.7753C22.2574 92.7948 22.2428 92.8143 22.2331 92.8338C22.2183 92.8532 22.2063 92.8751 22.1942 92.8946C22.1138 93.0285 22.036 93.1867 21.963 93.3665C21.9484 93.4008 21.9337 93.4346 21.9216 93.4714C21.895 93.542 21.868 93.615 21.8413 93.6902C21.8194 93.7561 21.7975 93.8192 21.778 93.8876C21.7561 93.953 21.7366 94.0238 21.7171 94.0944C21.6417 94.3597 21.5735 94.6471 21.5103 94.956C21.4881 95.0582 21.4689 95.1653 21.4494 95.2724C21.4151 95.4646 21.3813 95.6642 21.3521 95.8662C21.3399 95.9514 21.3277 96.0341 21.3156 96.1217C21.3034 96.2093 21.2937 96.2945 21.2815 96.3821C21.2693 96.4746 21.2596 96.5671 21.2499 96.6596C21.2401 96.7521 21.2304 96.8467 21.2207 96.9395C21.2012 97.1291 21.1842 97.3213 21.1696 97.516C21.155 97.7083 21.1428 97.9057 21.1306 98.1052C21.126 98.2023 21.1209 98.3024 21.116 98.4021C21.1109 98.4727 21.1087 98.5433 21.1063 98.6163C21.0982 98.8448 21.0909 99.0782 21.0885 99.3094Z" stroke="#201600" stroke-width="0.686137" stroke-miterlimit="10"/>
<path d="M78.562 87.2483C78.562 87.2483 74.9105 88.3151 74.3415 89.5098C73.7727 90.704 71.0686 88.5049 71.2625 86.949C71.4565 85.3926 73.928 83.5457 76.3427 84.1928C78.7575 84.8397 78.8828 87.1486 78.562 87.2483Z" fill="#FAE93E" stroke="#201600" stroke-width="0.686137" stroke-miterlimit="10"/>
<path d="M72.4498 82.4166C72.4498 82.4166 68.7983 83.4833 68.2293 84.6778C67.6605 85.8725 64.9564 83.6729 65.1503 82.1168C65.3443 80.5602 67.8158 78.7135 70.2305 79.3603C72.6453 80.008 72.7704 82.3164 72.4498 82.4166Z" fill="#FAE93E" stroke="#201600" stroke-width="0.686137" stroke-miterlimit="10"/>
<path d="M66.1952 77.5779C66.1952 77.5779 62.5434 78.6446 61.9746 79.8391C61.4054 81.0336 58.7018 78.8342 58.8955 77.2781C59.0892 75.7222 61.5612 73.875 63.9757 74.5218C66.3902 75.1692 66.5153 77.4776 66.1952 77.5779Z" fill="#FAE93E" stroke="#201600" stroke-width="0.686137" stroke-miterlimit="10"/>
<path d="M60.891 71.2132C60.891 71.2132 57.2392 72.2797 56.6702 73.4741C56.1012 74.6686 53.3973 72.4695 53.5913 70.9131C53.785 69.357 56.2567 67.51 58.6715 68.1572C61.086 68.8045 61.2111 71.1132 60.891 71.2132Z" fill="#FAE93E" stroke="#201600" stroke-width="0.686137" stroke-miterlimit="10"/>
<path d="M21.0034 99.3046C20.9937 99.9227 21.0034 100.546 21.0375 101.159C21.0667 101.186 21.0959 101.21 21.1251 101.235L21.1275 101.237C26.1337 105.481 40.578 105.576 43.7516 104.386C45.2118 103.839 29.3 100.093 25.7419 98.3627C23.3763 97.214 22.0718 96.4133 21.3515 95.8657C21.3393 95.9509 21.3271 96.0336 21.3149 96.1212C21.3028 96.2089 21.293 96.294 21.2809 96.3817C21.2687 96.4741 21.259 96.5666 21.2492 96.6591C21.2395 96.7516 21.2298 96.8463 21.22 96.939C21.2006 97.1286 21.1835 97.3208 21.1689 97.5155C21.1543 97.7078 21.1422 97.9052 21.13 98.1047C21.1254 98.2019 21.1202 98.3019 21.1154 98.4017C21.1103 98.4722 21.1081 98.5428 21.1057 98.6158C21.0984 98.8448 21.0908 99.0782 21.0886 99.3094L21.0034 99.3046Z" fill="#00CC00" stroke="#201600" stroke-width="0.343069" stroke-miterlimit="10"/>
<path d="M23.9437 87.1748L24.0288 87.1943L33.9634 89.5769L42.1285 91.5361L42.2088 91.5556L51.0652 93.6778L51.2258 93.7167C50.9021 93.634 45.4749 81.0224 45.2315 76.6416C45.0855 73.9986 37.6188 72.4629 31.7192 71.6598C27.8376 71.1317 24.6324 70.9199 24.6324 70.9199V70.9224L24.547 71.2241C24.5445 71.947 24.5445 72.6454 24.5421 73.305C24.5348 74.2493 24.5251 75.1084 24.4959 75.8361C24.3769 78.7176 24.3136 83.4756 23.9437 87.1748Z" fill="#FAE93E" stroke="#201600" stroke-width="0.686137" stroke-miterlimit="10"/>
<path d="M21.0038 99.3046L21.089 99.3092C21.0914 99.0782 21.0987 98.8446 21.106 98.6156C21.1084 98.5426 21.1109 98.472 21.1157 98.4014C21.1206 98.3016 21.1255 98.2018 21.1303 98.1045C21.1425 97.9049 21.1549 97.7075 21.1693 97.5153C21.1839 97.3206 21.2009 97.1283 21.2204 96.9387C21.2301 96.846 21.2398 96.7511 21.2496 96.6589C21.2593 96.5664 21.269 96.4739 21.2812 96.3814C21.2934 96.2938 21.3031 96.2086 21.3153 96.121C21.3277 96.0358 21.3399 95.9506 21.3518 95.8655C21.381 95.6635 21.4151 95.4639 21.4491 95.2716C21.4686 95.1648 21.4878 95.0575 21.51 94.9552C21.5733 94.6464 21.6414 94.359 21.7169 94.0937C21.7363 94.0231 21.7558 93.9525 21.7777 93.8868C21.7972 93.8187 21.8191 93.7527 21.841 93.6894C21.8677 93.614 21.8948 93.5412 21.9213 93.4707C21.9335 93.4341 21.9481 93.4001 21.9627 93.3658C22.0357 93.1859 22.1136 93.0275 22.1939 92.8939C22.206 92.872 22.2182 92.8525 22.2328 92.833C22.2426 92.8135 22.2571 92.7941 22.2717 92.7746C22.2983 92.7332 22.3253 92.6967 22.3545 92.6627C22.3813 92.6286 22.4102 92.5967 22.4397 92.5702C22.4908 92.5166 22.5446 92.475 22.6003 92.4412C22.6076 92.4363 22.6152 92.4315 22.6222 92.429C22.7563 92.3436 22.8802 92.2003 22.9921 92.0056C23.0089 91.9763 23.0262 91.9447 23.0432 91.9131C23.0432 91.9131 23.0432 91.9131 23.0457 91.9155C23.0457 91.9155 23.0457 91.9155 23.0481 91.9155C23.053 91.9204 23.0627 91.9252 23.0749 91.935C23.1138 91.9595 23.1966 92.0107 23.3158 92.0834C23.3402 92.0956 23.3645 92.1126 23.3913 92.1294C23.8561 92.4044 24.7834 92.9328 26.1511 93.5994C26.2217 93.6337 26.2947 93.6675 26.3702 93.7043C26.4286 93.7335 26.4867 93.7625 26.5476 93.7895C26.6571 93.8406 26.7691 93.8941 26.8837 93.9477C27.037 94.0207 27.1949 94.0937 27.358 94.1665C27.3826 94.1786 27.4067 94.1884 27.4337 94.2008C27.5992 94.2762 27.7696 94.3514 27.9448 94.4293C28.468 94.6605 29.0353 94.9015 29.6411 95.1448C29.8482 95.23 30.0599 95.3152 30.2787 95.4004C30.4226 95.4561 30.5686 95.5148 30.717 95.5707C30.9434 95.6581 31.1746 95.7459 31.4107 95.8336C31.9315 96.0283 32.4766 96.223 33.0461 96.4174C33.1143 96.442 33.1824 96.4661 33.2506 96.488C33.4696 96.5637 33.6889 96.6365 33.9152 96.7119C33.9323 96.7168 33.9517 96.7241 33.971 96.7289C34.2194 96.8117 34.4701 96.892 34.7279 96.9723C34.8106 96.9991 34.8933 97.0259 34.9785 97.0526C35.5429 97.2279 36.1248 97.4028 36.7281 97.5756C37.558 97.812 38.4247 98.0456 39.3249 98.2695C39.5807 98.335 39.8409 98.3958 40.1013 98.4593C40.2522 98.4956 40.4009 98.5299 40.554 98.564C40.6854 98.5956 40.8168 98.6272 40.9507 98.6565C41.3255 98.7416 41.7051 98.8244 42.0897 98.9071C42.1116 98.323 42.1359 97.6221 42.1578 96.8312C42.1967 95.3244 42.2259 93.4969 42.2089 91.5548C42.2089 91.494 42.2065 91.4305 42.2038 91.3696C42.0531 84.7119 36.5164 78.0654 34.4429 76.6416C33.4012 75.9261 32.5007 75.4029 31.6076 74.9989C29.8871 74.2225 28.1882 73.8842 25.5403 73.4607C25.2482 73.4145 24.944 73.3683 24.6252 73.3171C24.5984 73.3147 24.5692 73.3098 24.5424 73.305C24.5351 74.2493 24.5254 75.1084 24.4962 75.8361C24.3769 78.7176 24.3137 83.4756 23.9437 87.1748C23.6758 89.8714 23.2428 92.0058 22.5151 92.439C21.6317 92.9598 21.0476 96.0553 21.0038 99.3046Z" fill="#6A5BA2" stroke="#201600" stroke-width="0.343069" stroke-miterlimit="10"/>
<path opacity="0.1" d="M21.0036 99.3046C20.9938 99.9227 21.0036 100.546 21.0376 101.159C21.1644 103.644 21.6363 105.946 22.5685 106.946C23.2986 107.73 26.6036 108.234 30.9649 108.538C30.9673 108.538 30.9673 108.538 30.97 108.538C30.9746 108.535 30.977 108.535 30.9821 108.538C31.133 108.548 31.2837 108.56 31.4372 108.57H31.4518C32.3377 108.628 33.2625 108.679 34.2166 108.72C34.5013 108.733 34.7907 108.745 35.083 108.757C35.302 108.767 35.521 108.774 35.7401 108.781C35.9129 108.789 36.0857 108.794 36.2585 108.801C36.3071 108.803 36.3582 108.803 36.4069 108.806C36.7038 108.816 37.0029 108.825 37.3025 108.832C37.4534 108.837 37.6043 108.842 37.7552 108.845C37.9621 108.849 38.1687 108.855 38.3783 108.859C38.4732 108.862 38.5681 108.865 38.663 108.867C38.8139 108.869 38.9672 108.874 39.1181 108.876C39.1716 108.879 39.2276 108.879 39.2812 108.879C39.4661 108.884 39.6511 108.886 39.8361 108.889C40.1765 108.896 40.5175 108.901 40.8582 108.906H40.9507C40.9675 108.908 40.9848 108.908 40.9994 108.906C41.0213 108.908 41.0456 108.908 41.0673 108.908C41.6635 108.918 42.2598 108.923 42.8536 108.925C43.1508 108.925 43.4475 108.928 43.7444 108.928C46.0299 108.937 48.2663 108.915 50.3084 108.876C50.4715 108.871 50.6345 108.869 50.7952 108.864H50.856C51.0191 108.859 51.1795 108.857 51.3401 108.852C51.452 108.849 51.5616 108.847 51.6689 108.845C51.9169 108.837 52.1603 108.832 52.4014 108.825H52.4598C52.6959 108.818 52.9271 108.811 53.1535 108.801C53.2605 108.801 53.3652 108.796 53.4674 108.794C53.611 108.789 53.7522 108.784 53.8933 108.777H53.9444C54.0856 108.772 54.2243 108.767 54.363 108.76C54.4582 108.757 54.5507 108.753 54.6429 108.75C55.2319 108.726 55.7843 108.701 56.293 108.672C56.3706 108.67 56.4439 108.665 56.5193 108.663C56.6361 108.655 56.7481 108.648 56.86 108.643C56.8746 108.641 56.8892 108.641 56.9014 108.638C57.0109 108.633 57.1202 108.626 57.2251 108.619H57.247C57.3538 108.612 57.4587 108.604 57.561 108.597C57.6218 108.592 57.6826 108.589 57.7435 108.585C57.8457 108.577 57.9428 108.57 58.038 108.563C58.5296 108.524 58.9384 108.482 59.2451 108.441C59.3059 108.434 59.3692 108.424 59.4322 108.416C59.559 108.402 59.6951 108.385 59.8338 108.37C59.975 108.356 60.121 108.344 60.2719 108.329C60.3473 108.324 60.4252 108.317 60.5031 108.31C60.581 108.305 60.6613 108.297 60.7414 108.293C60.9847 108.276 61.2427 108.259 61.508 108.241C61.508 108.241 61.508 108.241 61.5104 108.241C61.6881 108.229 61.8706 108.22 62.058 108.212C62.4328 108.195 62.8271 108.178 63.2386 108.164C63.2386 108.164 63.2411 108.166 63.2435 108.164C63.4479 108.157 63.6572 108.149 63.8689 108.144C63.8689 108.144 63.8714 108.147 63.8736 108.144C64.078 108.139 64.2897 108.135 64.5015 108.13C64.5234 108.127 64.5428 108.127 64.5648 108.127C64.7521 108.122 64.9447 108.12 65.1369 108.115C65.3097 108.112 65.485 108.11 65.6626 108.108C65.8695 108.103 66.0788 108.1 66.2905 108.098C66.5799 108.095 66.8744 108.093 67.174 108.091C67.3565 108.091 67.539 108.088 67.724 108.088C70.333 108.076 73.2242 108.108 76.1179 108.156C76.1347 108.156 76.152 108.159 76.169 108.156C76.8821 108.168 77.5928 108.183 78.301 108.198C78.6296 108.205 78.9557 108.212 79.2796 108.217C79.3061 108.22 79.3331 108.22 79.3597 108.22C79.7126 108.229 80.0608 108.237 80.4089 108.244C80.4235 108.247 80.4381 108.247 80.4549 108.244C80.7204 108.251 80.9857 108.259 81.2485 108.263C81.5113 108.271 81.7742 108.276 82.0322 108.283C82.0857 108.285 82.1392 108.285 82.1952 108.288L82.4678 108.293L82.5311 108.295C82.8645 108.305 83.1955 108.312 83.5194 108.32C83.8455 108.329 84.1692 108.337 84.4856 108.346H84.527C84.9748 108.359 85.4153 108.371 85.8461 108.38C86.0262 108.385 86.199 108.39 86.3718 108.395C86.4326 108.398 86.491 108.4 86.5518 108.4C86.9266 108.412 87.2941 108.422 87.6519 108.432C90.8742 108.519 93.7995 108.395 96.2527 108.074C96.3501 108.059 96.445 108.047 96.5426 108.032C96.6375 108.02 96.7324 108.008 96.8249 107.993C97.0123 107.964 97.1948 107.935 97.3749 107.906H97.3822C97.5621 107.874 97.7375 107.843 97.9103 107.811C98.0856 107.779 98.2584 107.745 98.4287 107.709C98.5139 107.689 98.5964 107.672 98.6818 107.655C99.3462 107.509 99.9571 107.344 100.51 107.158C100.646 107.112 100.78 107.066 100.909 107.017C101.04 106.971 101.167 106.92 101.291 106.869C101.412 106.818 101.532 106.767 101.644 106.713C101.702 106.689 101.76 106.662 101.816 106.633C101.926 106.577 102.033 106.524 102.135 106.467C102.238 106.412 102.337 106.353 102.432 106.294C102.527 106.234 102.615 106.175 102.7 106.114C102.744 106.085 102.785 106.056 102.827 106.022C102.909 105.959 102.985 105.895 103.058 105.832C103.459 105.482 103.727 105.092 103.849 104.671C103.902 104.484 103.941 104.292 103.966 104.097C103.983 103.951 103.995 103.802 103.997 103.654C104.002 103.52 104 103.386 103.995 103.25C103.988 103.08 103.973 102.907 103.949 102.737C103.937 102.651 103.924 102.566 103.91 102.481C103.898 102.408 103.883 102.333 103.868 102.26C103.851 102.165 103.829 102.07 103.808 101.975C103.788 101.89 103.766 101.807 103.744 101.724C103.725 101.647 103.703 101.568 103.681 101.493C103.679 101.486 103.679 101.481 103.676 101.476C103.294 100.179 102.681 99.057 102.415 98.6068C102.381 98.5484 102.352 98.5021 102.333 98.4681C102.306 98.4708 102.282 98.4732 102.255 98.4732C97.3167 98.7652 88.2511 99.2201 78.2849 99.3226C65.4275 99.4513 51.0712 98.9916 42.1588 96.8329C41.6088 96.699 41.0855 96.5338 40.5866 96.3364C37.4885 95.1146 35.3638 92.7028 33.9644 89.5779C32.1635 85.5595 31.5599 80.3638 31.6083 74.9998C31.611 74.8219 31.6134 74.6469 31.6156 74.4693C31.6327 73.5347 31.6667 72.5977 31.7203 71.6607C32.0148 66.3552 32.8376 61.0837 33.6746 56.8123C33.6746 56.8076 33.677 56.8028 33.6797 56.7979C30.5183 57.0875 27.6632 57.4207 26.6581 58.0221C24.6527 59.2219 24.5578 65.8806 24.5481 71.2251C24.5456 71.9479 24.5456 72.6464 24.5432 73.3059C24.5359 74.2502 24.5262 75.1093 24.4969 75.837C24.3777 78.7186 24.3144 83.4765 23.9445 87.1758C23.6765 89.8724 23.2436 92.0068 22.5159 92.44C21.6315 92.9598 21.0474 96.0553 21.0036 99.3046Z" fill="#FF0F5C"/>
<path opacity="0.2" d="M100.924 99.681C100.924 99.681 99.7716 96.1804 96.8272 94.5298C94.1501 93.0289 90.2157 92.2178 90.0534 92.9072C89.8911 93.5967 102.06 103.21 100.924 99.681Z" fill="white"/>
</svg>
