<svg width="138" height="138" viewBox="0 0 138 138" fill="none" xmlns="http://www.w3.org/2000/svg">
<path d="M47.2251 48.168C47.2251 48.168 46.3368 45.809 47.2251 45.7567C48.1131 45.7044 52.7144 45.4433 52.9235 45.7567C53.1327 46.0708 52.9235 48.0307 52.9235 48.0307" fill="#FAE93E"/>
<path d="M47.2251 48.168C47.2251 48.168 46.3368 45.809 47.2251 45.7567C48.1131 45.7044 52.7144 45.4433 52.9235 45.7567C53.1327 46.0708 52.9235 48.0307 52.9235 48.0307" stroke="#201600" stroke-width="0.622506" stroke-miterlimit="10"/>
<path d="M53.9833 48.168C53.9833 48.168 53.0953 45.809 53.9833 45.7567C54.8716 45.7044 59.4729 45.4433 59.682 45.7567C59.8912 46.0708 59.682 48.0307 59.682 48.0307" fill="#FAE93E"/>
<path d="M53.9833 48.168C53.9833 48.168 53.0953 45.809 53.9833 45.7567C54.8716 45.7044 59.4729 45.4433 59.682 45.7567C59.8912 46.0708 59.682 48.0307 59.682 48.0307" stroke="#201600" stroke-width="0.622506" stroke-miterlimit="10"/>
<path d="M60.7418 48.168C60.7418 48.168 59.8538 45.809 60.7418 45.7567C61.6302 45.7044 66.2311 45.4433 66.4406 45.7567C66.6497 46.0708 66.4406 48.0307 66.4406 48.0307" fill="#FAE93E"/>
<path d="M60.7418 48.168C60.7418 48.168 59.8538 45.809 60.7418 45.7567C61.6302 45.7044 66.2311 45.4433 66.4406 45.7567C66.6497 46.0708 66.4406 48.0307 66.4406 48.0307" stroke="#201600" stroke-width="0.622506" stroke-miterlimit="10"/>
<path d="M67.5001 48.168C67.5001 48.168 66.6121 45.809 67.5001 45.7567C68.3885 45.7044 72.9897 45.4433 73.1989 45.7567C73.408 46.0708 73.1989 48.0307 73.1989 48.0307" fill="#FAE93E"/>
<path d="M67.5001 48.168C67.5001 48.168 66.6121 45.809 67.5001 45.7567C68.3885 45.7044 72.9897 45.4433 73.1989 45.7567C73.408 46.0708 73.1989 48.0307 73.1989 48.0307" stroke="#201600" stroke-width="0.622506" stroke-miterlimit="10"/>
<path d="M74.2594 48.168C74.2594 48.168 73.3714 45.809 74.2594 45.7567C75.1477 45.7044 79.7487 45.4433 79.9581 45.7567C80.1673 46.0708 79.9581 48.0307 79.9581 48.0307" fill="#FAE93E"/>
<path d="M74.2594 48.168C74.2594 48.168 73.3714 45.809 74.2594 45.7567C75.1477 45.7044 79.7487 45.4433 79.9581 45.7567C80.1673 46.0708 79.9581 48.0307 79.9581 48.0307" stroke="#201600" stroke-width="0.622506" stroke-miterlimit="10"/>
<path d="M81.0177 48.168C81.0177 48.168 80.1297 45.809 81.0177 45.7567C81.9057 45.7044 86.507 45.4433 86.7161 45.7567C86.9253 46.0708 86.7161 48.0307 86.7161 48.0307" fill="#FAE93E"/>
<path d="M81.0177 48.168C81.0177 48.168 80.1297 45.809 81.0177 45.7567C81.9057 45.7044 86.507 45.4433 86.7161 45.7567C86.9253 46.0708 86.7161 48.0307 86.7161 48.0307" stroke="#201600" stroke-width="0.622506" stroke-miterlimit="10"/>
<path d="M26.9663 48.7214C26.9663 48.7214 24.7477 37.0597 26.9663 37.0597C29.1852 37.0597 108.204 35.2475 108.294 36.3628C108.383 37.478 109.359 48.2455 109.359 48.2455L100.785 48.1648C100.785 48.1648 100.645 42.9903 99.3901 42.3606C98.1352 41.7312 34.902 42.3606 34.902 42.3606C34.902 42.3606 34.1344 41.7079 34.8668 48.4123" fill="white"/>
<path d="M118.216 100.286C110.233 104.217 18.7254 101.057 18.7254 101.057C18.7254 101.057 12.6264 53.0754 18.7185 50.432C24.7528 47.8131 117.289 49.3812 117.289 49.3812C117.289 49.3812 122.424 98.2124 118.216 100.286Z" fill="#00E3DB"/>
<path d="M119.293 99.9141C111.311 103.846 18.7254 101.057 18.7254 101.057C18.7254 101.057 12.6333 52.317 18.7254 49.6735C24.7597 47.0546 118.594 48.3516 118.594 48.3516C118.594 48.3516 123.502 97.8411 119.293 99.9141Z" fill="white"/>
<path d="M118.684 99.8515C110.702 103.783 18.6754 100.647 18.6754 100.647C18.6754 100.647 12.6268 53.0755 18.719 50.432C24.7532 47.8131 117.258 50.051 117.258 50.051C117.258 50.051 122.893 97.7785 118.684 99.8515Z" fill="#00E3DB"/>
<path d="M40.1249 96.4025C47.6738 94.5355 52.2798 86.9025 50.4128 79.3536C48.5459 71.8048 40.9128 67.1987 33.364 69.0657C25.8151 70.9327 21.2091 78.5658 23.076 86.1146C24.943 93.6635 32.5761 98.2695 40.1249 96.4025Z" fill="#FAE93E" stroke="#201600" stroke-width="0.622506" stroke-miterlimit="10"/>
<path d="M114.707 82.7282C114.707 90.5045 108.403 96.8077 100.627 96.8077C92.8509 96.8077 86.5474 90.5045 86.5474 82.7282C86.5474 74.9525 92.8509 68.6487 100.627 68.6487C108.403 68.6487 114.707 74.9525 114.707 82.7282Z" fill="#FAE93E" stroke="#201600" stroke-width="0.622506" stroke-miterlimit="10"/>
<path d="M121 87.8131C121 94.3775 120.561 99.2922 119.294 99.9147C111.311 103.846 18.7255 101.057 18.7255 101.057C18.7255 101.057 12.6343 52.3179 18.7255 49.6722C19.2795 49.4323 20.565 49.2268 22.4512 49.0497C41.1513 47.2815 118.594 48.3525 118.594 48.3525C118.594 48.3525 120.994 72.5493 121 87.8131Z" stroke="#201600" stroke-width="0.622506" stroke-miterlimit="10"/>
<path d="M88.6002 61.5748C85.4422 62.1438 48.2525 61.9402 48.2525 61.9402C48.2525 61.9402 47.3707 54.6283 48.8127 54.3049C51.1714 53.7767 88.3238 54.1138 88.3238 54.1138C88.3238 54.1138 90.2654 61.2751 88.6002 61.5748Z" fill="#FAE93E"/>
<path d="M40.1249 96.4025C47.6738 94.5355 52.2798 86.9025 50.4128 79.3536C48.5459 71.8048 40.9128 67.1987 33.364 69.0657C25.8151 70.9327 21.2091 78.5658 23.076 86.1146C24.943 93.6635 32.5761 98.2695 40.1249 96.4025Z" stroke="#201600" stroke-width="0.622506" stroke-miterlimit="10"/>
<path d="M36.7366 86.4636C34.677 86.4636 33.0012 84.7878 33.0012 82.7279C33.0012 80.6686 34.677 78.9929 36.7366 78.9929C38.7964 78.9929 40.4722 80.6686 40.4722 82.7279C40.4722 84.7881 38.7964 86.4636 36.7366 86.4636Z" stroke="#201600" stroke-width="0.622506" stroke-miterlimit="10"/>
<path d="M114.707 82.7279C114.707 90.5042 108.403 96.8074 100.627 96.8074C92.8509 96.8074 86.5474 90.5042 86.5474 82.7279C86.5474 74.9522 92.8509 68.6484 100.627 68.6484C108.403 68.6484 114.707 74.9522 114.707 82.7279Z" stroke="#201600" stroke-width="0.622506" stroke-miterlimit="10"/>
<path d="M100.627 86.4636C98.5674 86.4636 96.8916 84.7878 96.8916 82.7279C96.8916 80.6686 98.5671 78.9929 100.627 78.9929C102.687 78.9929 104.363 80.6686 104.363 82.7279C104.363 84.7881 102.687 86.4636 100.627 86.4636Z" stroke="#201600" stroke-width="0.622506" stroke-miterlimit="10"/>
<path d="M36.7366 86.4632C34.677 86.4632 33.0012 84.7875 33.0012 82.7276C33.0012 80.6683 34.677 78.9926 36.7366 78.9926C38.7964 78.9926 40.4722 80.6683 40.4722 82.7276C40.4722 84.7875 38.7964 86.4632 36.7366 86.4632Z" fill="#193247"/>
<path d="M100.627 86.4632C98.5674 86.4632 96.8916 84.7875 96.8916 82.7276C96.8916 80.6683 98.5671 78.9926 100.627 78.9926C102.687 78.9926 104.363 80.6683 104.363 82.7276C104.363 84.7875 102.687 86.4632 100.627 86.4632Z" fill="#193247"/>
<path d="M58.4743 70.1651C57.078 70.1651 55.9417 69.0294 55.9417 67.6325C55.9417 66.2356 57.0777 65.0998 58.4743 65.0998C59.8712 65.0998 61.0076 66.2356 61.0076 67.6325C61.0076 69.0294 59.8709 70.1651 58.4743 70.1651Z" fill="#FF0F5C" stroke="#201600" stroke-width="0.622506" stroke-miterlimit="10"/>
<path d="M64.3213 68.9235C63.6095 68.9235 63.0303 68.3443 63.0303 67.6325C63.0303 66.9206 63.6095 66.3417 64.3213 66.3417C65.0338 66.3417 65.6127 66.9206 65.6127 67.6325C65.6127 68.3443 65.0335 68.9235 64.3213 68.9235Z" fill="#FF0F5C" stroke="#201600" stroke-width="0.622506" stroke-miterlimit="10"/>
<path d="M67.9439 68.9235C67.2321 68.9235 66.6528 68.3443 66.6528 67.6325C66.6528 66.9206 67.2321 66.3417 67.9439 66.3417C68.6564 66.3417 69.2353 66.9206 69.2353 67.6325C69.2353 68.3443 68.6564 68.9235 67.9439 68.9235Z" fill="#FF0F5C" stroke="#201600" stroke-width="0.622506" stroke-miterlimit="10"/>
<path d="M71.6309 68.9235C70.9191 68.9235 70.3398 68.3443 70.3398 67.6325C70.3398 66.9206 70.9191 66.3417 71.6309 66.3417C72.3431 66.3417 72.9223 66.9206 72.9223 67.6325C72.9223 68.3443 72.3431 68.9235 71.6309 68.9235Z" fill="#FF0F5C" stroke="#201600" stroke-width="0.622506" stroke-miterlimit="10"/>
<path d="M75.4571 68.9235C74.7453 68.9235 74.166 68.3443 74.166 67.6325C74.166 66.9206 74.7453 66.3417 75.4571 66.3417C76.1692 66.3417 76.7485 66.9206 76.7485 67.6325C76.7485 68.3443 76.1692 68.9235 75.4571 68.9235Z" fill="#FF0F5C" stroke="#201600" stroke-width="0.622506" stroke-miterlimit="10"/>
<path d="M79.2833 68.9235C78.5714 68.9235 77.9922 68.3443 77.9922 67.6325C77.9922 66.9206 78.5714 66.3417 79.2833 66.3417C79.9954 66.3417 80.5747 66.9206 80.5747 67.6325C80.5747 68.3443 79.9954 68.9235 79.2833 68.9235Z" fill="#FF0F5C" stroke="#201600" stroke-width="0.622506" stroke-miterlimit="10"/>
<path d="M80.9069 89.2007C80.3634 90.1093 56.4013 89.2007 56.4013 89.2007C56.4013 89.2007 55.367 74.8868 56.4013 74.7642C69.9807 73.1541 80.9069 74.7642 80.9069 74.7642C80.9069 74.7642 81.8332 87.6522 80.9069 89.2007Z" fill="#193247"/>
<path d="M27.1402 48.7213C27.1402 48.7213 24.9978 37.7634 27.2164 37.7634C29.4353 37.7634 106.963 36.1377 107.567 37.0799C108.633 38.7426 109.359 48.2454 109.359 48.2454L100.959 48.1648C100.959 48.1648 100.819 42.9903 99.564 42.3606C98.3091 41.7312 35.0759 42.3606 35.0759 42.3606C35.0759 42.3606 34.1079 41.4639 34.8406 48.1683" fill="#FF0F5C"/>
<path d="M27.1401 48.7214C27.1401 48.7214 24.9215 37.0597 27.1401 37.0597C29.359 37.0597 108.377 35.2475 108.467 36.3628C108.557 37.478 109.533 48.2454 109.533 48.2454L100.959 48.1648C100.959 48.1648 100.819 42.9903 99.564 42.3606C98.309 41.7312 35.0758 42.3606 35.0758 42.3606C35.0758 42.3606 34.3083 41.7079 35.0406 48.4123" stroke="#201600" stroke-width="0.622506" stroke-miterlimit="10"/>
<path d="M88.6002 61.5748C85.4422 62.1438 48.2525 61.9402 48.2525 61.9402C48.2525 61.9402 47.3707 54.6283 48.8127 54.3049C51.1714 53.7767 88.3238 54.1138 88.3238 54.1138C88.3238 54.1138 90.2654 61.2751 88.6002 61.5748Z" stroke="#201600" stroke-width="0.622506" stroke-miterlimit="10"/>
<path d="M80.9069 89.2007C80.3634 90.1093 56.4013 89.2007 56.4013 89.2007C56.4013 89.2007 55.367 74.8868 56.4013 74.7642C69.9807 73.1541 80.9069 74.7642 80.9069 74.7642C80.9069 74.7642 81.8332 87.6522 80.9069 89.2007Z" stroke="#201600" stroke-width="0.622506" stroke-miterlimit="10"/>
<path d="M65.1269 81.8265C65.1269 82.8191 64.3223 83.6237 63.3297 83.6237C62.3371 83.6237 61.5322 82.8191 61.5322 81.8265C61.5322 80.8336 62.3368 80.0291 63.3297 80.0291C64.3223 80.0291 65.1269 80.8336 65.1269 81.8265Z" fill="#FF0F5C" stroke="#201600" stroke-width="0.311253" stroke-miterlimit="10"/>
<path d="M75.9633 81.8265C75.9633 82.8191 75.1587 83.6237 74.1661 83.6237C73.1736 83.6237 72.3687 82.8191 72.3687 81.8265C72.3687 80.8336 73.1732 80.0291 74.1661 80.0291C75.1587 80.0291 75.9633 80.8336 75.9633 81.8265Z" fill="#FF0F5C" stroke="#201600" stroke-width="0.311253" stroke-miterlimit="10"/>
<path d="M49.9231 56.7688H86.5473" stroke="#201600" stroke-width="0.622506" stroke-miterlimit="10"/>
<path d="M49.9231 59.2589H86.5473" stroke="#201600" stroke-width="0.622506" stroke-miterlimit="10"/>
<path d="M38.5367 54.0092H35.2166V66.3414H38.5367V54.0092Z" fill="#FF0F5C" stroke="#201600" stroke-width="0.622506" stroke-miterlimit="10"/>
<path d="M102.287 54.0092H98.9673V66.3414H102.287V54.0092Z" fill="#FF0F5C" stroke="#201600" stroke-width="0.622506" stroke-miterlimit="10"/>
<path opacity="0.1" d="M121 87.8132C121 94.3775 120.561 99.2922 119.294 99.9147C111.311 103.846 18.7255 101.057 18.7255 101.057C18.7255 101.057 12.6343 52.3179 18.7255 49.6722C19.2795 49.4323 20.565 49.2268 22.4512 49.0497C22.3983 61.0299 23.1764 81.3357 28.7852 86.4623C36.4358 93.4562 107.461 90.1258 121 87.8132Z" fill="#FF0F5C"/>
<path opacity="0.2" d="M114.707 54.8652C114.707 57.5096 115.052 60.6402 106.494 60.6402C97.9359 60.6402 55.9417 54.6669 55.9417 52.0222C55.9417 49.3775 91.088 51.2052 99.6462 51.2052C108.204 51.2052 114.707 52.2208 114.707 54.8652Z" fill="white"/>
</svg>
