<svg width="138" height="138" viewBox="0 0 138 138" fill="none" xmlns="http://www.w3.org/2000/svg">
<path d="M107.559 113.133C107.559 114.173 88.618 115.016 65.2529 115.016C41.8878 115.016 22.947 114.173 22.947 113.133C22.947 112.093 41.8878 111.251 65.2529 111.251C88.6172 111.251 107.559 112.093 107.559 113.133Z" fill="#59C1BC"/>
<path d="M74.8009 52.5339V48.6164C76.0393 48.3031 76.9398 47.1392 76.8358 45.7811C76.7271 44.3578 75.4824 43.286 74.0552 43.286H39.7437C38.3165 43.286 37.0718 44.357 36.9631 45.7803C36.8592 47.1385 37.7588 48.3023 38.998 48.6156V52.5331C38.998 53.6961 38.238 54.737 37.1178 55.0511C34.0182 55.9198 31.7454 58.7647 31.7454 62.1419V101.611C31.7454 105.679 35.0432 108.977 39.1106 108.977H74.6883C78.7565 108.977 82.0536 105.679 82.0536 101.611V62.1427C82.0536 58.7655 79.7807 55.9206 76.6811 55.0519C75.561 54.7378 74.8009 53.6969 74.8009 52.5339Z" fill="#B7C8CB" stroke="#7B78A3" stroke-width="2.3877" stroke-miterlimit="10"/>
<path d="M74.9174 111.872H38.8796C38.0474 111.872 37.373 111.197 37.373 110.365C37.373 109.533 38.0474 108.859 38.8796 108.859H74.9174C75.7496 108.859 76.4239 109.533 76.4239 110.365C76.4239 111.197 75.7496 111.872 74.9174 111.872Z" fill="#B7C8CB" stroke="#7B78A3" stroke-width="2.3877" stroke-miterlimit="10"/>
<path d="M74.8009 52.5339V48.6164C76.0393 48.3031 76.9398 47.1392 76.8358 45.7811C76.7271 44.3578 75.4824 43.286 74.0552 43.286H39.7437C38.3165 43.286 37.0718 44.357 36.9631 45.7803C36.8592 47.1385 37.7588 48.3023 38.998 48.6156V52.5331C38.998 53.6961 38.238 54.737 37.1178 55.0511C34.0182 55.9198 31.7454 58.7647 31.7454 62.1419V101.611C31.7454 105.679 35.0432 108.977 39.1106 108.977H74.6883C78.7565 108.977 82.0536 105.679 82.0536 101.611V62.1427C82.0536 58.7655 79.7807 55.9206 76.6811 55.0519C75.561 54.7378 74.8009 53.6969 74.8009 52.5339Z" fill="#B7C8CB" stroke="#7B78A3" stroke-width="2.3877" stroke-miterlimit="10"/>
<path d="M31.9674 62.4204H24.3236C20.8314 62.4204 18 65.251 18 68.744V93.4816C18 96.9738 20.8314 99.8052 24.3236 99.8052H31.2724" stroke="#7B78A3" stroke-width="9" stroke-miterlimit="10"/>
<path d="M58.9285 103.325L66.7769 39.2901C66.972 37.6986 67.7979 36.2524 69.0696 35.2758L85.4265 22.719" stroke="#494764" stroke-width="5" stroke-miterlimit="10"/>
<path d="M38.5544 48.2912H75.2436" stroke="#7B78A3" stroke-width="2.3877" stroke-miterlimit="10"/>
<path d="M38.5547 54.499H75.2438" stroke="#7B78A3" stroke-width="2.3877" stroke-miterlimit="10"/>
<path d="M39.0183 53.6652L74.7808 52.1714" stroke="#7B78A3" stroke-miterlimit="10"/>
<path d="M39.0183 52.1365L74.7808 50.6426" stroke="#7B78A3" stroke-miterlimit="10"/>
<path d="M39.0181 50.6077L74.7806 49.1139" stroke="#7B78A3" stroke-miterlimit="10"/>
<path d="M74.8862 46.2888H47.6568C47.2807 46.2888 46.9761 45.9842 46.9761 45.6082C46.9761 45.2321 47.2807 44.9275 47.6568 44.9275H74.8862C75.2622 44.9275 75.5669 45.2321 75.5669 45.6082C75.5661 45.9842 75.2614 46.2888 74.8862 46.2888Z" fill="white"/>
<path d="M62.9714 105.735H51.5499C42.9351 105.735 35.9514 98.7509 35.9514 90.1361V61.8182H78.5707V90.1353C78.5707 98.7501 71.5862 105.735 62.9714 105.735Z" fill="#ECB736"/>
<path d="M73.034 96.0401C68.3986 98.0353 63.0182 97.649 58.3693 95.8402C53.8846 94.0948 50.0854 91.1778 46.2869 88.2901C43.7459 86.3583 39.2675 82.6709 35.9514 84.6392V99.5268C35.9514 102.955 38.7305 105.735 42.1592 105.735H72.3629C75.7908 105.735 78.5707 102.956 78.5707 99.5268V92.7747C76.8349 94.0869 74.9697 95.2071 73.034 96.0401Z" fill="#F3811F"/>
<path d="M73.1036 66.1728C73.1036 66.6329 72.7307 67.0066 72.2698 67.0066C71.8097 67.0066 71.436 66.6329 71.436 66.1728C71.436 65.7127 71.8097 65.339 72.2698 65.339C72.7307 65.339 73.1036 65.7119 73.1036 66.1728Z" fill="#F3811F"/>
<path d="M52.5361 66.4505C52.5361 66.9876 52.1005 67.4231 51.5634 67.4231C51.0264 67.4231 50.5908 66.9876 50.5908 66.4505C50.5908 65.9134 51.0264 65.4778 51.5634 65.4778C52.1005 65.4778 52.5361 65.9134 52.5361 66.4505Z" fill="#F3811F"/>
<path d="M60.0398 75.9704C60.0398 76.6225 59.5106 77.1517 58.8585 77.1517C58.2064 77.1517 57.6772 76.6225 57.6772 75.9704C57.6772 75.3183 58.2064 74.7892 58.8585 74.7892C59.5114 74.7892 60.0398 75.3183 60.0398 75.9704Z" fill="#F3811F"/>
<path d="M71.1585 75.9704C71.1585 76.3155 70.8784 76.5956 70.5333 76.5956C70.1883 76.5956 69.9082 76.3155 69.9082 75.9704C69.9082 75.6253 70.1883 75.3453 70.5333 75.3453C70.8784 75.3453 71.1585 75.6253 71.1585 75.9704Z" fill="#F3811F"/>
<path d="M70.88 85.8379C70.88 86.3369 70.4754 86.7415 69.9764 86.7415C69.4774 86.7415 69.0728 86.3369 69.0728 85.8379C69.0728 85.3389 69.4774 84.9343 69.9764 84.9343C70.4754 84.9343 70.88 85.3389 70.88 85.8379Z" fill="#F3811F"/>
<path d="M42.1124 73.4691C42.1124 74.1981 41.5213 74.7892 40.7923 74.7892C40.0632 74.7892 39.4722 74.1981 39.4722 73.4691C39.4722 72.74 40.0632 72.149 40.7923 72.149C41.5213 72.149 42.1124 72.74 42.1124 73.4691Z" fill="#F3811F"/>
<path d="M53.7859 84.7954C53.7859 85.7934 52.9767 86.6018 51.9795 86.6018C50.9815 86.6018 50.1731 85.7926 50.1731 84.7954C50.1731 83.7974 50.9823 82.989 51.9795 82.989C52.9775 82.989 53.7859 83.7974 53.7859 84.7954Z" fill="#F3811F"/>
<path d="M63.7231 72.149C64.2988 72.149 64.7655 71.6822 64.7655 71.1065C64.7655 70.5308 64.2988 70.0641 63.7231 70.0641C63.1474 70.0641 62.6807 70.5308 62.6807 71.1065C62.6807 71.6822 63.1474 72.149 63.7231 72.149Z" fill="#F3811F"/>
<path d="M62.8198 86.6717C62.8198 87.3238 62.2907 87.8529 61.6385 87.8529C60.9864 87.8529 60.4573 87.3238 60.4573 86.6717C60.4573 86.0195 60.9864 85.4904 61.6385 85.4904C62.2907 85.4904 62.8198 86.0195 62.8198 86.6717Z" fill="#F3811F"/>
<path d="M63.9313 94.3844C64.5451 94.3844 65.0427 93.8868 65.0427 93.273C65.0427 92.6591 64.5451 92.1615 63.9313 92.1615C63.3174 92.1615 62.8198 92.6591 62.8198 93.273C62.8198 93.8868 63.3174 94.3844 63.9313 94.3844Z" fill="#F3811F"/>
<path d="M71.9223 92.9945C72.1909 92.9945 72.4087 92.7768 72.4087 92.5082C72.4087 92.2396 72.1909 92.0219 71.9223 92.0219C71.6538 92.0219 71.436 92.2396 71.436 92.5082C71.436 92.7768 71.6538 92.9945 71.9223 92.9945Z" fill="#F3811F"/>
<path d="M49.0612 73.8165C49.3684 73.8165 49.6174 73.5676 49.6174 73.2604C49.6174 72.9533 49.3684 72.7043 49.0612 72.7043C48.7541 72.7043 48.5051 72.9533 48.5051 73.2604C48.5051 73.5676 48.7541 73.8165 49.0612 73.8165Z" fill="#F3811F"/>
<path d="M45.726 66.4505C45.726 66.9876 45.2905 67.4231 44.7534 67.4231C44.2163 67.4231 43.7808 66.9876 43.7808 66.4505C43.7808 65.9134 44.2163 65.4778 44.7534 65.4778C45.2905 65.4778 45.726 65.9134 45.726 66.4505Z" fill="#F3811F"/>
<path d="M44.8922 79.4452C44.8922 79.9442 44.4876 80.3488 43.9886 80.3488C43.4896 80.3488 43.085 79.9442 43.085 79.4452C43.085 78.9462 43.4896 78.5416 43.9886 78.5416C44.4876 78.5416 44.8922 78.9462 44.8922 79.4452Z" fill="#F3811F"/>
<path d="M65.7387 80.6955C65.7387 81.1175 65.3968 81.4603 64.9747 81.4603C64.5527 81.4603 64.21 81.1183 64.21 80.6955C64.21 80.2734 64.5519 79.9315 64.9747 79.9315C65.396 79.9315 65.7387 80.2734 65.7387 80.6955Z" fill="#F3811F"/>
<path d="M75.1886 73.2604C75.8024 73.2604 76.3001 72.7628 76.3001 72.149C76.3001 71.5351 75.8024 71.0375 75.1886 71.0375C74.5748 71.0375 74.0771 71.5351 74.0771 72.149C74.0771 72.7628 74.5748 73.2604 75.1886 73.2604Z" fill="#F3811F"/>
<path d="M72.7851 57.8341C71.6292 57.8341 70.7129 58.8099 70.7891 59.9634C70.901 61.6604 71.4912 64.0102 73.6602 65.6167C77.4126 68.3965 77.8291 97.7196 76.5788 101.194C76.0711 102.604 75.1754 103.762 74.2893 104.641C73.557 105.366 74.0806 106.614 75.1112 106.614H76.5788C78.344 106.614 79.7751 105.183 79.7751 103.418V61.0305C79.7751 59.2653 78.344 57.8341 76.5788 57.8341H72.7851Z" fill="white"/>
<path d="M116.714 90.4146C116.857 89.9299 117.736 89.5173 118.832 88.4582C119.626 87.6903 119.636 86.943 119.582 86.5892C119.341 86.5622 119.09 86.6653 119.101 86.9144C119.119 87.327 118.042 88.5653 117.199 89.1937C116.355 89.822 115.727 89.7323 115.224 89.4269C114.722 89.1215 114.435 89.1937 114.435 89.1937L115.786 90.9517C115.838 90.9485 116.576 90.8819 116.714 90.4146Z" fill="#6B6B3E"/>
<path d="M117.038 90.9176C116.894 90.4328 117.672 89.9624 118.294 89.5173C119.676 88.5304 120.143 87.1302 119.964 86.8073C119.892 86.6796 119.74 86.6074 119.583 86.59C119.637 86.9438 119.627 87.6903 118.833 88.459C117.738 89.5181 116.858 89.9307 116.715 90.4154C116.576 90.8827 115.839 90.9493 115.787 90.9533L116.877 92.3717C116.877 92.3717 117.181 91.4023 117.038 90.9176Z" fill="#5B5B33"/>
<path d="M117.209 92.1441C120.516 97.649 119.354 104.419 111.828 108.94C104.817 113.152 96.7159 112.748 92.9666 108.224C92.8595 108.095 92.5501 108.007 92.2129 107.95C91.6521 107.853 91.2887 107.307 91.4299 106.756C91.5339 106.352 91.6021 105.941 91.5235 105.732C89.5037 100.325 92.9531 93.15 99.8535 89.0056C107.381 84.4845 113.903 86.6391 117.209 92.1441Z" fill="#ECB736"/>
<path d="M117.209 92.144C116.8 91.4626 116.34 90.8327 115.837 90.2599C115.633 93.2611 114.988 96.3098 113.679 98.954C112.013 102.317 109.005 104.771 105.427 105.856C103.106 106.56 100.753 106.686 98.3484 106.482C97.1385 106.38 95.9414 106.214 94.7371 106.076C94.2437 106.02 93.0933 105.875 92.7974 106.123C92.369 106.482 91.9033 106.652 91.4472 106.683C91.4416 106.707 91.4361 106.731 91.4297 106.756C91.2877 107.307 91.6519 107.853 92.2127 107.95C92.5499 108.007 92.8593 108.095 92.9664 108.224C96.7157 112.748 104.816 113.151 111.828 108.94C119.354 104.419 120.516 97.649 117.209 92.144Z" fill="#F3811F"/>
<path d="M110.275 89.4833C110.275 89.6142 110.168 89.7205 110.037 89.7205C109.907 89.7205 109.8 89.6142 109.8 89.4833C109.8 89.3524 109.907 89.246 110.037 89.246C110.168 89.246 110.275 89.3524 110.275 89.4833Z" fill="#F3811F"/>
<path d="M101.969 91.0643C102.056 91.0643 102.127 90.9937 102.127 90.9065C102.127 90.8193 102.056 90.7486 101.969 90.7486C101.882 90.7486 101.811 90.8193 101.811 90.9065C101.811 90.9937 101.882 91.0643 101.969 91.0643Z" fill="#F3811F"/>
<path d="M103.314 94.3083C103.314 94.6137 103.067 94.862 102.76 94.862C102.454 94.862 102.207 94.6145 102.207 94.3083C102.207 94.0028 102.455 93.7545 102.76 93.7545C103.066 93.7545 103.314 94.002 103.314 94.3083Z" fill="#F3811F"/>
<path d="M105.924 92.3305C105.924 92.6359 105.676 92.8842 105.37 92.8842C105.065 92.8842 104.816 92.6359 104.816 92.3305C104.816 92.0251 105.064 91.7768 105.37 91.7768C105.676 91.7768 105.924 92.0251 105.924 92.3305Z" fill="#F3811F"/>
<path d="M108.138 96.1274C108.444 96.1274 108.692 95.8794 108.692 95.5736C108.692 95.2678 108.444 95.0199 108.138 95.0199C107.832 95.0199 107.584 95.2678 107.584 95.5736C107.584 95.8794 107.832 96.1274 108.138 96.1274Z" fill="#F3811F"/>
<path d="M110.195 98.5796C110.195 98.9286 109.912 99.2126 109.562 99.2126C109.212 99.2126 108.929 98.9294 108.929 98.5796C108.929 98.2297 109.212 97.9465 109.562 97.9465C109.912 97.9465 110.195 98.2297 110.195 98.5796Z" fill="#F3811F"/>
<path d="M97.5391 99.2118C97.5391 99.8671 97.0083 100.399 96.353 100.399C95.6977 100.399 95.167 99.8671 95.167 99.2118C95.167 98.5565 95.6985 98.025 96.353 98.025C97.0083 98.0258 97.5391 98.5565 97.5391 99.2118Z" fill="#F3811F"/>
<path d="M100.149 103.246C100.149 103.464 99.9723 103.642 99.7533 103.642C99.5351 103.642 99.3574 103.465 99.3574 103.246C99.3574 103.028 99.5343 102.85 99.7533 102.85C99.9723 102.851 100.149 103.028 100.149 103.246Z" fill="#F3811F"/>
<path d="M103.867 100.833C103.867 101.074 103.673 101.268 103.432 101.268C103.192 101.268 102.998 101.073 102.998 100.833C102.998 100.593 103.192 100.399 103.432 100.399C103.673 100.399 103.867 100.593 103.867 100.833Z" fill="#F3811F"/>
<path d="M99.3583 95.2174C99.3583 95.4578 99.1639 95.6522 98.9235 95.6522C98.6831 95.6522 98.4888 95.4578 98.4888 95.2174C98.4888 94.9771 98.6839 94.7827 98.9235 94.7827C99.1639 94.7827 99.3583 94.9771 99.3583 95.2174Z" fill="#F3811F"/>
<path d="M95.483 104.037C95.483 104.343 95.2347 104.591 94.9292 104.591C94.623 104.591 94.3755 104.343 94.3755 104.037C94.3755 103.731 94.6238 103.483 94.9292 103.483C95.2347 103.483 95.483 103.731 95.483 104.037Z" fill="#F3811F"/>
<path d="M94.2963 99.3309C94.2963 99.5712 94.1019 99.7656 93.8615 99.7656C93.6211 99.7656 93.4268 99.5712 93.4268 99.3309C93.4268 99.0905 93.6211 98.8961 93.8615 98.8961C94.1019 98.8953 94.2963 99.0905 94.2963 99.3309Z" fill="#F3811F"/>
<path d="M112.884 91.8561C112.884 92.1615 112.637 92.4098 112.331 92.4098C112.025 92.4098 111.777 92.1615 111.777 91.8561C111.777 91.5507 112.025 91.3023 112.331 91.3023C112.636 91.3023 112.884 91.5499 112.884 91.8561Z" fill="#F3811F"/>
<path d="M113.438 96.8786C113.438 97.1626 113.208 97.3927 112.924 97.3927C112.64 97.3927 112.41 97.1626 112.41 96.8786C112.41 96.5946 112.64 96.3646 112.924 96.3646C113.207 96.3646 113.438 96.5946 113.438 96.8786Z" fill="#F3811F"/>
<path d="M106.002 103.919C106.002 104.115 105.843 104.275 105.646 104.275C105.449 104.275 105.29 104.115 105.29 103.919C105.29 103.722 105.449 103.562 105.646 103.562C105.844 103.562 106.002 103.722 106.002 103.919Z" fill="#F3811F"/>
<path d="M107.426 98.2233C107.426 98.6382 107.09 98.9746 106.675 98.9746C106.26 98.9746 105.924 98.6382 105.924 98.2233C105.924 97.8084 106.26 97.472 106.675 97.472C107.09 97.472 107.426 97.8084 107.426 98.2233Z" fill="#F3811F"/>
<path d="M107.031 88.2179C107.031 88.436 106.855 88.6129 106.636 88.6129C106.417 88.6129 106.24 88.436 106.24 88.2179C106.24 87.9997 106.417 87.822 106.636 87.822C106.855 87.822 107.031 87.9989 107.031 88.2179Z" fill="#F3811F"/>
<path d="M98.0928 93.4372C98.311 93.4372 98.4879 93.2603 98.4879 93.0421C98.4879 92.8239 98.311 92.647 98.0928 92.647C97.8746 92.647 97.6978 92.8239 97.6978 93.0421C97.6978 93.2603 97.8746 93.4372 98.0928 93.4372Z" fill="#F3811F"/>
<path d="M102.127 98.7771C102.127 99.0175 101.932 99.2118 101.693 99.2118C101.452 99.2118 101.258 99.0175 101.258 98.7771C101.258 98.5367 101.452 98.3424 101.693 98.3424C101.932 98.3416 102.127 98.5367 102.127 98.7771Z" fill="#F3811F"/>
<path d="M104.659 97.8671C104.659 98.2162 104.376 98.5002 104.026 98.5002C103.677 98.5002 103.393 98.217 103.393 97.8671C103.393 97.5173 103.676 97.2341 104.026 97.2341C104.375 97.2348 104.659 97.5181 104.659 97.8671Z" fill="#F3811F"/>
<path d="M92.1341 111.872C99.5019 111.872 105.475 105.899 105.475 98.5312C105.475 91.1633 99.5019 85.1905 92.1341 85.1905C84.7663 85.1905 78.7935 91.1633 78.7935 98.5312C78.7935 105.899 84.7663 111.872 92.1341 111.872Z" fill="#F3811F"/>
<path d="M104.088 101.33C105.636 94.7257 101.537 88.1166 94.9321 86.5685C88.3274 85.0205 81.7183 89.1197 80.1702 95.7244C78.6221 102.329 82.7214 108.938 89.326 110.486C95.9307 112.034 102.54 107.935 104.088 101.33Z" fill="#ECB736"/>
<path d="M92.134 110.367C98.6707 110.367 103.97 105.068 103.97 98.5311C103.97 91.9945 98.6707 86.6954 92.134 86.6954C85.5974 86.6954 80.2983 91.9945 80.2983 98.5311C80.2983 105.068 85.5974 110.367 92.134 110.367Z" fill="#EED776"/>
<path d="M91.3187 87.561C91.8058 87.4848 92.3532 87.4555 92.9196 87.5261C93.9565 87.6554 94.607 88.6344 94.3714 89.6522L92.2905 97.2991C92.2469 97.4594 92.02 97.4594 91.9764 97.2991L89.9296 89.8133C89.6099 88.7962 90.2644 87.7252 91.3187 87.561Z" fill="#EBB646"/>
<path d="M92.9501 109.501C92.463 109.577 91.9156 109.607 91.3491 109.536C90.3123 109.406 89.6617 108.428 89.8974 107.41L91.9783 99.7632C92.0219 99.603 92.2488 99.603 92.2924 99.7632L94.3392 107.249C94.6589 108.266 94.0036 109.338 92.9501 109.501Z" fill="#EBB646"/>
<path d="M92.4435 91.8973C92.4435 92.6423 92.3047 93.246 92.1341 93.246C91.9635 93.246 91.8247 92.6423 91.8247 91.8973C91.8247 91.1524 91.9635 90.5487 92.1341 90.5487C92.3047 90.5487 92.4435 91.1524 92.4435 91.8973Z" fill="#FEDCBD"/>
<path d="M92.4435 105.165C92.4435 105.91 92.3047 106.514 92.1341 106.514C91.9635 106.514 91.8247 105.91 91.8247 105.165C91.8247 104.42 91.9635 103.816 92.1341 103.816C92.3047 103.816 92.4435 104.42 92.4435 105.165Z" fill="#FEDCBD"/>
<path d="M103.105 97.7156C103.18 98.2028 103.21 98.7501 103.139 99.3166C103.009 100.353 102.031 101.004 101.013 100.768L93.3673 98.6875C93.207 98.6438 93.207 98.4169 93.3673 98.3733L100.853 96.3265C101.869 96.0068 102.94 96.6621 103.105 97.7156Z" fill="#EBB646"/>
<path d="M81.1642 99.3469C81.0888 98.8598 81.0587 98.3124 81.1293 97.746C81.2594 96.7091 82.2376 96.0585 83.2554 96.2942L90.9015 98.3751C91.0618 98.4187 91.0618 98.6456 90.9015 98.6892L83.4157 100.736C82.3994 101.056 81.3276 100.401 81.1642 99.3469Z" fill="#EBB646"/>
<path d="M98.7681 98.8406C98.0232 98.8406 97.4194 98.7018 97.4194 98.5312C97.4194 98.3607 98.0232 98.2218 98.7681 98.2218C99.513 98.2218 100.117 98.3607 100.117 98.5312C100.117 98.7026 99.513 98.8406 98.7681 98.8406Z" fill="#FEDCBD"/>
<path d="M85.5005 98.8406C84.7556 98.8406 84.1519 98.7018 84.1519 98.5312C84.1519 98.3606 84.7556 98.2218 85.5005 98.2218C86.2454 98.2218 86.8492 98.3606 86.8492 98.5312C86.8492 98.7018 86.2454 98.8406 85.5005 98.8406Z" fill="#FEDCBD"/>
<path d="M83.5694 91.6276C83.8471 91.2198 84.1993 90.8002 84.6388 90.4352C85.4425 89.7673 86.6015 89.9608 87.1838 90.8287L91.3425 97.5744C91.4297 97.7156 91.2743 97.8814 91.1275 97.8037L84.2644 94.1806C83.3029 93.7196 82.9681 92.509 83.5694 91.6276Z" fill="#EBB646"/>
<path d="M100.698 105.435C100.421 105.842 100.068 106.262 99.629 106.627C98.8253 107.295 97.6663 107.101 97.0848 106.234L92.9261 99.4879C92.8389 99.3467 92.9943 99.1809 93.1411 99.2586L100.004 102.882C100.965 103.343 101.3 104.553 100.698 105.435Z" fill="#EBB646"/>
<path d="M87.5034 93.7712C88.0476 94.2805 88.3935 94.7946 88.2761 94.9191C88.1595 95.0437 87.624 94.7319 87.0797 94.2234C86.5363 93.714 86.1896 93.2 86.307 93.0754C86.4237 92.9501 86.9591 93.2619 87.5034 93.7712Z" fill="#FEDCBD"/>
<path d="M97.188 102.84C97.7314 103.349 98.0781 103.863 97.9607 103.988C97.8441 104.112 97.3086 103.8 96.7643 103.292C96.2201 102.783 95.8742 102.269 95.9916 102.144C96.1083 102.019 96.6438 102.33 97.188 102.84Z" fill="#FEDCBD"/>
<path d="M99.0368 89.9664C99.4445 90.2441 99.8642 90.5963 100.229 91.0358C100.897 91.8394 100.704 92.9985 99.8357 93.58L93.09 97.7386C92.9488 97.8259 92.783 97.6704 92.8607 97.5237L96.4838 90.6606C96.9456 89.7006 98.1562 89.3658 99.0368 89.9664Z" fill="#EBB646"/>
<path d="M85.2306 107.096C84.8229 106.818 84.4032 106.466 84.0383 106.027C83.3703 105.223 83.5639 104.064 84.4318 103.482L91.1774 99.3237C91.3187 99.2364 91.4845 99.3919 91.4067 99.5387L87.7836 106.402C87.3219 107.362 86.112 107.696 85.2306 107.096Z" fill="#EBB646"/>
<path d="M96.8946 93.9013C96.3853 94.4447 95.8712 94.7914 95.7466 94.674C95.6221 94.5574 95.9339 94.0219 96.4432 93.4777C96.9525 92.9342 97.4666 92.5876 97.5911 92.705C97.7157 92.8216 97.4039 93.3571 96.8946 93.9013Z" fill="#FEDCBD"/>
<path d="M87.8257 103.585C87.3164 104.128 86.8023 104.475 86.6778 104.357C86.5532 104.241 86.865 103.705 87.3736 103.161C87.8829 102.618 88.3969 102.271 88.5215 102.388C88.6461 102.506 88.3343 103.041 87.8257 103.585Z" fill="#FEDCBD"/>
<path d="M61.4195 74.3632L61.1585 74.1291C61.0681 74.049 60.9539 73.961 60.842 73.8943C60.6452 73.7777 60.4247 73.7095 60.2026 73.6841C60.1748 73.6801 60.1462 73.6762 60.1185 73.6746C60.109 73.6738 60.0994 73.6722 60.0907 73.6714C59.5695 73.6365 59.0594 73.8832 58.7722 74.2696L58.8182 74.3148C59.1847 74.0332 59.6417 73.9261 60.0502 74.0125C60.2541 74.0554 60.4437 74.1395 60.6064 74.2577C60.6881 74.3211 60.7539 74.383 60.8301 74.4663L61.0705 74.721C61.6504 75.331 62.2398 75.9308 62.8586 76.5012C63.0014 76.7114 63.0506 76.9851 62.98 77.2342C62.9602 77.3112 62.9277 77.385 62.8888 77.4548C62.8428 77.527 62.8055 77.5785 62.7325 77.6547C62.5968 77.7999 62.4644 77.9474 62.3327 78.0966C61.8027 78.6884 61.2839 79.2921 60.7976 79.9276C61.4203 79.4262 62.0114 78.8923 62.5897 78.3473C62.7357 78.2124 62.8801 78.076 63.0213 77.9363C63.0895 77.8737 63.1807 77.7729 63.2434 77.6793C63.3077 77.5801 63.3608 77.473 63.3973 77.3588C63.4314 77.2525 63.4497 77.1422 63.4544 77.0312C63.5004 77.0708 63.5457 77.1113 63.5925 77.1509L63.8606 77.3778L63.9756 77.4826C64.0082 77.5214 64.0455 77.5579 64.0764 77.5992C64.2041 77.7626 64.2906 77.9601 64.3326 78.1696C64.3707 78.3798 64.3549 78.6019 64.2906 78.8098C64.2216 79.0161 64.1097 79.208 63.9487 79.3627C63.7829 79.5278 63.621 79.6959 63.4513 79.8562C63.1173 80.183 62.7714 80.4972 62.4247 80.8122C62.0788 81.1271 61.7281 81.4373 61.3878 81.7578C61.2157 81.9157 61.0491 82.0791 60.8793 82.2409C60.7341 82.3822 60.5778 82.4789 60.3985 82.5392C60.3589 82.5527 60.3184 82.5638 60.2771 82.5734L59.9574 80.6749L59.7488 82.5765C59.602 82.5456 59.4616 82.4893 59.3378 82.4083C59.2998 82.3845 59.2649 82.3536 59.2276 82.3274L59.1244 82.233L58.8745 81.9879L58.3732 81.4984C57.6941 80.8574 57.0094 80.2211 56.3049 79.6063L56.0416 79.3746C55.9559 79.3009 55.8916 79.2374 55.825 79.1573C55.7004 78.9994 55.61 78.8106 55.5624 78.6075C55.4616 78.1989 55.5616 77.734 55.8408 77.3675L55.7948 77.3223C55.4228 77.6246 55.1935 78.1363 55.2363 78.6543C55.2554 78.9121 55.3339 79.1716 55.4735 79.3992C55.5418 79.5103 55.6322 79.623 55.7139 79.7118L55.9519 79.9696C56.5842 80.659 57.2371 81.327 57.8948 81.9903L58.3962 82.4789L58.6476 82.7233C58.6944 82.7677 58.7532 82.8169 58.8063 82.8605C58.865 82.901 58.9221 82.9438 58.984 82.9795C59.4743 83.2754 60.0947 83.323 60.6143 83.1088C60.8729 83.0073 61.1133 82.8367 61.2894 82.6384C61.4465 82.4655 61.606 82.2949 61.7591 82.118C62.0709 81.7697 62.3715 81.4111 62.6786 81.0581C62.9848 80.7043 63.2902 80.3496 63.6091 80.0085C63.7654 79.8348 63.9296 79.669 64.0899 79.4992C64.2605 79.3247 64.4064 79.1136 64.4881 78.8772C64.6674 78.4115 64.6317 77.8602 64.3747 77.4032C64.3438 77.3461 64.3049 77.2929 64.2692 77.2374L64.1454 77.0859L63.9122 76.8233C63.7559 76.6496 63.5988 76.4758 63.4386 76.3053C62.796 75.6278 62.1129 74.9899 61.4195 74.3632Z" fill="white"/>
<path d="M57.8497 78.7209C58.1749 78.9423 58.5058 79.1565 58.8786 79.3215C58.6486 78.9851 58.3764 78.6995 58.0996 78.4202C57.8211 78.1489 57.5292 77.8935 57.2237 77.6547C57.0579 77.5008 56.9389 77.2913 56.9024 77.0486C56.8636 76.8042 56.9104 76.5353 57.0508 76.2727C56.9215 76.3465 56.8088 76.4591 56.7271 76.594C56.6438 76.7289 56.5938 76.8875 56.5772 77.0518C56.5653 77.216 56.5811 77.3873 56.6406 77.5476C56.6978 77.7078 56.7922 77.857 56.912 77.9807L56.9135 77.9823L56.9254 77.9926C57.2206 78.2521 57.5284 78.4948 57.8497 78.7209Z" fill="white"/>
<path d="M67.1236 71.6096L67.5552 71.6968C67.7043 71.7254 67.8844 71.7476 68.0478 71.7484C68.3358 71.7484 68.6175 71.681 68.8745 71.5675C68.907 71.554 68.9395 71.5398 68.9713 71.5239C68.9816 71.5183 68.9935 71.5144 69.0038 71.5088C69.5901 71.2137 69.9852 70.6203 70.0486 70.0197L69.9701 70.0007C69.7535 70.5394 69.3275 70.9479 68.8293 71.1153C68.5818 71.1994 68.3215 71.2296 68.0708 71.205C67.9415 71.1883 67.8313 71.1637 67.6948 71.1225L67.2712 71.0003C66.2541 70.7099 65.2323 70.4378 64.1978 70.2165C63.9083 70.08 63.6806 69.8159 63.5973 69.5009C63.5695 69.4049 63.5576 69.3049 63.5552 69.2042C63.5592 69.0971 63.5663 69.0178 63.5965 68.8877C63.6504 68.6441 63.7004 68.399 63.7472 68.1538C63.9432 67.1741 64.1185 66.1895 64.2391 65.1915C63.8852 66.1324 63.587 67.0868 63.3093 68.0467C63.2379 68.2863 63.1689 68.5259 63.1046 68.7671C63.0705 68.8781 63.0364 69.0455 63.0285 69.1875C63.0229 69.3367 63.0332 69.4866 63.0657 69.6326C63.0967 69.7698 63.1482 69.8999 63.2141 70.0237C63.1387 70.0102 63.0641 69.9951 62.988 69.9825L62.5524 69.9087L62.3613 69.869C62.301 69.8476 62.2375 69.8325 62.1772 69.8071C61.9344 69.7119 61.7147 69.5533 61.5354 69.3526C61.3593 69.1495 61.2347 68.8988 61.1721 68.633C61.1141 68.3657 61.1134 68.0864 61.1887 67.8159C61.2625 67.5319 61.3307 67.2463 61.4116 66.9638C61.564 66.3966 61.7377 65.8349 61.9114 65.2733C62.0836 64.7116 62.2661 64.1515 62.4295 63.5874C62.5152 63.3066 62.5913 63.0226 62.6714 62.7402C62.7381 62.495 62.8452 62.2895 63.0015 62.1095C63.0356 62.069 63.0729 62.0317 63.111 61.9952L64.6706 63.8461L63.6814 61.6541C63.8599 61.5938 64.0479 61.5644 64.2343 61.5732C64.2914 61.5748 64.3478 61.5859 64.4049 61.5898L64.577 61.6263L65.0046 61.7318L65.8598 61.9413C67.0046 62.2007 68.1518 62.4522 69.3077 62.668L69.7408 62.7497C69.8812 62.7751 69.9907 62.802 70.1137 62.8465C70.3493 62.9377 70.5682 63.0845 70.7499 63.2741C71.1204 63.6517 71.3092 64.2181 71.241 64.7941L71.3195 64.8131C71.529 64.2483 71.4512 63.5478 71.0728 63.0146C70.8872 62.7473 70.6365 62.5172 70.3398 62.3601C70.1946 62.284 70.0256 62.2197 69.8804 62.1753L69.4584 62.0484C68.3334 61.7064 67.1998 61.4002 66.0645 61.1027L65.2093 60.8941L64.7817 60.7909C64.7024 60.7735 64.608 60.7576 64.5215 60.7433C64.4318 60.7378 64.343 60.7267 64.2534 60.7275C63.5338 60.7211 62.8309 61.0654 62.4057 61.6295C62.1907 61.9048 62.0392 62.2427 61.9757 62.5696C61.9162 62.8576 61.8527 63.144 61.7996 63.4327C61.6845 64.0087 61.5878 64.5894 61.4822 65.1677C61.3767 65.7461 61.2728 66.3252 61.1459 66.898C61.0872 67.186 61.0166 67.4708 60.9507 67.7564C60.8777 68.0539 60.8547 68.3768 60.9166 68.6838C61.0197 69.3034 61.4109 69.8769 61.9813 70.207C62.0519 70.249 62.128 70.2815 62.2018 70.3188L62.4327 70.4037L62.8531 70.5386C63.134 70.6266 63.4148 70.7139 63.6964 70.7964C64.8261 71.1201 65.9725 71.374 67.1236 71.6096Z" fill="white"/>
<path d="M68.2039 64.6116C67.7104 64.5799 67.2146 64.5593 66.7061 64.6196C67.1702 64.8361 67.6469 64.9718 68.1253 65.0972C68.5997 65.2138 69.0789 65.3026 69.5628 65.3661C69.8405 65.4264 70.1031 65.5779 70.2975 65.8175C70.4966 66.0571 70.6172 66.3784 70.6322 66.752C70.7259 66.5894 70.775 66.3958 70.7766 66.1975C70.7814 65.9984 70.733 65.7945 70.6457 65.6065C70.5537 65.4208 70.4268 65.2455 70.2602 65.1106C70.096 64.9734 69.8984 64.8718 69.6898 64.8155L69.6866 64.8147L69.6676 64.8108C69.1844 64.7172 68.6957 64.6505 68.2039 64.6116Z" fill="white"/>
<path d="M52.438 86.1846L52.4269 85.9141C52.4222 85.8205 52.4095 85.7102 52.3857 85.6118C52.3436 85.4397 52.2627 85.281 52.1572 85.1446C52.1437 85.1271 52.131 85.1097 52.1167 85.093C52.112 85.0874 52.108 85.0811 52.1033 85.0756C51.8415 84.7685 51.4297 84.6194 51.0608 84.6686V84.7186C51.4146 84.7693 51.7209 84.9645 51.893 85.2374C51.9795 85.3731 52.035 85.5238 52.0572 85.6769C52.066 85.7562 52.0676 85.826 52.0628 85.9133L52.0517 86.1838C52.0271 86.8336 52.0136 87.4841 52.0319 88.1338C51.9922 88.3266 51.8676 88.5011 51.6915 88.5971C51.6384 88.6273 51.5804 88.6495 51.5202 88.6654C51.4551 88.6789 51.4067 88.686 51.325 88.6868C51.1719 88.69 51.018 88.6963 50.8649 88.7034C50.2508 88.7296 49.6376 88.7685 49.0236 88.8423C49.6376 88.9161 50.2508 88.9549 50.8649 88.9811C51.018 88.989 51.1719 88.9954 51.325 88.9986C51.3964 89.0025 51.5011 88.9986 51.5876 88.9827C51.6772 88.9645 51.7653 88.9367 51.8478 88.8954C51.9255 88.8574 51.9962 88.8074 52.0596 88.7495C52.0628 88.7963 52.0644 88.8431 52.0676 88.8907L52.0866 89.1612L52.0906 89.281C52.0866 89.3199 52.0866 89.3603 52.0802 89.4C52.0588 89.5587 51.9962 89.7134 51.9025 89.8498C51.8065 89.9847 51.6757 90.0957 51.5257 90.1719C51.3742 90.2457 51.2076 90.2869 51.0354 90.2814C50.8546 90.279 50.6745 90.2798 50.4944 90.2727C50.1334 90.2647 49.7725 90.2425 49.4115 90.2211C49.0505 90.2005 48.6896 90.1727 48.3286 90.1576C48.1477 90.1473 47.9676 90.1433 47.7875 90.137C47.6313 90.133 47.4932 90.0989 47.3623 90.0323C47.333 90.018 47.3052 90.0013 47.2782 89.9839L48.1556 88.782L46.991 89.6927C46.9292 89.5944 46.8839 89.4865 46.8625 89.3746C46.8554 89.3405 46.853 89.3048 46.8474 89.2707L46.8443 89.1628L46.8451 88.8923V88.3512C46.8332 87.6293 46.8157 86.9074 46.7753 86.1854L46.761 85.9149C46.7554 85.8276 46.7562 85.7578 46.7641 85.6777C46.7848 85.5238 46.8403 85.3715 46.9268 85.235C47.0981 84.9589 47.4091 84.763 47.7629 84.7194V84.6694C47.3948 84.6265 46.9879 84.7757 46.7245 85.0795C46.592 85.2295 46.4912 85.4127 46.4405 85.6126C46.4159 85.7102 46.4024 85.8213 46.3968 85.9141L46.3826 86.1846C46.3429 86.9066 46.3254 87.6285 46.3127 88.3504V88.8915L46.3135 89.162C46.3143 89.212 46.3191 89.2707 46.3231 89.3238C46.3326 89.3778 46.3389 89.4333 46.3524 89.4865C46.4532 89.9172 46.7618 90.2861 47.1608 90.4583C47.3568 90.5471 47.5805 90.5876 47.7852 90.5781C47.9652 90.5717 48.1461 90.5678 48.3262 90.5575C48.6872 90.5424 49.0481 90.5146 49.4091 90.494C49.7701 90.4726 50.131 90.4504 50.492 90.4424C50.6721 90.4353 50.853 90.4361 51.0331 90.4337C51.2219 90.4337 51.417 90.4004 51.5916 90.3187C51.9462 90.1663 52.2318 89.849 52.346 89.4603C52.3611 89.4119 52.369 89.3619 52.3801 89.3119L52.3968 89.162L52.4158 88.8915C52.4277 88.7114 52.4388 88.5305 52.4468 88.3504C52.4809 87.6277 52.4658 86.9058 52.438 86.1846Z" fill="white"/>
<path d="M48.1 86.5607C48.1532 86.8597 48.2127 87.1588 48.3229 87.4539C48.3848 87.1453 48.3959 86.8407 48.4015 86.5361C48.4015 86.2354 48.3848 85.9363 48.3523 85.638C48.3475 85.4635 48.3999 85.2842 48.5149 85.1335C48.6292 84.9795 48.8029 84.8605 49.0243 84.7971C48.9132 84.7653 48.7902 84.7638 48.672 84.7915C48.5522 84.8177 48.438 84.8764 48.338 84.9557C48.2404 85.0375 48.1548 85.139 48.0984 85.2588C48.0405 85.377 48.0088 85.5095 48.0056 85.6428V85.6444L48.0064 85.6563C48.0199 85.9593 48.0516 86.2608 48.1 86.5607Z" fill="white"/>
<path d="M50.2652 73.9602L50.6762 73.8007C50.8174 73.7444 50.9808 73.6667 51.1188 73.5786C51.3616 73.4239 51.5623 73.2153 51.7178 72.9804C51.7376 72.9511 51.7583 72.9217 51.7757 72.8916C51.7821 72.8813 51.7892 72.8717 51.7948 72.8622C52.1288 72.2974 52.1422 71.585 51.8717 71.0447L51.7948 71.0709C51.9027 71.6413 51.7646 72.2149 51.4354 72.625C51.272 72.8297 51.0697 72.9947 50.8451 73.1097C50.7269 73.1653 50.6214 73.2042 50.4842 73.2422L50.0621 73.3676C49.049 73.6714 48.0415 73.9935 47.0507 74.364C46.7333 74.4053 46.3993 74.3053 46.159 74.0847C46.0836 74.0189 46.0201 73.9412 45.9638 73.8579C45.9091 73.765 45.8726 73.6944 45.8281 73.5683C45.7425 73.3343 45.652 73.101 45.5592 72.8694C45.1958 71.9388 44.8135 71.0146 44.3763 70.1094C44.5858 71.0923 44.8492 72.057 45.1324 73.0153C45.2014 73.2557 45.2728 73.4945 45.3482 73.7325C45.3799 73.8444 45.441 74.0038 45.5108 74.1284C45.5862 74.2569 45.6758 74.3775 45.7821 74.483C45.8813 74.5822 45.9955 74.6647 46.1177 74.7329C46.0471 74.7622 45.9757 74.79 45.9051 74.8194L45.4989 74.9915L45.3164 75.0613C45.2546 75.0764 45.1919 75.097 45.1284 75.1089C44.873 75.1597 44.6016 75.1446 44.343 75.0724C44.0852 74.9963 43.8448 74.8527 43.6489 74.6623C43.4561 74.4679 43.3045 74.2339 43.222 73.965C43.1308 73.6857 43.034 73.4088 42.9507 73.1272C42.773 72.5679 42.6175 72.0007 42.4604 71.4342C42.3026 70.8678 42.1542 70.2982 41.9884 69.7349C41.9091 69.4517 41.8202 69.1725 41.7353 68.8908C41.6592 68.6481 41.6386 68.4172 41.6735 68.1816C41.6806 68.1292 41.6917 68.0777 41.7036 68.0269L44.0154 68.7448L42.0003 67.4319C42.1185 67.2843 42.2605 67.159 42.4224 67.0662C42.4716 67.0368 42.5247 67.0154 42.5747 66.9884L42.7397 66.9265L43.157 66.7853L43.99 66.5005C45.0943 66.1015 46.1962 65.6953 47.2855 65.2534L47.6948 65.0892C47.8265 65.0344 47.9336 64.9987 48.0614 64.9694C48.3089 64.9194 48.5723 64.925 48.8277 64.9861C49.3434 65.1043 49.8075 65.4795 50.0613 66.0015L50.1383 65.9753C50.0106 65.3867 49.5671 64.8393 48.961 64.5941C48.6611 64.4688 48.3255 64.4101 47.9907 64.4379C47.8273 64.4521 47.6504 64.4886 47.5036 64.5299L47.08 64.6505C45.9479 64.9694 44.8285 65.3224 43.7115 65.6842L42.8785 65.969L42.4604 66.1094C42.3843 66.1372 42.2962 66.1745 42.2161 66.2094C42.1376 66.253 42.0566 66.2919 41.9813 66.3411C41.372 66.7234 40.9658 67.3922 40.9119 68.0967C40.8785 68.4442 40.9341 68.8107 41.0563 69.1209C41.1618 69.3954 41.2625 69.6707 41.3728 69.9428C41.5862 70.4902 41.8186 71.0312 42.0408 71.5754C42.2637 72.1197 42.4882 72.6631 42.6905 73.2145C42.7968 73.4882 42.8896 73.7666 42.9888 74.0427C43.0872 74.3331 43.2419 74.6163 43.46 74.8424C43.8805 75.3081 44.5199 75.581 45.1776 75.5508C45.2593 75.5484 45.341 75.5342 45.4235 75.5262L45.6639 75.4731L46.0907 75.3604C46.3747 75.2835 46.658 75.2057 46.9396 75.1232C48.0669 74.7868 49.1688 74.383 50.2652 73.9602Z" fill="white"/>
<path d="M47.4027 67.4842C46.9703 67.7238 46.5411 67.9729 46.1453 68.2982C46.653 68.2308 47.1274 68.088 47.5979 67.9356C48.0604 67.7778 48.5118 67.5945 48.9537 67.3875C49.2202 67.2883 49.5233 67.2748 49.816 67.3716C50.1127 67.466 50.388 67.6715 50.6014 67.9777C50.5927 67.7905 50.53 67.6009 50.4245 67.4327C50.3206 67.2621 50.1706 67.1169 49.9953 67.0051C49.8184 66.898 49.6161 66.8194 49.4035 66.7948C49.1909 66.7679 48.9703 66.7885 48.764 66.8543L48.7609 66.8551L48.7426 66.8623C48.2849 67.0447 47.8382 67.2518 47.4027 67.4842Z" fill="white"/>
</svg>
