<svg width="138" height="138" viewBox="0 0 138 138" fill="none" xmlns="http://www.w3.org/2000/svg">
<path d="M118.999 89.3526C118.999 93.2148 116.393 96.822 111.879 99.8815V99.8832C95.2056 111.31 58.2084 111.962 38.9105 104.079V104.077C26.7248 99.2534 19.1543 91.6873 26.3109 82.6077C33.826 73.4804 55.8927 69.1423 70.4252 69.3249C84.4269 69.1297 117.183 72.8661 118.999 89.3526Z" fill="#FF9D00"/>
<path opacity="0.1" d="M118.999 89.3526C118.999 93.2148 116.393 96.822 111.878 99.8816V99.8832C104.958 104.575 93.553 107.977 80.1743 109.035C120.922 99.8829 87.7743 90.591 113.999 80.4186C116.737 82.6533 119.065 85.9754 118.999 89.3526Z" fill="black"/>
<path d="M117.903 77.772C113.241 105.122 35.4736 101.862 26.3115 82.6072C22.5263 75.5021 27.0119 69.7676 35.1085 65.2696C48.8532 57.2371 78.7114 55.6132 95.8627 60.7302C104.78 63.3692 117.116 67.7021 117.903 77.772Z" fill="#D34223"/>
<path d="M30.5801 71.747C30.5801 71.747 24.4468 76.7392 23.5951 80.4232C23.1109 82.5182 25.5039 84.1448 27.242 82.8791C27.4432 82.6922 30.0588 81.249 30.3393 85.9751C30.359 86.5899 30.4834 87.2015 30.7461 87.7576C33.5053 92.7007 38.1459 86.4921 39.735 89.3526C39.4678 89.5027 43.2272 93.3314 46.9329 90.8172C47.2636 90.6252 48.0564 90.2751 48.6598 90.8919C50.2864 92.3274 53.0641 93.7086 54.2888 86.8488L30.5801 71.747Z" fill="#76BA00"/>
<path d="M30.9596 76.7112C30.9334 76.7112 30.9077 76.6986 30.892 76.6751C30.8672 76.6379 30.8773 76.5876 30.9146 76.5629L34.0687 74.4646C34.1059 74.4397 34.1562 74.4499 34.181 74.4872C34.2056 74.5244 34.1955 74.5747 34.1584 74.5994L31.0042 76.6977C30.9906 76.7068 30.9751 76.7112 30.9596 76.7112Z" fill="#598C00"/>
<path d="M35.8226 81.2959C35.8086 81.2959 35.7943 81.2923 35.7814 81.2846C35.743 81.2617 35.7302 81.2121 35.753 81.1737L38.257 76.9484C38.2797 76.9098 38.3293 76.8974 38.3679 76.92C38.4063 76.9429 38.4191 76.9925 38.3963 77.0309L35.8924 81.2562C35.8773 81.2819 35.8503 81.2959 35.8226 81.2959Z" fill="#598C00"/>
<path d="M42.7081 84.2691C42.7033 84.2691 42.6984 84.2688 42.6935 84.2678C42.6494 84.2598 42.6203 84.2178 42.6283 84.1737C42.936 82.4818 42.7804 80.1949 42.7788 80.1719C42.7757 80.1273 42.8094 80.0887 42.8538 80.0854C42.901 80.0815 42.9373 80.1158 42.9404 80.1604C42.942 80.1836 43.099 82.4908 42.7879 84.2024C42.7806 84.2418 42.7465 84.2691 42.7081 84.2691Z" fill="#598C00"/>
<path d="M115.706 71.6689C115.746 72.9834 114.905 74.2557 111.566 74.3293C111.593 74.324 113.097 77.4375 111.566 78.8678C110.497 79.6646 108.89 80.3308 106.245 77.4592C106.245 77.4592 104.524 85.2838 99.6722 78.2416C95.0523 87.473 93.4142 78.2977 94.3358 71.8112C94.4178 71.046 94.5839 69.4546 94.6644 68.6955C96.5783 68.8731 110.822 66.518 111.253 58.6799C113.266 60.3936 118.581 65.2727 114.539 68.6955C114.539 68.6955 115.662 70.2102 115.706 71.6689Z" fill="#76BA00"/>
<path d="M110.94 67.6808C110.936 67.6808 110.932 67.6806 110.928 67.68C108.723 67.3651 107.309 64.9163 107.249 64.8123C107.227 64.7733 107.241 64.7241 107.28 64.7019C107.318 64.68 107.368 64.6933 107.39 64.7323C107.404 64.7571 108.826 67.2162 110.951 67.5197C110.995 67.5261 111.026 67.5673 111.02 67.6114C111.014 67.6516 110.979 67.6808 110.94 67.6808Z" fill="#598C00"/>
<path d="M107.966 71.4368C107.951 71.4368 107.936 71.4328 107.923 71.4243C106.206 70.3318 103.965 66.8002 103.871 66.6505C103.847 66.6126 103.858 66.5626 103.896 66.5388C103.934 66.5147 103.984 66.5264 104.008 66.5641C104.031 66.6005 106.324 70.2148 108.01 71.2878C108.048 71.3119 108.059 71.3618 108.035 71.3995C108.019 71.4235 107.993 71.4368 107.966 71.4368Z" fill="#598C00"/>
<path d="M101.863 73.1583C101.853 73.1583 101.843 73.1565 101.833 73.1527C100.239 72.5149 99.9566 68.0519 99.9454 67.8622C99.9429 67.8176 99.9768 67.7793 100.021 67.7766C100.066 67.7731 100.104 67.8079 100.107 67.8526C100.11 67.8979 100.394 72.4025 101.893 73.0022C101.935 73.019 101.955 73.0661 101.939 73.1075C101.925 73.139 101.895 73.1583 101.863 73.1583Z" fill="#598C00"/>
<path d="M94.6439 69.963C91.2998 89.2242 69.2255 86.2752 68.7036 66.9771C77.6847 66.9186 86.5293 67.8628 94.6439 69.963Z" fill="#FF5933"/>
<path d="M90.9178 69.0882C87.983 81.2243 74.0276 79.3073 72.9102 67.0226C79.3483 67.2102 85.4343 67.9349 90.9178 69.0882Z" fill="#F94A2D"/>
<path d="M76.5892 73.5494C76.5753 73.5494 76.5611 73.5458 76.5481 73.5381C76.5097 73.5155 76.4968 73.466 76.5195 73.4274L78.726 69.6817C78.7488 69.6433 78.7985 69.6305 78.8368 69.6531C78.8752 69.6757 78.8881 69.7253 78.8654 69.7639L76.6589 73.5095C76.644 73.5352 76.617 73.5494 76.5892 73.5494Z" fill="#FF2500"/>
<path d="M81.0491 74.7232C81.0473 74.7232 81.0455 74.7232 81.0437 74.723C80.999 74.7199 80.9654 74.6815 80.9685 74.6368L81.2798 69.968C81.2827 69.9232 81.32 69.886 81.3659 69.8925C81.4106 69.8956 81.4443 69.9341 81.4414 69.9787L81.13 74.6476C81.1271 74.6904 81.0914 74.7232 81.0491 74.7232Z" fill="#FF2500"/>
<path d="M85.4314 74.7232C85.3928 74.7232 85.3587 74.6957 85.3518 74.6563L84.6023 70.4077C84.5945 70.3636 84.624 70.3215 84.6679 70.3139C84.7117 70.3053 84.7541 70.3356 84.7617 70.3795L85.5112 74.6281C85.519 74.6722 85.4895 74.7142 85.4455 74.7219C85.4409 74.7228 85.4361 74.7232 85.4314 74.7232Z" fill="#FF2500"/>
<path d="M73.6157 78.2806C73.5915 84.2649 63.8583 84.2643 63.835 78.2802C63.8592 72.2964 73.5924 72.2968 73.6157 78.2806Z" fill="#F94A2D"/>
<path d="M71.9731 72.8424L57.4192 90.0567C57.4192 90.0567 27.9202 68.3823 19 69.3214V66.348C19 66.348 25.8857 54.6111 35.9013 53.046L70.887 72.2461L71.9731 72.8424Z" fill="#FFDB45"/>
<path d="M71.9731 72.8425L57.4192 90.0567C57.4192 90.0567 27.9202 68.3824 19 69.3215V66.3528C29.3574 68.2195 44.5915 79.7825 56.8714 87.3182L70.887 72.2462L71.9731 72.8425Z" fill="#F1CE32"/>
<path d="M111.878 59.6971C111.952 66.552 103.292 67.1346 98.5609 68.9805C83.0033 73.985 62.6787 73.9979 51.6943 71.0784C43.6445 68.8208 33.0993 66.6879 32.0416 61.0043C31.0189 45.1629 45.1066 32.3317 63.4827 29.1699C83.9103 24.7495 112.38 38.2002 111.878 59.6971Z" fill="#FF9D00"/>
<path d="M48.7331 42.248C48.7475 43.7719 47.1537 43.7719 47.1681 42.248C47.1537 40.7242 48.7475 40.7242 48.7331 42.248Z" fill="#FFDB45"/>
<path d="M57.2619 35.8317C57.2769 36.847 55.6819 36.847 55.6969 35.8317C55.6821 34.8167 57.2769 34.8165 57.2619 35.8317Z" fill="#FFDB45"/>
<path d="M67.1435 35.5893C66.1222 37.227 64.6414 36.2859 65.6907 34.6659C66.7121 33.0282 68.193 33.9693 67.1435 35.5893Z" fill="#FFDB45"/>
<path d="M74.164 38.5705C74.221 39.4788 70.5072 39.4789 70.5646 38.5704C70.5074 37.6622 74.2214 37.6621 74.164 38.5705Z" fill="#FFDB45"/>
<path d="M77.9545 31.4629C76.5578 32.4791 77.6024 33.8872 78.9801 32.8456C80.3767 31.8294 79.3321 30.4211 77.9545 31.4629Z" fill="#FFDB45"/>
<path d="M95.5748 40.9036C97.6505 40.0755 98.3453 41.86 96.2562 42.6535C94.1809 43.4817 93.4859 41.6971 95.5748 40.9036Z" fill="#FFDB45"/>
<path d="M90.9079 35.8318C90.9278 37.6602 88.6971 37.6602 88.7169 35.8316C88.6973 34.0033 90.928 34.0033 90.9079 35.8318Z" fill="#FFDB45"/>
<path opacity="0.4" d="M41.4927 46.5056C35.9939 53.6736 33.049 51.428 38.5062 44.2281C44.0048 37.06 46.9496 39.3058 41.4927 46.5056Z" fill="white"/>
<path opacity="0.4" d="M35.6233 52.756C34.9697 54.1226 33.5744 53.4393 34.2536 52.0851C34.907 50.7186 36.3023 51.4017 35.6233 52.756Z" fill="white"/>
<path d="M85.436 30.3138C85.4486 30.3155 85.461 30.32 85.4736 30.3247C85.4548 30.3202 85.4422 30.3155 85.436 30.3138Z" fill="black"/>
<path opacity="0.15" d="M68.4202 56.5592C52.4143 75.1101 32.9541 59.7426 31.9336 58.9163C32.3615 39.5307 56.9818 25.7638 76.7605 28.7336C92.7725 55.2669 68.4202 56.5592 68.4202 56.5592Z" fill="white"/>
<path opacity="0.15" d="M75.6737 109.299C63.4227 109.903 48.2937 107.881 38.9103 104.078V104.077C28.5626 99.8315 22.2195 94.6456 23.8461 87.0691C33.6916 99.5389 58.2111 93.3877 75.6737 109.299Z" fill="white"/>
</svg>
