<svg width="138" height="138" viewBox="0 0 138 138" fill="none" xmlns="http://www.w3.org/2000/svg">
<path d="M43.151 99.617L43.022 109.032C43.004 110.259 48.737 111.331 55.821 111.428C62.907 111.527 68.665 110.611 68.682 109.384L68.811 99.972L43.151 99.617Z" fill="white"/>
<path d="M56.856 111.815H56.854C56.514 111.813 56.165 111.81 55.815 111.806C50.536 111.732 44.252 111.035 42.936 109.678C42.743 109.476 42.645 109.257 42.647 109.027L42.776 99.613C42.778 99.512 42.817 99.418 42.889 99.347C42.961 99.278 43.069 99.252 43.157 99.241L68.817 99.595C69.024 99.599 69.19 99.77 69.186 99.978L69.059 109.39C69.032 111.303 61.376 111.815 56.856 111.815ZM43.524 99.998L43.401 109.037C43.399 109.049 43.413 109.089 43.475 109.154C44.311 110.013 49.161 110.96 55.827 111.052C56.171 111.057 56.515 111.059 56.854 111.059C64.356 111.059 68.297 109.966 68.305 109.379L68.428 100.341L43.524 99.998Z" fill="#5E2C00"/>
<path d="M44.876 99.642L43.151 99.618L43.022 109.033C43.018 109.436 43.643 109.822 44.731 110.164L44.876 99.642Z" fill="#BABABA"/>
<path d="M60.5652 99.859L60.4072 111.343C65.2292 111.091 68.6672 110.332 68.6822 109.385L68.8112 99.973L60.5652 99.859Z" fill="#BABABA"/>
<path d="M68.8109 99.973C68.7949 101.198 63.0359 102.114 55.9499 102.016C48.8659 101.915 43.1359 100.843 43.1509 99.618C43.1709 98.391 48.9259 97.476 56.0119 97.576C63.0959 97.673 68.8289 98.746 68.8109 99.973Z" fill="white"/>
<path d="M56.9789 102.399C56.6369 102.399 56.2929 102.397 55.9459 102.392C51.3779 102.329 42.7489 101.664 42.7759 99.613C42.8029 97.702 50.4579 97.192 54.9769 97.192C55.3209 97.192 55.6679 97.195 56.0179 97.2C59.4649 97.246 62.7069 97.524 65.1449 97.981C68.7859 98.663 69.1959 99.448 69.1859 99.978C69.1609 101.889 61.5009 102.399 56.9789 102.399ZM54.9769 97.944C47.4769 97.944 43.5359 99.036 43.5279 99.623C43.5199 100.248 47.8989 101.526 55.9559 101.641C56.2999 101.646 56.6399 101.647 56.9789 101.647C64.4829 101.647 68.4259 100.555 68.4339 99.969C68.4359 99.84 67.8599 99.256 65.0059 98.72C62.6079 98.273 59.4119 97.998 56.0059 97.952C55.6609 97.947 55.3169 97.944 54.9769 97.944Z" fill="#5E2C00"/>
<path d="M80.4271 56.785C79.8701 48.312 81.947 40.152 82.398 31.758C82.601 27.956 82.3471 20.011 76.7831 19.921L58.4291 19.67L55.812 19.631L37.4571 19.379C31.8941 19.313 31.422 27.249 31.521 31.054C31.74 39.459 33.585 47.673 32.796 56.129C32.151 63.048 28.45 68.488 31.698 75.386C34.1 80.49 37.747 84.123 41.919 87.892C43.601 89.413 45.4311 96.621 45.7591 99.352C47.6461 99.981 52.132 100.292 54.695 100.415L57.316 100.454C59.879 100.398 64.371 100.213 66.275 99.633C66.681 96.915 68.709 89.758 70.431 88.286C74.7061 84.635 78.449 81.102 80.995 76.065C84.429 69.262 80.8801 63.72 80.4271 56.785Z" fill="#DC132C"/>
<path d="M57.3151 100.829H57.3091L54.6881 100.792C52.1411 100.667 47.5961 100.361 45.6391 99.708C45.5001 99.662 45.4031 99.541 45.3831 99.397C45.0291 96.454 43.1741 89.535 41.6661 88.17C37.6641 84.555 33.8631 80.867 31.3551 75.545C29.0851 70.728 30.1171 66.635 31.2051 62.302C31.7011 60.322 32.2171 58.273 32.4201 56.094C32.9061 50.906 32.3791 45.703 31.8711 40.672C31.5551 37.534 31.2261 34.292 31.1421 31.063C31.0681 28.203 31.3101 23.028 33.7811 20.493C34.7441 19.502 35.9591 19 37.3881 19L76.7841 19.545C78.2351 19.568 79.4521 20.097 80.4011 21.113C82.8211 23.709 82.9241 28.909 82.7701 31.777C82.5961 35 82.1801 38.235 81.7761 41.361C81.1301 46.377 80.4601 51.562 80.7991 56.76C80.9421 58.944 81.4011 61.008 81.8441 63.003C82.8131 67.365 83.7271 71.484 81.3281 76.235C78.6721 81.495 74.7711 85.072 70.6741 88.574C69.1311 89.89 67.0821 96.757 66.6451 99.688C66.6241 99.833 66.5201 99.951 66.3811 99.994C64.4241 100.59 59.8631 100.774 57.3201 100.829C57.3201 100.829 57.3171 100.829 57.3151 100.829ZM46.1001 99.065C48.1721 99.665 52.7761 99.946 54.7111 100.042L57.3131 100.079C59.7231 100.025 63.9561 99.857 65.9421 99.337C66.4281 96.408 68.4151 89.516 70.1861 88.001C74.2251 84.552 78.0631 81.03 80.6591 75.897C82.9361 71.385 82.0501 67.393 81.1121 63.169C80.6631 61.146 80.1981 59.053 80.0511 56.811C79.7031 51.54 80.3771 46.319 81.0301 41.265C81.4321 38.152 81.8461 34.933 82.0201 31.74C82.1661 28.989 82.0831 24.02 79.8521 21.629C79.0471 20.767 78.0141 20.32 76.7781 20.301L37.4521 19.756H37.4481C36.1711 19.756 35.1391 20.181 34.3211 21.018C32.0441 23.359 31.8251 28.306 31.8991 31.046C31.9791 34.246 32.3071 37.476 32.6221 40.6C33.1341 45.667 33.6631 50.907 33.1711 56.167C32.9621 58.402 32.4411 60.48 31.9351 62.488C30.8801 66.686 29.8841 70.653 32.0371 75.226C34.4861 80.422 38.2281 84.052 42.1741 87.614C43.9051 89.18 45.6961 96.123 46.1001 99.065Z" fill="#5E2C00"/>
<path d="M35.9483 22.387C44.0753 20.151 53.6263 21.041 61.9583 21.316C67.8253 21.506 76.8414 20.52 80.6964 26.153C81.4403 27.245 82.0033 28.407 82.4343 29.619C82.3733 25.571 81.4403 19.997 76.7823 19.922L37.4563 19.38C34.5073 19.346 32.9974 21.566 32.2354 24.221C33.2824 23.423 34.5033 22.789 35.9483 22.387Z" fill="#DC132C"/>
<path d="M73.5632 82.207C68.0752 86.853 60.7152 89.854 53.4072 89.41C43.0032 88.779 35.1472 81.871 30.8232 72.991C31.0322 73.772 31.3132 74.568 31.6982 75.386C34.1002 80.49 37.7472 84.123 41.9192 87.892C43.6012 89.413 45.4312 96.621 45.7592 99.352C47.6462 99.981 52.1322 100.292 54.6952 100.415L57.3162 100.454C59.8792 100.398 64.3712 100.213 66.2752 99.633C66.6812 96.915 68.7092 89.758 70.4312 88.286C74.7062 84.635 78.4492 81.102 80.9952 76.065C82.1532 73.77 82.5072 71.624 82.4642 69.514C80.5982 74.281 78.0202 78.434 73.5632 82.207Z" fill="#DC132C"/>
<path d="M44.0283 92.176C44.8913 94.766 45.5693 97.789 45.7583 99.352C47.6453 99.981 52.1313 100.292 54.6943 100.415L57.3153 100.454C59.8783 100.398 64.3703 100.213 66.2743 99.633C66.5183 98 67.3483 94.769 68.3463 92.128C60.5653 94.612 51.0813 95.461 44.0283 92.176Z" fill="#DC132C"/>
<path d="M59.825 29.78L54.136 29.7C37.275 29.814 37.603 43.41 37.603 43.41L42.017 72.719C42.017 72.719 41.726 74.607 44.263 74.815C45.777 74.936 51.763 75.001 56.353 75.033C60.947 75.128 66.937 75.23 68.451 75.148C70.992 75.009 70.754 73.118 70.754 73.118L75.977 43.94C75.975 43.939 76.677 30.356 59.825 29.78Z" fill="white"/>
<path d="M66.5051 75.554C64.4251 75.554 61.0051 75.504 56.3471 75.408C51.6611 75.376 45.7511 75.312 44.2321 75.189C43.2501 75.108 42.5251 74.782 42.0821 74.219C41.6051 73.616 41.6191 72.938 41.6391 72.726L37.2331 43.466C37.2231 43.2 37.1451 38.032 41.0811 33.974C44.0341 30.926 48.4291 29.363 54.1361 29.325L59.8311 29.404C65.5441 29.597 69.8921 31.284 72.7651 34.413C76.5851 38.578 76.3651 43.741 76.3531 43.959L71.1341 73.134C71.1461 73.347 71.1401 74.026 70.6501 74.614C70.1891 75.164 69.4571 75.471 68.4721 75.524C68.0961 75.543 67.4341 75.554 66.5051 75.554ZM54.1321 30.077C48.6461 30.113 44.4371 31.598 41.6261 34.489C37.9091 38.315 37.9781 43.35 37.9801 43.4L42.3881 72.661C42.3941 72.698 42.3941 72.737 42.3881 72.775C42.3881 72.775 42.3181 73.313 42.6771 73.76C42.9901 74.146 43.5321 74.375 44.2921 74.437C45.7901 74.559 51.6791 74.623 56.3561 74.654C63.0751 74.794 67.2541 74.835 68.4281 74.771C69.1921 74.73 69.7411 74.516 70.0611 74.139C70.4342 73.701 70.3791 73.162 70.3771 73.16C70.3751 73.123 70.3751 73.084 70.3811 73.049L75.6041 43.872C75.6001 43.87 75.8071 38.841 72.1981 34.912C69.4681 31.944 65.3021 30.343 59.8111 30.155L54.1321 30.077Z" fill="#5E2C00"/>
<path d="M64.7982 71.223C62.4442 71.223 58.5282 71.145 56.4052 71.101C50.7512 71.064 47.3802 71.002 46.3932 70.92C45.5612 70.855 44.9482 70.574 44.5692 70.095C44.1692 69.588 44.1732 69.015 44.1902 68.822L40.5512 44.657C40.5432 44.429 40.4772 40.134 43.7462 36.761C46.1992 34.23 49.8442 32.933 54.5782 32.901L59.2832 32.964C64.0252 33.126 67.6312 34.527 70.0152 37.125C73.1892 40.585 73.0052 44.877 72.9952 45.058L68.6862 69.16C68.6962 69.354 68.6842 69.928 68.2702 70.422C67.8772 70.891 67.2562 71.153 66.4222 71.196C66.1002 71.213 65.5302 71.223 64.7982 71.223ZM54.5772 33.656C50.0632 33.685 46.6022 34.903 44.2942 37.277C41.2452 40.417 41.3002 44.551 41.3002 44.592L44.9412 68.757C44.9472 68.793 44.9472 68.832 44.9412 68.87C44.9412 68.883 44.8882 69.29 45.1682 69.636C45.4142 69.941 45.8462 70.121 46.4552 70.17C47.4262 70.251 50.7752 70.31 56.4162 70.349C59.1892 70.408 65.0292 70.518 66.3872 70.444C66.9962 70.414 67.4342 70.246 67.6902 69.949C67.9792 69.609 67.9402 69.201 67.9362 69.184C67.9342 69.15 67.9342 69.111 67.9402 69.074L72.2532 44.972C72.2532 44.972 72.4172 40.846 69.4562 37.624C67.2142 35.186 63.7862 33.873 59.2682 33.716L54.5772 33.656Z" fill="#4BAA27"/>
<path d="M35.4771 72.023C34.4141 69.252 34.7881 66.966 35.3091 64.178C35.7821 61.654 36.6121 59.327 36.7521 56.744C36.8591 54.766 36.7441 52.777 36.6211 50.803C36.4301 47.626 35.9921 44.422 35.6391 41.221C35.0221 38.714 34.5411 36.174 34.5631 33.633C34.5941 30.689 35.0791 27.707 35.6411 24.769C32.1021 32.364 34.2681 41.305 35.0361 49.343C35.6261 55.498 34.6021 61.009 33.2451 66.968C32.2291 71.427 34.9791 75.515 37.9151 78.601C37.2201 76.816 36.5611 75.125 36.0771 73.46C35.8681 72.986 35.6651 72.509 35.4771 72.023Z" fill="#F67C6E"/>
<path d="M64.4703 83.677C64.0173 83.805 63.5563 83.914 63.0853 84.008C58.8743 85.077 54.6533 85.103 50.6033 84.095C48.3983 83.764 46.2363 83.241 44.2593 82.515C49.4133 87.924 58.0523 87.12 64.4053 84.001C64.5143 83.948 64.6023 83.697 64.4703 83.677Z" fill="#F67C6E"/>
<path d="M78.6361 71.932C78.5191 72.209 78.2961 72.523 78.1851 72.732C77.9291 73.22 77.7241 73.731 77.4801 74.225C77.1191 74.96 76.4961 75.554 76.1831 76.306C76.0991 76.514 76.0911 76.882 76.3721 76.946C77.4071 77.181 78.2101 75.619 78.5991 74.875C78.7691 74.553 78.9541 74.123 79.1031 73.659C78.9751 73.074 78.8211 72.498 78.6361 71.932Z" fill="#F67C6E"/>
<path d="M76.5361 23.082C76.9481 23.939 77.5671 24.646 77.7081 25.637C77.8721 26.818 77.5521 27.998 77.6921 29.168C77.7821 29.908 78.6511 29.066 78.7761 28.797C79.0711 28.167 79.1801 27.481 79.1881 26.786C78.7211 25.175 77.9401 23.867 76.5361 23.082Z" fill="#F67C6E"/>
<path d="M47.7983 47.239C46.6033 50.289 45.9782 58.755 51.2042 58.271C51.5562 58.24 52.0403 57.423 51.5173 57.428C47.8183 57.476 47.3592 52.311 47.6132 49.82C47.8262 47.703 48.9902 45.88 50.5252 44.47C50.8592 44.16 52.4883 43.111 53.8393 42.524C53.2183 42.664 52.5953 42.808 52.1572 43.025C50.4442 43.886 48.5283 45.374 47.7983 47.239Z" fill="white"/>
<path d="M55.7534 41.916C55.6244 42.001 55.4544 42.072 55.2744 42.145C55.3954 42.148 55.5184 42.152 55.5964 42.205C55.6474 42.24 55.7034 42.206 55.7484 42.173C55.7694 42.158 55.7894 42.142 55.8094 42.127C55.9114 42.049 55.9134 41.807 55.7534 41.916Z" fill="white"/>
<path d="M53.8394 42.524C54.3594 42.41 54.8643 42.294 55.2753 42.145C54.9193 42.128 54.4134 42.277 53.8394 42.524Z" fill="white"/>
<path d="M61.354 43.219C56.557 41.113 49.696 42.005 47.352 47.144C44.633 53.11 46.86 59.796 53.461 61.509C59.184 62.995 65.174 59.999 67.195 54.519C69.116 49.319 65.905 44.531 61.354 43.219Z" fill="#DC132C"/>
<path d="M56.4252 62.264H56.4232C55.3962 62.264 54.3682 62.132 53.3682 61.873C50.3782 61.099 48.0552 59.245 46.8232 56.658C45.4502 53.781 45.5202 50.257 47.0092 46.988C48.4972 43.727 51.9292 41.781 56.1892 41.781C58.0412 41.781 59.8782 42.16 61.5052 42.876C63.9662 43.58 66.0642 45.299 67.2142 47.57C68.3142 49.744 68.4332 52.257 67.5502 54.648C65.8682 59.203 61.3992 62.264 56.4252 62.264ZM56.1882 42.535C52.2312 42.535 49.0572 44.315 47.6942 47.3C46.2982 50.365 46.2272 53.659 47.5032 56.335C48.6532 58.753 50.7492 60.416 53.5582 61.145C54.4962 61.389 55.4602 61.512 56.4232 61.512C61.0852 61.512 65.2712 58.65 66.8452 54.39C67.8822 51.579 67.2512 49.314 66.5422 47.91C65.4872 45.824 63.5582 44.247 61.2512 43.582C59.6692 42.889 57.9362 42.535 56.1882 42.535Z" fill="#5E2C00"/>
<path d="M61.432 43.246C62.414 44.739 63.221 46.605 63.215 48.381C63.203 52.006 60.815 56.38 57.008 57.289C53.539 58.118 49.102 57.009 47.52 53.441C46.788 51.792 46.602 50.197 46.788 48.657C45.048 54.195 47.415 59.938 53.462 61.509C59.185 62.995 65.175 59.999 67.196 54.519C69.104 49.349 65.94 44.59 61.432 43.246Z" fill="#DC132C"/>
<path d="M65.4009 40.2C65.4189 40.079 65.3799 39.962 65.2879 39.886C63.1589 41.095 60.6339 42.036 58.2959 42.25C58.3019 41.87 58.2859 41.493 58.2779 41.153C58.2349 39.518 58.0069 37.023 56.0769 36.657C55.6239 36.574 54.6819 37.574 55.2249 37.871C56.2739 38.437 57.0979 40.719 56.8929 42.278C55.7289 42.218 53.6329 41.411 53.5899 41.45C53.5369 41.349 53.4939 41.246 53.4449 41.145C52.7949 40.649 52.2519 39.97 51.8359 39.096C50.8789 40.503 50.4609 42.534 51.3459 44.023C51.6389 44.514 52.0899 44.957 52.5919 45.245C51.8619 45.859 51.2519 46.605 50.6599 47.567C50.3359 48.091 49.9179 49.019 49.7749 49.871C51.8859 46.694 56.0539 43.175 59.1459 45.587C60.2869 46.474 61.1299 47.733 61.7099 49.148C61.8119 48.356 61.8659 47.562 61.7799 46.74C61.6469 45.521 61.0459 44.974 60.4379 44.218C62.4809 43.757 65.1589 42.089 65.4009 40.2Z" fill="#4BAA27"/>
<path d="M50.2272 49.331C50.0822 48.82 49.7622 48.332 49.1822 48.391C48.9592 48.414 48.7412 48.546 48.5392 48.711C48.4982 48.74 48.4592 48.767 48.4222 48.803C48.3612 48.858 48.3132 48.913 48.2602 48.976C48.2352 49.006 48.2092 49.038 48.1862 49.072C48.0302 49.27 47.8992 49.478 47.8342 49.672C47.6522 50.229 47.4042 52.451 48.6152 52.08C48.6792 52.086 48.7422 52.095 48.8102 52.087C49.9272 51.938 50.4952 50.266 50.2272 49.331Z" fill="white"/>
<path d="M50.0569 53.212C50.0469 53.191 50.0359 53.168 50.0259 53.148C49.8559 52.806 49.4189 53.258 49.3309 53.46C49.3289 53.466 49.3229 53.467 49.3189 53.475L49.3169 53.482V53.485L49.2819 53.578C49.0029 54.341 50.3719 53.844 50.0569 53.212Z" fill="white"/>
<path d="M68.5778 107.157L68.4488 116.572C68.4308 117.799 74.1638 118.871 81.2478 118.968C88.3338 119.067 94.0918 118.151 94.1088 116.924L94.2378 107.512L68.5778 107.157Z" fill="white"/>
<path d="M82.2828 119.355H82.2808C81.9408 119.353 81.5918 119.35 81.2418 119.346C75.9628 119.272 69.6788 118.575 68.3628 117.218C68.1698 117.016 68.0718 116.797 68.0738 116.567L68.2028 107.153C68.2048 107.052 68.2437 106.958 68.3157 106.887C68.3877 106.818 68.4958 106.792 68.5838 106.781L94.2438 107.135C94.4508 107.139 94.6168 107.31 94.6128 107.518L94.4857 116.93C94.4587 118.843 86.8028 119.355 82.2828 119.355ZM68.9508 107.538L68.8278 116.577C68.8258 116.589 68.8397 116.629 68.9017 116.694C69.7377 117.553 74.5878 118.5 81.2538 118.592C81.5978 118.597 81.9418 118.599 82.2808 118.599C89.7828 118.599 93.7238 117.506 93.7318 116.919L93.8548 107.881L68.9508 107.538Z" fill="#5E2C00"/>
<path d="M70.3027 107.182L68.5777 107.158L68.4487 116.573C68.4447 116.976 69.0697 117.362 70.1577 117.704L70.3027 107.182Z" fill="#BABABA"/>
<path d="M85.992 107.399L85.834 118.883C90.656 118.631 94.094 117.872 94.109 116.925L94.238 107.513L85.992 107.399Z" fill="#BABABA"/>
<path d="M94.2377 107.513C94.2217 108.738 88.4627 109.654 81.3767 109.556C74.2927 109.455 68.5627 108.383 68.5777 107.158C68.5977 105.931 74.3527 105.016 81.4387 105.116C88.5227 105.213 94.2557 106.286 94.2377 107.513Z" fill="white"/>
<path d="M82.4057 109.939C82.0637 109.939 81.7197 109.937 81.3727 109.932C76.8047 109.869 68.1757 109.204 68.2027 107.153C68.2297 105.242 75.8847 104.732 80.4037 104.732C80.7477 104.732 81.0947 104.735 81.4447 104.74C84.8917 104.786 88.1337 105.064 90.5717 105.521C94.2127 106.203 94.6227 106.988 94.6127 107.518C94.5877 109.429 86.9277 109.939 82.4057 109.939ZM80.4037 105.484C72.9037 105.484 68.9627 106.576 68.9547 107.163C68.9467 107.788 73.3257 109.066 81.3827 109.181C81.7267 109.186 82.0667 109.187 82.4057 109.187C89.9097 109.187 93.8527 108.095 93.8607 107.509C93.8627 107.38 93.2867 106.796 90.4327 106.26C88.0347 105.813 84.8387 105.538 81.4327 105.492C81.0877 105.487 80.7437 105.484 80.4037 105.484Z" fill="#5E2C00"/>
<path d="M105.854 64.3251C105.297 55.8521 107.374 47.692 107.825 39.298C108.028 35.496 107.774 27.5511 102.21 27.4611L83.8558 27.21L81.2388 27.1711L62.8838 26.919C57.3208 26.853 56.8488 34.7891 56.9478 38.5941C57.1668 46.9991 59.0118 55.213 58.2228 63.669C57.5778 70.588 53.8768 76.028 57.1248 82.926C59.5268 88.03 63.1738 91.663 67.3458 95.432C69.0278 96.953 70.8578 104.161 71.1858 106.892C73.0728 107.521 77.5588 107.832 80.1218 107.955L82.7428 107.994C85.3058 107.938 89.7978 107.753 91.7018 107.173C92.1078 104.455 94.1358 97.298 95.8578 95.826C100.133 92.175 103.876 88.642 106.422 83.605C109.856 76.802 106.307 71.2601 105.854 64.3251Z" fill="#DC132C"/>
<path d="M82.7419 108.369H82.7359L80.1149 108.332C77.5679 108.207 73.0229 107.901 71.0659 107.248C70.9269 107.202 70.8299 107.081 70.8099 106.937C70.4559 103.994 68.6009 97.075 67.0929 95.71C63.0909 92.095 59.2899 88.407 56.7819 83.085C54.5119 78.268 55.5439 74.175 56.6319 69.842C57.1279 67.862 57.6439 65.813 57.8469 63.634C58.3329 58.446 57.8059 53.243 57.2979 48.212C56.9819 45.074 56.6529 41.832 56.5689 38.603C56.4949 35.743 56.7369 30.568 59.2079 28.033C60.1709 27.042 61.3859 26.54 62.8149 26.54L102.211 27.085C103.662 27.108 104.879 27.637 105.828 28.653C108.248 31.249 108.351 36.449 108.197 39.317C108.023 42.54 107.607 45.775 107.203 48.901C106.557 53.917 105.887 59.102 106.226 64.3C106.369 66.484 106.828 68.548 107.271 70.543C108.24 74.905 109.154 79.024 106.755 83.775C104.099 89.035 100.198 92.612 96.1009 96.114C94.5579 97.43 92.5089 104.297 92.0719 107.228C92.0509 107.373 91.9469 107.491 91.8079 107.534C89.8509 108.13 85.2899 108.314 82.7469 108.369C82.7469 108.369 82.7439 108.369 82.7419 108.369ZM71.5269 106.605C73.5989 107.205 78.2029 107.486 80.1379 107.582L82.7399 107.619C85.1499 107.565 89.3829 107.397 91.3689 106.877C91.8549 103.948 93.8419 97.056 95.6129 95.541C99.6519 92.092 103.49 88.57 106.086 83.437C108.363 78.925 107.477 74.933 106.539 70.709C106.09 68.686 105.625 66.593 105.478 64.351C105.13 59.08 105.804 53.859 106.457 48.805C106.859 45.692 107.273 42.473 107.447 39.28C107.593 36.529 107.51 31.56 105.279 29.169C104.474 28.307 103.441 27.86 102.205 27.841L62.8789 27.296H62.8749C61.5979 27.296 60.5659 27.721 59.7479 28.558C57.4709 30.899 57.2519 35.846 57.3259 38.586C57.4059 41.786 57.7339 45.016 58.0489 48.14C58.5609 53.207 59.0899 58.447 58.5979 63.707C58.3889 65.942 57.8679 68.02 57.3619 70.028C56.3069 74.226 55.3109 78.193 57.4639 82.766C59.9129 87.962 63.6549 91.592 67.6009 95.154C69.3319 96.72 71.1229 103.663 71.5269 106.605Z" fill="#5E2C00"/>
<path d="M61.3751 29.9271C69.5021 27.6911 79.0531 28.5811 87.3851 28.8561C93.2521 29.0461 102.268 28.0601 106.123 33.6931C106.867 34.7851 107.43 35.9471 107.861 37.1591C107.8 33.1111 106.867 27.5371 102.209 27.4621L62.8831 26.9201C59.9341 26.8861 58.4241 29.1061 57.6621 31.7611C58.7091 30.9631 59.9301 30.3291 61.3751 29.9271Z" fill="#DC132C"/>
<path d="M98.99 89.747C93.502 94.393 86.142 97.394 78.834 96.95C68.43 96.319 60.574 89.411 56.25 80.531C56.459 81.312 56.74 82.108 57.125 82.926C59.527 88.03 63.174 91.663 67.346 95.432C69.028 96.953 70.858 104.161 71.186 106.892C73.073 107.521 77.559 107.832 80.122 107.955L82.743 107.994C85.306 107.938 89.798 107.753 91.702 107.173C92.108 104.455 94.136 97.298 95.858 95.826C100.133 92.175 103.876 88.642 106.422 83.605C107.58 81.31 107.934 79.164 107.891 77.054C106.025 81.821 103.447 85.974 98.99 89.747Z" fill="#DC132C"/>
<path d="M69.4551 99.716C70.3181 102.306 70.9961 105.329 71.1851 106.892C73.0721 107.521 77.5581 107.832 80.1211 107.955L82.7421 107.994C85.3051 107.938 89.7971 107.753 91.7011 107.173C91.9451 105.54 92.7751 102.309 93.7731 99.668C85.9921 102.152 76.5081 103.001 69.4551 99.716Z" fill="#DC132C"/>
<path d="M85.2518 37.3201L79.5628 37.2401C62.7018 37.3541 63.0298 50.9501 63.0298 50.9501L67.4438 80.259C67.4438 80.259 67.1528 82.147 69.6898 82.355C71.2038 82.476 77.1898 82.541 81.7798 82.5731C86.3738 82.6681 92.3638 82.7701 93.8778 82.688C96.4188 82.549 96.1808 80.6581 96.1808 80.6581L101.404 51.4801C101.402 51.4791 102.104 37.8961 85.2518 37.3201Z" fill="white"/>
<path d="M91.9319 83.094C89.8519 83.094 86.4319 83.0441 81.7739 82.9481C77.0879 82.916 71.1779 82.8521 69.6589 82.729C68.6769 82.648 67.9519 82.322 67.5089 81.759C67.0319 81.156 67.0459 80.4781 67.0659 80.2661L62.6599 51.0061C62.6499 50.7401 62.5719 45.5721 66.5079 41.5141C69.4609 38.4661 73.8559 36.9031 79.5629 36.8651L85.2579 36.944C90.9709 37.137 95.3189 38.8241 98.1919 41.9531C102.012 46.1181 101.792 51.2811 101.78 51.4991L96.5609 80.674C96.5729 80.8871 96.5669 81.566 96.0769 82.154C95.6159 82.704 94.8839 83.011 93.8989 83.064C93.5229 83.083 92.8609 83.094 91.9319 83.094ZM79.5589 37.6171C74.0729 37.6531 69.8639 39.1381 67.0529 42.0291C63.3359 45.8551 63.4049 50.89 63.4069 50.9401L67.8149 80.201C67.8209 80.238 67.8209 80.2771 67.8149 80.315C67.8149 80.315 67.7449 80.8531 68.1039 81.3C68.4169 81.6861 68.9589 81.9151 69.7189 81.9771C71.2169 82.0991 77.1059 82.163 81.7829 82.194C88.5019 82.334 92.6809 82.375 93.8549 82.3111C94.6189 82.2701 95.1679 82.056 95.4879 81.679C95.8609 81.241 95.8059 80.702 95.8039 80.7001C95.8019 80.6631 95.8019 80.6241 95.8079 80.5891L101.031 51.4121C101.027 51.4101 101.234 46.3811 97.6249 42.4521C94.8949 39.4841 90.7289 37.8831 85.2379 37.6951L79.5589 37.6171Z" fill="#5E2C00"/>
<path d="M90.2249 78.763C87.8709 78.763 83.9549 78.685 81.8319 78.641C76.1779 78.604 72.8069 78.542 71.8199 78.46C70.9879 78.395 70.3749 78.114 69.9959 77.635C69.5959 77.128 69.5999 76.555 69.6169 76.362L65.9779 52.197C65.9699 51.969 65.9039 47.674 69.1729 44.301C71.6259 41.77 75.2709 40.473 80.0049 40.441L84.7099 40.504C89.4519 40.666 93.0579 42.067 95.4419 44.665C98.6159 48.125 98.4319 52.417 98.4219 52.598L94.1129 76.7C94.1229 76.894 94.1109 77.468 93.6969 77.962C93.3039 78.431 92.6829 78.693 91.8489 78.736C91.5269 78.753 90.9569 78.763 90.2249 78.763ZM80.0039 41.196C75.4899 41.225 72.0289 42.443 69.7209 44.817C66.6719 47.957 66.7269 52.091 66.7269 52.132L70.3679 76.297C70.3739 76.333 70.3739 76.372 70.3679 76.41C70.3679 76.423 70.3149 76.83 70.5949 77.176C70.8409 77.481 71.2729 77.661 71.8819 77.71C72.8529 77.791 76.2019 77.85 81.8429 77.889C84.6159 77.948 90.4559 78.058 91.8139 77.984C92.4229 77.954 92.8609 77.786 93.1169 77.489C93.4059 77.149 93.3669 76.741 93.3629 76.724C93.3609 76.69 93.3609 76.651 93.3669 76.614L97.6799 52.512C97.6799 52.512 97.8439 48.386 94.8829 45.164C92.6409 42.726 89.2129 41.413 84.6949 41.256L80.0039 41.196Z" fill="#4BAA27"/>
<path d="M60.9039 79.5631C59.8409 76.7921 60.2149 74.5061 60.7359 71.7181C61.2089 69.1941 62.0389 66.8671 62.1789 64.2841C62.2859 62.3061 62.1709 60.3171 62.0479 58.3431C61.8569 55.1661 61.4189 51.9621 61.0659 48.7611C60.4489 46.2541 59.9679 43.7141 59.9899 41.1731C60.0209 38.2291 60.5059 35.2471 61.0679 32.3091C57.5289 39.9041 59.6949 48.8451 60.4629 56.8831C61.0529 63.0381 60.0289 68.5491 58.6719 74.5081C57.6559 78.9671 60.4059 83.0551 63.3419 86.1411C62.6469 84.3561 61.9879 82.6651 61.5039 81.0001C61.2949 80.5261 61.0919 80.0491 60.9039 79.5631Z" fill="#F67C6E"/>
<path d="M89.897 91.2171C89.444 91.3451 88.983 91.4541 88.512 91.5481C84.301 92.6171 80.08 92.6431 76.03 91.6351C73.825 91.3041 71.663 90.7811 69.686 90.0551C74.84 95.4641 83.479 94.6601 89.832 91.5411C89.941 91.4881 90.029 91.2371 89.897 91.2171Z" fill="#F67C6E"/>
<path d="M104.063 79.472C103.946 79.749 103.723 80.063 103.612 80.272C103.356 80.76 103.151 81.271 102.907 81.765C102.546 82.5 101.923 83.094 101.61 83.846C101.526 84.054 101.518 84.422 101.799 84.486C102.834 84.721 103.637 83.159 104.026 82.415C104.196 82.093 104.381 81.6631 104.53 81.1991C104.402 80.6141 104.248 80.038 104.063 79.472Z" fill="#F67C6E"/>
<path d="M101.963 30.6221C102.375 31.4791 102.994 32.1861 103.135 33.1771C103.299 34.3581 102.979 35.5381 103.119 36.7081C103.209 37.4481 104.078 36.6061 104.203 36.3371C104.498 35.7071 104.607 35.0211 104.615 34.3261C104.148 32.7151 103.367 31.4071 101.963 30.6221Z" fill="#F67C6E"/>
<path d="M73.225 54.779C72.03 57.829 71.405 66.295 76.631 65.811C76.983 65.78 77.467 64.963 76.944 64.968C73.245 65.016 72.786 59.851 73.04 57.36C73.253 55.243 74.417 53.42 75.952 52.01C76.286 51.7 77.915 50.651 79.266 50.064C78.645 50.204 78.022 50.348 77.584 50.565C75.871 51.426 73.955 52.914 73.225 54.779Z" fill="white"/>
<path d="M81.1802 49.456C81.0512 49.541 80.8812 49.612 80.7012 49.685C80.8222 49.688 80.9452 49.692 81.0232 49.745C81.0742 49.78 81.1302 49.746 81.1752 49.713C81.1962 49.698 81.2162 49.682 81.2362 49.667C81.3382 49.589 81.3402 49.347 81.1802 49.456Z" fill="white"/>
<path d="M79.2661 50.064C79.7861 49.95 80.2911 49.834 80.7021 49.685C80.3461 49.668 79.8401 49.817 79.2661 50.064Z" fill="white"/>
<path d="M86.7807 50.7591C81.9837 48.6531 75.1227 49.545 72.7787 54.684C70.0597 60.65 72.2867 67.3361 78.8877 69.0491C84.6107 70.5351 90.6007 67.539 92.6217 62.059C94.5427 56.859 91.3317 52.0711 86.7807 50.7591Z" fill="#DC132C"/>
<path d="M81.852 69.804H81.85C80.823 69.804 79.795 69.672 78.795 69.413C75.805 68.639 73.482 66.785 72.25 64.198C70.877 61.321 70.947 57.797 72.436 54.528C73.924 51.267 77.356 49.321 81.616 49.321C83.468 49.321 85.305 49.7 86.932 50.416C89.393 51.12 91.491 52.839 92.641 55.11C93.741 57.284 93.86 59.797 92.977 62.188C91.295 66.743 86.826 69.804 81.852 69.804ZM81.615 50.075C77.658 50.075 74.484 51.855 73.121 54.84C71.725 57.905 71.654 61.199 72.93 63.875C74.08 66.293 76.176 67.956 78.985 68.685C79.923 68.929 80.887 69.052 81.85 69.052C86.512 69.052 90.698 66.19 92.272 61.93C93.309 59.119 92.678 56.854 91.969 55.45C90.914 53.364 88.985 51.787 86.678 51.122C85.096 50.429 83.363 50.075 81.615 50.075Z" fill="#5E2C00"/>
<path d="M86.8587 50.786C87.8407 52.279 88.6477 54.145 88.6417 55.921C88.6297 59.546 86.2417 63.92 82.4347 64.829C78.9657 65.658 74.5287 64.549 72.9467 60.981C72.2147 59.332 72.0287 57.737 72.2147 56.197C70.4747 61.735 72.8417 67.478 78.8887 69.049C84.6117 70.535 90.6017 67.539 92.6227 62.059C94.5307 56.889 91.3667 52.13 86.8587 50.786Z" fill="#DC132C"/>
<path d="M90.8277 47.74C90.8457 47.619 90.8067 47.502 90.7147 47.426C88.5857 48.635 86.0607 49.576 83.7227 49.79C83.7287 49.41 83.7127 49.033 83.7047 48.693C83.6617 47.058 83.4337 44.563 81.5037 44.197C81.0507 44.114 80.1087 45.114 80.6517 45.411C81.7007 45.977 82.5247 48.259 82.3197 49.818C81.1557 49.758 79.0597 48.951 79.0167 48.99C78.9637 48.889 78.9207 48.786 78.8717 48.685C78.2217 48.189 77.6787 47.51 77.2627 46.636C76.3057 48.043 75.8877 50.074 76.7727 51.563C77.0657 52.054 77.5167 52.497 78.0187 52.785C77.2887 53.399 76.6787 54.145 76.0867 55.107C75.7627 55.631 75.3447 56.559 75.2017 57.411C77.3127 54.234 81.4807 50.715 84.5727 53.127C85.7137 54.014 86.5567 55.273 87.1367 56.688C87.2387 55.896 87.2927 55.102 87.2067 54.28C87.0737 53.061 86.4727 52.514 85.8647 51.758C87.9077 51.297 90.5857 49.629 90.8277 47.74Z" fill="#4BAA27"/>
<path d="M75.654 56.8711C75.509 56.3601 75.189 55.8721 74.609 55.9311C74.386 55.9541 74.168 56.0861 73.966 56.2511C73.925 56.2801 73.886 56.3071 73.849 56.3431C73.788 56.3981 73.74 56.4531 73.687 56.5161C73.662 56.5461 73.636 56.5781 73.613 56.6121C73.457 56.8101 73.326 57.0181 73.261 57.2121C73.079 57.7691 72.831 59.9911 74.042 59.6201C74.106 59.6261 74.169 59.6351 74.237 59.6271C75.354 59.4781 75.922 57.8061 75.654 56.8711Z" fill="white"/>
<path d="M75.4837 60.7521C75.4737 60.7311 75.4627 60.7081 75.4527 60.6881C75.2827 60.3461 74.8457 60.7981 74.7577 61.0001C74.7557 61.0061 74.7497 61.0071 74.7457 61.0151L74.7437 61.0221V61.025L74.7087 61.1181C74.4297 61.8811 75.7987 61.3841 75.4837 60.7521Z" fill="white"/>
</svg>
